<svg width="732" height="81" viewBox="0 0 732 81" fill="none" xmlns="http://www.w3.org/2000/svg">
<path d="M4.62125 0.2L4.21825 7.051H0.653254L0.250254 0.2H4.62125ZM10.5113 0.2L10.1083 7.051H6.54325L6.14025 0.2H10.5113ZM29.3324 3.238V7.485H23.5664V25H18.2654V7.485H12.4994V3.238H29.3324ZM42.6258 7.516C44.6098 7.516 46.2011 8.17733 47.3998 9.5C48.5985 10.802 49.1978 12.6 49.1978 14.894V25H43.9278V15.607C43.9278 14.4497 43.6281 13.5507 43.0288 12.91C42.4295 12.2693 41.6235 11.949 40.6108 11.949C39.5981 11.949 38.7921 12.2693 38.1928 12.91C37.5935 13.5507 37.2938 14.4497 37.2938 15.607V25H31.9928V2.06H37.2938V10.027C37.8311 9.26233 38.5648 8.65267 39.4948 8.198C40.4248 7.74333 41.4685 7.516 42.6258 7.516ZM69.1875 16.072C69.1875 16.568 69.1565 17.0847 69.0945 17.622H57.0975C57.1801 18.6967 57.5211 19.5233 58.1205 20.102C58.7405 20.66 59.4948 20.939 60.3835 20.939C61.7061 20.939 62.6258 20.381 63.1425 19.265H68.7845C68.4951 20.4017 67.9681 21.4247 67.2035 22.334C66.4595 23.2433 65.5191 23.9563 64.3825 24.473C63.2458 24.9897 61.9748 25.248 60.5695 25.248C58.8748 25.248 57.3661 24.8863 56.0435 24.163C54.7208 23.4397 53.6875 22.4063 52.9435 21.063C52.1995 19.7197 51.8275 18.149 51.8275 16.351C51.8275 14.553 52.1891 12.9823 52.9125 11.639C53.6565 10.2957 54.6898 9.26233 56.0125 8.539C57.3351 7.81567 58.8541 7.454 60.5695 7.454C62.2435 7.454 63.7315 7.80533 65.0335 8.508C66.3355 9.21067 67.3481 10.213 68.0715 11.515C68.8155 12.817 69.1875 14.336 69.1875 16.072ZM63.7625 14.677C63.7625 13.7677 63.4525 13.0443 62.8325 12.507C62.2125 11.9697 61.4375 11.701 60.5075 11.701C59.6188 11.701 58.8645 11.9593 58.2445 12.476C57.6451 12.9927 57.2731 13.7263 57.1285 14.677H63.7625ZM85.5903 25.248C84.0817 25.248 82.7383 24.9897 81.5603 24.473C80.3823 23.9563 79.4523 23.2537 78.7703 22.365C78.0883 21.4557 77.706 20.443 77.6233 19.327H82.8623C82.9243 19.9263 83.2033 20.412 83.6993 20.784C84.1953 21.156 84.805 21.342 85.5283 21.342C86.1897 21.342 86.696 21.218 87.0473 20.97C87.4193 20.7013 87.6053 20.3603 87.6053 19.947C87.6053 19.451 87.347 19.0893 86.8303 18.862C86.3137 18.614 85.4767 18.3453 84.3193 18.056C83.0793 17.7667 82.046 17.467 81.2193 17.157C80.3927 16.8263 79.6797 16.32 79.0803 15.638C78.481 14.9353 78.1813 13.995 78.1813 12.817C78.1813 11.825 78.45 10.926 78.9873 10.12C79.5453 9.29333 80.3513 8.64233 81.4053 8.167C82.48 7.69167 83.751 7.454 85.2183 7.454C87.3883 7.454 89.0933 7.99133 90.3333 9.066C91.594 10.1407 92.3173 11.5667 92.5033 13.344H87.6053C87.5227 12.7447 87.254 12.2693 86.7993 11.918C86.3653 11.5667 85.7867 11.391 85.0633 11.391C84.4433 11.391 83.968 11.515 83.6373 11.763C83.3067 11.9903 83.1413 12.3107 83.1413 12.724C83.1413 13.22 83.3997 13.592 83.9163 13.84C84.4537 14.088 85.2803 14.336 86.3963 14.584C87.6777 14.9147 88.7213 15.2453 89.5273 15.576C90.3333 15.886 91.036 16.4027 91.6353 17.126C92.2553 17.8287 92.5757 18.7793 92.5963 19.978C92.5963 20.9907 92.307 21.9 91.7283 22.706C91.1703 23.4913 90.354 24.1113 89.2793 24.566C88.2253 25.0207 86.9957 25.248 85.5903 25.248ZM112.92 7.702V25H107.619V22.644C107.082 23.4087 106.348 24.0287 105.418 24.504C104.509 24.9587 103.496 25.186 102.38 25.186C101.058 25.186 99.8901 24.8967 98.8775 24.318C97.8648 23.7187 97.0795 22.861 96.5215 21.745C95.9635 20.629 95.6845 19.3167 95.6845 17.808V7.702H100.954V17.095C100.954 18.2523 101.254 19.1513 101.853 19.792C102.453 20.4327 103.259 20.753 104.271 20.753C105.305 20.753 106.121 20.4327 106.72 19.792C107.32 19.1513 107.619 18.2523 107.619 17.095V7.702H112.92ZM127.268 7.516C129.293 7.516 130.905 8.17733 132.104 9.5C133.323 10.802 133.933 12.6 133.933 14.894V25H128.663V15.607C128.663 14.4497 128.363 13.5507 127.764 12.91C127.165 12.2693 126.359 11.949 125.346 11.949C124.333 11.949 123.527 12.2693 122.928 12.91C122.329 13.5507 122.029 14.4497 122.029 15.607V25H116.728V7.702H122.029V9.996C122.566 9.23133 123.29 8.632 124.199 8.198C125.108 7.74333 126.131 7.516 127.268 7.516ZM151.223 25.248C149.714 25.248 148.371 24.9897 147.193 24.473C146.015 23.9563 145.085 23.2537 144.403 22.365C143.721 21.4557 143.339 20.443 143.256 19.327H148.495C148.557 19.9263 148.836 20.412 149.332 20.784C149.828 21.156 150.438 21.342 151.161 21.342C151.822 21.342 152.329 21.218 152.68 20.97C153.052 20.7013 153.238 20.3603 153.238 19.947C153.238 19.451 152.98 19.0893 152.463 18.862C151.946 18.614 151.109 18.3453 149.952 18.056C148.712 17.7667 147.679 17.467 146.852 17.157C146.025 16.8263 145.312 16.32 144.713 15.638C144.114 14.9353 143.814 13.995 143.814 12.817C143.814 11.825 144.083 10.926 144.62 10.12C145.178 9.29333 145.984 8.64233 147.038 8.167C148.113 7.69167 149.384 7.454 150.851 7.454C153.021 7.454 154.726 7.99133 155.966 9.066C157.227 10.1407 157.95 11.5667 158.136 13.344H153.238C153.155 12.7447 152.887 12.2693 152.432 11.918C151.998 11.5667 151.419 11.391 150.696 11.391C150.076 11.391 149.601 11.515 149.27 11.763C148.939 11.9903 148.774 12.3107 148.774 12.724C148.774 13.22 149.032 13.592 149.549 13.84C150.086 14.088 150.913 14.336 152.029 14.584C153.31 14.9147 154.354 15.2453 155.16 15.576C155.966 15.886 156.669 16.4027 157.268 17.126C157.888 17.8287 158.208 18.7793 158.229 19.978C158.229 20.9907 157.94 21.9 157.361 22.706C156.803 23.4913 155.987 24.1113 154.912 24.566C153.858 25.0207 152.628 25.248 151.223 25.248ZM177.778 16.072C177.778 16.568 177.747 17.0847 177.685 17.622H165.688C165.771 18.6967 166.112 19.5233 166.711 20.102C167.331 20.66 168.086 20.939 168.974 20.939C170.297 20.939 171.217 20.381 171.733 19.265H177.375C177.086 20.4017 176.559 21.4247 175.794 22.334C175.05 23.2433 174.11 23.9563 172.973 24.473C171.837 24.9897 170.566 25.248 169.16 25.248C167.466 25.248 165.957 24.8863 164.634 24.163C163.312 23.4397 162.278 22.4063 161.534 21.063C160.79 19.7197 160.418 18.149 160.418 16.351C160.418 14.553 160.78 12.9823 161.503 11.639C162.247 10.2957 163.281 9.26233 164.603 8.539C165.926 7.81567 167.445 7.454 169.16 7.454C170.834 7.454 172.322 7.80533 173.624 8.508C174.926 9.21067 175.939 10.213 176.662 11.515C177.406 12.817 177.778 14.336 177.778 16.072ZM172.353 14.677C172.353 13.7677 172.043 13.0443 171.423 12.507C170.803 11.9697 170.028 11.701 169.098 11.701C168.21 11.701 167.455 11.9593 166.835 12.476C166.236 12.9927 165.864 13.7263 165.719 14.677H172.353ZM190.216 20.505V25H187.519C185.597 25 184.098 24.535 183.024 23.605C181.949 22.6543 181.412 21.1147 181.412 18.986V12.104H179.304V7.702H181.412V3.486H186.713V7.702H190.185V12.104H186.713V19.048C186.713 19.5647 186.837 19.9367 187.085 20.164C187.333 20.3913 187.746 20.505 188.325 20.505H190.216ZM207.612 25.248C205.917 25.248 204.388 24.8863 203.024 24.163C201.681 23.4397 200.616 22.4063 199.831 21.063C199.066 19.7197 198.684 18.149 198.684 16.351C198.684 14.5737 199.077 13.0133 199.862 11.67C200.647 10.306 201.722 9.26233 203.086 8.539C204.45 7.81567 205.979 7.454 207.674 7.454C209.369 7.454 210.898 7.81567 212.262 8.539C213.626 9.26233 214.701 10.306 215.486 11.67C216.271 13.0133 216.664 14.5737 216.664 16.351C216.664 18.1283 216.261 19.699 215.455 21.063C214.67 22.4063 213.585 23.4397 212.2 24.163C210.836 24.8863 209.307 25.248 207.612 25.248ZM207.612 20.66C208.625 20.66 209.482 20.288 210.185 19.544C210.908 18.8 211.27 17.7357 211.27 16.351C211.27 14.9663 210.919 13.902 210.216 13.158C209.534 12.414 208.687 12.042 207.674 12.042C206.641 12.042 205.783 12.414 205.101 13.158C204.419 13.8813 204.078 14.9457 204.078 16.351C204.078 17.7357 204.409 18.8 205.07 19.544C205.752 20.288 206.599 20.66 207.612 20.66ZM227.257 20.04L231.008 7.702H236.65L230.512 25H223.971L217.833 7.702H223.506L227.257 20.04ZM255.187 16.072C255.187 16.568 255.156 17.0847 255.094 17.622H243.097C243.18 18.6967 243.521 19.5233 244.12 20.102C244.74 20.66 245.495 20.939 246.383 20.939C247.706 20.939 248.626 20.381 249.142 19.265H254.784C254.495 20.4017 253.968 21.4247 253.203 22.334C252.459 23.2433 251.519 23.9563 250.382 24.473C249.246 24.9897 247.975 25.248 246.569 25.248C244.875 25.248 243.366 24.8863 242.043 24.163C240.721 23.4397 239.687 22.4063 238.943 21.063C238.199 19.7197 237.827 18.149 237.827 16.351C237.827 14.553 238.189 12.9823 238.912 11.639C239.656 10.2957 240.69 9.26233 242.012 8.539C243.335 7.81567 244.854 7.454 246.569 7.454C248.243 7.454 249.731 7.80533 251.033 8.508C252.335 9.21067 253.348 10.213 254.071 11.515C254.815 12.817 255.187 14.336 255.187 16.072ZM249.762 14.677C249.762 13.7677 249.452 13.0443 248.832 12.507C248.212 11.9697 247.437 11.701 246.507 11.701C245.619 11.701 244.864 11.9593 244.244 12.476C243.645 12.9927 243.273 13.7263 243.128 14.677H249.762ZM263.285 10.585C263.905 9.63433 264.68 8.89033 265.61 8.353C266.54 7.795 267.573 7.516 268.71 7.516V13.127H267.253C265.93 13.127 264.938 13.4163 264.277 13.995C263.616 14.553 263.285 15.545 263.285 16.971V25H257.984V7.702H263.285V10.585ZM287.454 20.505V25H284.757C282.835 25 281.337 24.535 280.262 23.605C279.187 22.6543 278.65 21.1147 278.65 18.986V12.104H276.542V7.702H278.65V3.486H283.951V7.702H287.423V12.104H283.951V19.048C283.951 19.5647 284.075 19.9367 284.323 20.164C284.571 20.3913 284.984 20.505 285.563 20.505H287.454ZM301.04 7.516C303.024 7.516 304.615 8.17733 305.814 9.5C307.013 10.802 307.612 12.6 307.612 14.894V25H302.342V15.607C302.342 14.4497 302.042 13.5507 301.443 12.91C300.844 12.2693 300.038 11.949 299.025 11.949C298.012 11.949 297.206 12.2693 296.607 12.91C296.008 13.5507 295.708 14.4497 295.708 15.607V25H290.407V2.06H295.708V10.027C296.245 9.26233 296.979 8.65267 297.909 8.198C298.839 7.74333 299.883 7.516 301.04 7.516ZM327.602 16.072C327.602 16.568 327.571 17.0847 327.509 17.622H315.512C315.594 18.6967 315.935 19.5233 316.535 20.102C317.155 20.66 317.909 20.939 318.798 20.939C320.12 20.939 321.04 20.381 321.557 19.265H327.199C326.909 20.4017 326.382 21.4247 325.618 22.334C324.874 23.2433 323.933 23.9563 322.797 24.473C321.66 24.9897 320.389 25.248 318.984 25.248C317.289 25.248 315.78 24.8863 314.458 24.163C313.135 23.4397 312.102 22.4063 311.358 21.063C310.614 19.7197 310.242 18.149 310.242 16.351C310.242 14.553 310.603 12.9823 311.327 11.639C312.071 10.2957 313.104 9.26233 314.427 8.539C315.749 7.81567 317.268 7.454 318.984 7.454C320.658 7.454 322.146 7.80533 323.448 8.508C324.75 9.21067 325.762 10.213 326.486 11.515C327.23 12.817 327.602 14.336 327.602 16.072ZM322.177 14.677C322.177 13.7677 321.867 13.0443 321.247 12.507C320.627 11.9697 319.852 11.701 318.922 11.701C318.033 11.701 317.279 11.9593 316.659 12.476C316.059 12.9927 315.687 13.7263 315.543 14.677H322.177ZM346.608 20.505V25H343.911C341.989 25 340.491 24.535 339.416 23.605C338.342 22.6543 337.804 21.1147 337.804 18.986V12.104H335.696V7.702H337.804V3.486H343.105V7.702H346.577V12.104H343.105V19.048C343.105 19.5647 343.229 19.9367 343.477 20.164C343.725 20.3913 344.139 20.505 344.717 20.505H346.608ZM354.862 10.585C355.482 9.63433 356.257 8.89033 357.187 8.353C358.117 7.795 359.15 7.516 360.287 7.516V13.127H358.83C357.507 13.127 356.515 13.4163 355.854 13.995C355.193 14.553 354.862 15.545 354.862 16.971V25H349.561V7.702H354.862V10.585ZM361.767 16.32C361.767 14.5427 362.098 12.9823 362.759 11.639C363.441 10.2957 364.361 9.26233 365.518 8.539C366.675 7.81567 367.967 7.454 369.393 7.454C370.612 7.454 371.677 7.702 372.586 8.198C373.516 8.694 374.229 9.345 374.725 10.151V7.702H380.026V25H374.725V22.551C374.208 23.357 373.485 24.008 372.555 24.504C371.646 25 370.581 25.248 369.362 25.248C367.957 25.248 366.675 24.8863 365.518 24.163C364.361 23.419 363.441 22.3753 362.759 21.032C362.098 19.668 361.767 18.0973 361.767 16.32ZM374.725 16.351C374.725 15.0283 374.353 13.9847 373.609 13.22C372.886 12.4553 371.997 12.073 370.943 12.073C369.889 12.073 368.99 12.4553 368.246 13.22C367.523 13.964 367.161 14.9973 367.161 16.32C367.161 17.6427 367.523 18.6967 368.246 19.482C368.99 20.2467 369.889 20.629 370.943 20.629C371.997 20.629 372.886 20.2467 373.609 19.482C374.353 18.7173 374.725 17.6737 374.725 16.351ZM394.401 7.516C396.426 7.516 398.038 8.17733 399.237 9.5C400.456 10.802 401.066 12.6 401.066 14.894V25H395.796V15.607C395.796 14.4497 395.496 13.5507 394.897 12.91C394.298 12.2693 393.492 11.949 392.479 11.949C391.466 11.949 390.66 12.2693 390.061 12.91C389.462 13.5507 389.162 14.4497 389.162 15.607V25H383.861V7.702H389.162V9.996C389.699 9.23133 390.423 8.632 391.332 8.198C392.241 7.74333 393.264 7.516 394.401 7.516ZM403.696 16.382C403.696 14.6667 404.047 13.1373 404.75 11.794C405.473 10.4507 406.434 9.407 407.633 8.663C408.852 7.89833 410.175 7.516 411.601 7.516C412.696 7.516 413.678 7.71233 414.546 8.105C415.414 8.477 416.116 9.004 416.654 9.686V7.702H421.955V33.246H416.654V22.83C416.054 23.5533 415.321 24.132 414.453 24.566C413.605 25 412.634 25.217 411.539 25.217C410.133 25.217 408.831 24.845 407.633 24.101C406.434 23.357 405.473 22.3133 404.75 20.97C404.047 19.6267 403.696 18.0973 403.696 16.382ZM416.654 16.351C416.654 15.421 416.468 14.646 416.096 14.026C415.744 13.3853 415.279 12.91 414.701 12.6C414.122 12.2693 413.512 12.104 412.872 12.104C412.252 12.104 411.652 12.2693 411.074 12.6C410.495 12.91 410.02 13.3853 409.648 14.026C409.276 14.6667 409.09 15.452 409.09 16.382C409.09 17.312 409.276 18.0973 409.648 18.738C410.02 19.358 410.495 19.8333 411.074 20.164C411.652 20.474 412.252 20.629 412.872 20.629C413.492 20.629 414.091 20.474 414.67 20.164C415.269 19.8333 415.744 19.3477 416.096 18.707C416.468 18.0663 416.654 17.281 416.654 16.351ZM442.871 7.702V25H437.57V22.644C437.032 23.4087 436.299 24.0287 435.369 24.504C434.459 24.9587 433.447 25.186 432.331 25.186C431.008 25.186 429.84 24.8967 428.828 24.318C427.815 23.7187 427.03 22.861 426.472 21.745C425.914 20.629 425.635 19.3167 425.635 17.808V7.702H430.905V17.095C430.905 18.2523 431.204 19.1513 431.804 19.792C432.403 20.4327 433.209 20.753 434.222 20.753C435.255 20.753 436.071 20.4327 436.671 19.792C437.27 19.1513 437.57 18.2523 437.57 17.095V7.702H442.871ZM449.344 5.904C448.414 5.904 447.65 5.63533 447.05 5.098C446.472 4.54 446.182 3.858 446.182 3.052C446.182 2.22533 446.472 1.54333 447.05 1.006C447.65 0.447998 448.414 0.168998 449.344 0.168998C450.254 0.168998 450.998 0.447998 451.576 1.006C452.176 1.54333 452.475 2.22533 452.475 3.052C452.475 3.858 452.176 4.54 451.576 5.098C450.998 5.63533 450.254 5.904 449.344 5.904ZM451.979 7.702V25H446.678V7.702H451.979ZM461.122 2.06V25H455.821V2.06H461.122ZM479.407 25.248C477.712 25.248 476.183 24.8863 474.819 24.163C473.476 23.4397 472.411 22.4063 471.626 21.063C470.861 19.7197 470.479 18.149 470.479 16.351C470.479 14.5737 470.872 13.0133 471.657 11.67C472.442 10.306 473.517 9.26233 474.881 8.539C476.245 7.81567 477.774 7.454 479.469 7.454C481.164 7.454 482.693 7.81567 484.057 8.539C485.421 9.26233 486.496 10.306 487.281 11.67C488.066 13.0133 488.459 14.5737 488.459 16.351C488.459 18.1283 488.056 19.699 487.25 21.063C486.465 22.4063 485.38 23.4397 483.995 24.163C482.631 24.8863 481.102 25.248 479.407 25.248ZM479.407 20.66C480.42 20.66 481.277 20.288 481.98 19.544C482.703 18.8 483.065 17.7357 483.065 16.351C483.065 14.9663 482.714 13.902 482.011 13.158C481.329 12.414 480.482 12.042 479.469 12.042C478.436 12.042 477.578 12.414 476.896 13.158C476.214 13.8813 475.873 14.9457 475.873 16.351C475.873 17.7357 476.204 18.8 476.865 19.544C477.547 20.288 478.394 20.66 479.407 20.66ZM490.217 16.351C490.217 14.553 490.579 12.9823 491.302 11.639C492.046 10.2957 493.069 9.26233 494.371 8.539C495.694 7.81567 497.202 7.454 498.897 7.454C501.067 7.454 502.875 8.02233 504.322 9.159C505.789 10.2957 506.75 11.8973 507.205 13.964H501.563C501.088 12.6413 500.168 11.98 498.804 11.98C497.833 11.98 497.058 12.3623 496.479 13.127C495.9 13.871 495.611 14.9457 495.611 16.351C495.611 17.7563 495.9 18.8413 496.479 19.606C497.058 20.35 497.833 20.722 498.804 20.722C500.168 20.722 501.088 20.0607 501.563 18.738H507.205C506.75 20.7633 505.789 22.3547 504.322 23.512C502.855 24.6693 501.046 25.248 498.897 25.248C497.202 25.248 495.694 24.8863 494.371 24.163C493.069 23.4397 492.046 22.4063 491.302 21.063C490.579 19.7197 490.217 18.149 490.217 16.351ZM526.347 16.072C526.347 16.568 526.316 17.0847 526.254 17.622H514.257C514.339 18.6967 514.68 19.5233 515.28 20.102C515.9 20.66 516.654 20.939 517.543 20.939C518.865 20.939 519.785 20.381 520.302 19.265H525.944C525.654 20.4017 525.127 21.4247 524.363 22.334C523.619 23.2433 522.678 23.9563 521.542 24.473C520.405 24.9897 519.134 25.248 517.729 25.248C516.034 25.248 514.525 24.8863 513.203 24.163C511.88 23.4397 510.847 22.4063 510.103 21.063C509.359 19.7197 508.987 18.149 508.987 16.351C508.987 14.553 509.348 12.9823 510.072 11.639C510.816 10.2957 511.849 9.26233 513.172 8.539C514.494 7.81567 516.013 7.454 517.729 7.454C519.403 7.454 520.891 7.80533 522.193 8.508C523.495 9.21067 524.507 10.213 525.231 11.515C525.975 12.817 526.347 14.336 526.347 16.072ZM520.922 14.677C520.922 13.7677 520.612 13.0443 519.992 12.507C519.372 11.9697 518.597 11.701 517.667 11.701C516.778 11.701 516.024 11.9593 515.404 12.476C514.804 12.9927 514.432 13.7263 514.288 14.677H520.922ZM528.089 16.32C528.089 14.5427 528.42 12.9823 529.081 11.639C529.763 10.2957 530.683 9.26233 531.84 8.539C532.998 7.81567 534.289 7.454 535.715 7.454C536.935 7.454 537.999 7.702 538.908 8.198C539.838 8.694 540.551 9.345 541.047 10.151V7.702H546.348V25H541.047V22.551C540.531 23.357 539.807 24.008 538.877 24.504C537.968 25 536.904 25.248 535.684 25.248C534.279 25.248 532.998 24.8863 531.84 24.163C530.683 23.419 529.763 22.3753 529.081 21.032C528.42 19.668 528.089 18.0973 528.089 16.32ZM541.047 16.351C541.047 15.0283 540.675 13.9847 539.931 13.22C539.208 12.4553 538.319 12.073 537.265 12.073C536.211 12.073 535.312 12.4553 534.568 13.22C533.845 13.964 533.483 14.9973 533.483 16.32C533.483 17.6427 533.845 18.6967 534.568 19.482C535.312 20.2467 536.211 20.629 537.265 20.629C538.319 20.629 539.208 20.2467 539.931 19.482C540.675 18.7173 541.047 17.6737 541.047 16.351ZM560.723 7.516C562.749 7.516 564.361 8.17733 565.559 9.5C566.779 10.802 567.388 12.6 567.388 14.894V25H562.118V15.607C562.118 14.4497 561.819 13.5507 561.219 12.91C560.62 12.2693 559.814 11.949 558.801 11.949C557.789 11.949 556.983 12.2693 556.383 12.91C555.784 13.5507 555.484 14.4497 555.484 15.607V25H550.183V7.702H555.484V9.996C556.022 9.23133 556.745 8.632 557.654 8.198C558.564 7.74333 559.587 7.516 560.723 7.516ZM576.776 20.102L573.335 28.999H569.956L571.754 20.102H576.776ZM585.488 16.351C585.488 14.553 585.849 12.9823 586.573 11.639C587.317 10.2957 588.34 9.26233 589.642 8.539C590.964 7.81567 592.473 7.454 594.168 7.454C596.338 7.454 598.146 8.02233 599.593 9.159C601.06 10.2957 602.021 11.8973 602.476 13.964H596.834C596.358 12.6413 595.439 11.98 594.075 11.98C593.103 11.98 592.328 12.3623 591.75 13.127C591.171 13.871 590.882 14.9457 590.882 16.351C590.882 17.7563 591.171 18.8413 591.75 19.606C592.328 20.35 593.103 20.722 594.075 20.722C595.439 20.722 596.358 20.0607 596.834 18.738H602.476C602.021 20.7633 601.06 22.3547 599.593 23.512C598.125 24.6693 596.317 25.248 594.168 25.248C592.473 25.248 590.964 24.8863 589.642 24.163C588.34 23.4397 587.317 22.4063 586.573 21.063C585.849 19.7197 585.488 18.149 585.488 16.351ZM604.257 16.32C604.257 14.5427 604.588 12.9823 605.249 11.639C605.931 10.2957 606.851 9.26233 608.008 8.539C609.165 7.81567 610.457 7.454 611.883 7.454C613.102 7.454 614.167 7.702 615.076 8.198C616.006 8.694 616.719 9.345 617.215 10.151V7.702H622.516V25H617.215V22.551C616.698 23.357 615.975 24.008 615.045 24.504C614.136 25 613.071 25.248 611.852 25.248C610.447 25.248 609.165 24.8863 608.008 24.163C606.851 23.419 605.931 22.3753 605.249 21.032C604.588 19.668 604.257 18.0973 604.257 16.32ZM617.215 16.351C617.215 15.0283 616.843 13.9847 616.099 13.22C615.376 12.4553 614.487 12.073 613.433 12.073C612.379 12.073 611.48 12.4553 610.736 13.22C610.013 13.964 609.651 14.9973 609.651 16.32C609.651 17.6427 610.013 18.6967 610.736 19.482C611.48 20.2467 612.379 20.629 613.433 20.629C614.487 20.629 615.376 20.2467 616.099 19.482C616.843 18.7173 617.215 17.6737 617.215 16.351ZM633.388 25.248C631.88 25.248 630.536 24.9897 629.358 24.473C628.18 23.9563 627.25 23.2537 626.568 22.365C625.886 21.4557 625.504 20.443 625.421 19.327H630.66C630.722 19.9263 631.001 20.412 631.497 20.784C631.993 21.156 632.603 21.342 633.326 21.342C633.988 21.342 634.494 21.218 634.845 20.97C635.217 20.7013 635.403 20.3603 635.403 19.947C635.403 19.451 635.145 19.0893 634.628 18.862C634.112 18.614 633.275 18.3453 632.117 18.056C630.877 17.7667 629.844 17.467 629.017 17.157C628.191 16.8263 627.478 16.32 626.878 15.638C626.279 14.9353 625.979 13.995 625.979 12.817C625.979 11.825 626.248 10.926 626.785 10.12C627.343 9.29333 628.149 8.64233 629.203 8.167C630.278 7.69167 631.549 7.454 633.016 7.454C635.186 7.454 636.891 7.99133 638.131 9.066C639.392 10.1407 640.115 11.5667 640.301 13.344H635.403C635.321 12.7447 635.052 12.2693 634.597 11.918C634.163 11.5667 633.585 11.391 632.861 11.391C632.241 11.391 631.766 11.515 631.435 11.763C631.105 11.9903 630.939 12.3107 630.939 12.724C630.939 13.22 631.198 13.592 631.714 13.84C632.252 14.088 633.078 14.336 634.194 14.584C635.476 14.9147 636.519 15.2453 637.325 15.576C638.131 15.886 638.834 16.4027 639.433 17.126C640.053 17.8287 640.374 18.7793 640.394 19.978C640.394 20.9907 640.105 21.9 639.526 22.706C638.968 23.4913 638.152 24.1113 637.077 24.566C636.023 25.0207 634.794 25.248 633.388 25.248ZM653.278 20.505V25H650.581C648.659 25 647.161 24.535 646.086 23.605C645.012 22.6543 644.474 21.1147 644.474 18.986V12.104H642.366V7.702H644.474V3.486H649.775V7.702H653.247V12.104H649.775V19.048C649.775 19.5647 649.899 19.9367 650.147 20.164C650.395 20.3913 650.809 20.505 651.387 20.505H653.278ZM658.897 5.904C657.967 5.904 657.202 5.63533 656.603 5.098C656.024 4.54 655.735 3.858 655.735 3.052C655.735 2.22533 656.024 1.54333 656.603 1.006C657.202 0.447998 657.967 0.168998 658.897 0.168998C659.806 0.168998 660.55 0.447998 661.129 1.006C661.728 1.54333 662.028 2.22533 662.028 3.052C662.028 3.858 661.728 4.54 661.129 5.098C660.55 5.63533 659.806 5.904 658.897 5.904ZM661.532 7.702V25H656.231V7.702H661.532ZM675.914 7.516C677.939 7.516 679.551 8.17733 680.75 9.5C681.969 10.802 682.579 12.6 682.579 14.894V25H677.309V15.607C677.309 14.4497 677.009 13.5507 676.41 12.91C675.81 12.2693 675.004 11.949 673.992 11.949C672.979 11.949 672.173 12.2693 671.574 12.91C670.974 13.5507 670.675 14.4497 670.675 15.607V25H665.374V7.702H670.675V9.996C671.212 9.23133 671.935 8.632 672.845 8.198C673.754 7.74333 674.777 7.516 675.914 7.516ZM692.834 7.454C694.054 7.454 695.118 7.702 696.027 8.198C696.957 8.694 697.67 9.345 698.166 10.151V7.702H703.467V24.969C703.467 26.5603 703.147 27.9967 702.506 29.278C701.886 30.58 700.925 31.6133 699.623 32.378C698.342 33.1427 696.74 33.525 694.818 33.525C692.256 33.525 690.179 32.9153 688.587 31.696C686.996 30.4973 686.087 28.8647 685.859 26.798H691.098C691.264 27.4593 691.656 27.976 692.276 28.348C692.896 28.7407 693.661 28.937 694.57 28.937C695.666 28.937 696.534 28.6167 697.174 27.976C697.836 27.356 698.166 26.3537 698.166 24.969V22.52C697.65 23.326 696.937 23.9873 696.027 24.504C695.118 25 694.054 25.248 692.834 25.248C691.408 25.248 690.117 24.8863 688.959 24.163C687.802 23.419 686.882 22.3753 686.2 21.032C685.539 19.668 685.208 18.0973 685.208 16.32C685.208 14.5427 685.539 12.9823 686.2 11.639C686.882 10.2957 687.802 9.26233 688.959 8.539C690.117 7.81567 691.408 7.454 692.834 7.454ZM698.166 16.351C698.166 15.0283 697.794 13.9847 697.05 13.22C696.327 12.4553 695.438 12.073 694.384 12.073C693.33 12.073 692.431 12.4553 691.687 13.22C690.964 13.964 690.602 14.9973 690.602 16.32C690.602 17.6427 690.964 18.6967 691.687 19.482C692.431 20.2467 693.33 20.629 694.384 20.629C695.438 20.629 696.327 20.2467 697.05 19.482C697.794 18.7173 698.166 17.6737 698.166 16.351ZM712.818 16.32C712.818 14.5427 713.148 12.9823 713.81 11.639C714.492 10.2957 715.411 9.26233 716.569 8.539C717.726 7.81567 719.018 7.454 720.444 7.454C721.663 7.454 722.727 7.702 723.637 8.198C724.567 8.694 725.28 9.345 725.776 10.151V7.702H731.077V25H725.776V22.551C725.259 23.357 724.536 24.008 723.606 24.504C722.696 25 721.632 25.248 720.413 25.248C719.007 25.248 717.726 24.8863 716.569 24.163C715.411 23.419 714.492 22.3753 713.81 21.032C713.148 19.668 712.818 18.0973 712.818 16.32ZM725.776 16.351C725.776 15.0283 725.404 13.9847 724.66 13.22C723.936 12.4553 723.048 12.073 721.994 12.073C720.94 12.073 720.041 12.4553 719.297 13.22C718.573 13.964 718.212 14.9973 718.212 16.32C718.212 17.6427 718.573 18.6967 719.297 19.482C720.041 20.2467 720.94 20.629 721.994 20.629C723.048 20.629 723.936 20.2467 724.66 19.482C725.404 18.7173 725.776 17.6737 725.776 16.351ZM80.7852 54.702L76.1042 72H70.2452L67.5172 60.778L64.6962 72H58.8682L54.1562 54.702H59.4572L61.9062 67.071L64.8202 54.702H70.4312L73.3762 67.009L75.7942 54.702H80.7852ZM81.7528 63.32C81.7528 61.5427 82.0834 59.9823 82.7448 58.639C83.4268 57.2957 84.3464 56.2623 85.5038 55.539C86.6611 54.8157 87.9528 54.454 89.3788 54.454C90.5981 54.454 91.6624 54.702 92.5718 55.198C93.5018 55.694 94.2148 56.345 94.7108 57.151V54.702H100.012V72H94.7108V69.551C94.1941 70.357 93.4708 71.008 92.5408 71.504C91.6314 72 90.5671 72.248 89.3478 72.248C87.9424 72.248 86.6611 71.8863 85.5038 71.163C84.3464 70.419 83.4268 69.3753 82.7448 68.032C82.0834 66.668 81.7528 65.0973 81.7528 63.32ZM94.7108 63.351C94.7108 62.0283 94.3388 60.9847 93.5948 60.22C92.8714 59.4553 91.9828 59.073 90.9288 59.073C89.8748 59.073 88.9758 59.4553 88.2318 60.22C87.5084 60.964 87.1468 61.9973 87.1468 63.32C87.1468 64.6427 87.5084 65.6967 88.2318 66.482C88.9758 67.2467 89.8748 67.629 90.9288 67.629C91.9828 67.629 92.8714 67.2467 93.5948 66.482C94.3388 65.7173 94.7108 64.6737 94.7108 63.351ZM109.148 57.585C109.768 56.6343 110.543 55.8903 111.473 55.353C112.403 54.795 113.436 54.516 114.573 54.516V60.127H113.116C111.793 60.127 110.801 60.4163 110.14 60.995C109.478 61.553 109.148 62.545 109.148 63.971V72H103.847V54.702H109.148V57.585ZM139.179 54.516C141.328 54.516 143.033 55.167 144.294 56.469C145.575 57.771 146.216 59.5793 146.216 61.894V72H140.946V62.607C140.946 61.491 140.646 60.6333 140.047 60.034C139.468 59.414 138.662 59.104 137.629 59.104C136.595 59.104 135.779 59.414 135.18 60.034C134.601 60.6333 134.312 61.491 134.312 62.607V72H129.042V62.607C129.042 61.491 128.742 60.6333 128.143 60.034C127.564 59.414 126.758 59.104 125.725 59.104C124.691 59.104 123.875 59.414 123.276 60.034C122.697 60.6333 122.408 61.491 122.408 62.607V72H117.107V54.702H122.408V56.872C122.945 56.1487 123.648 55.5803 124.516 55.167C125.384 54.733 126.365 54.516 127.461 54.516C128.763 54.516 129.92 54.795 130.933 55.353C131.966 55.911 132.772 56.7067 133.351 57.74C133.95 56.7893 134.766 56.0143 135.8 55.415C136.833 54.8157 137.959 54.516 139.179 54.516ZM155.627 67.102L152.186 75.999H148.807L150.605 67.102H155.627ZM171.965 54.454C173.184 54.454 174.248 54.702 175.158 55.198C176.088 55.694 176.801 56.345 177.297 57.151V54.702H182.598V71.969C182.598 73.5603 182.277 74.9967 181.637 76.278C181.017 77.58 180.056 78.6133 178.754 79.378C177.472 80.1427 175.871 80.525 173.949 80.525C171.386 80.525 169.309 79.9153 167.718 78.696C166.126 77.4973 165.217 75.8647 164.99 73.798H170.229C170.394 74.4593 170.787 74.976 171.407 75.348C172.027 75.7407 172.791 75.937 173.701 75.937C174.796 75.937 175.664 75.6167 176.305 74.976C176.966 74.356 177.297 73.3537 177.297 71.969V69.52C176.78 70.326 176.067 70.9873 175.158 71.504C174.248 72 173.184 72.248 171.965 72.248C170.539 72.248 169.247 71.8863 168.09 71.163C166.932 70.419 166.013 69.3753 165.331 68.032C164.669 66.668 164.339 65.0973 164.339 63.32C164.339 61.5427 164.669 59.9823 165.331 58.639C166.013 57.2957 166.932 56.2623 168.09 55.539C169.247 54.8157 170.539 54.454 171.965 54.454ZM177.297 63.351C177.297 62.0283 176.925 60.9847 176.181 60.22C175.457 59.4553 174.569 59.073 173.515 59.073C172.461 59.073 171.562 59.4553 170.818 60.22C170.094 60.964 169.733 61.9973 169.733 63.32C169.733 64.6427 170.094 65.6967 170.818 66.482C171.562 67.2467 172.461 67.629 173.515 67.629C174.569 67.629 175.457 67.2467 176.181 66.482C176.925 65.7173 177.297 64.6737 177.297 63.351ZM194.307 72.248C192.612 72.248 191.083 71.8863 189.719 71.163C188.375 70.4397 187.311 69.4063 186.526 68.063C185.761 66.7197 185.379 65.149 185.379 63.351C185.379 61.5737 185.771 60.0133 186.557 58.67C187.342 57.306 188.417 56.2623 189.781 55.539C191.145 54.8157 192.674 54.454 194.369 54.454C196.063 54.454 197.593 54.8157 198.957 55.539C200.321 56.2623 201.395 57.306 202.181 58.67C202.966 60.0133 203.359 61.5737 203.359 63.351C203.359 65.1283 202.956 66.699 202.15 68.063C201.364 69.4063 200.279 70.4397 198.895 71.163C197.531 71.8863 196.001 72.248 194.307 72.248ZM194.307 67.66C195.319 67.66 196.177 67.288 196.88 66.544C197.603 65.8 197.965 64.7357 197.965 63.351C197.965 61.9663 197.613 60.902 196.911 60.158C196.229 59.414 195.381 59.042 194.369 59.042C193.335 59.042 192.478 59.414 191.796 60.158C191.114 60.8813 190.773 61.9457 190.773 63.351C190.773 64.7357 191.103 65.8 191.765 66.544C192.447 67.288 193.294 67.66 194.307 67.66ZM211.472 49.06V72H206.171V49.06H211.472ZM214.26 63.32C214.26 61.5427 214.59 59.9823 215.252 58.639C215.934 57.2957 216.853 56.2623 218.011 55.539C219.168 54.8157 220.46 54.454 221.886 54.454C223.022 54.454 224.056 54.6917 224.986 55.167C225.936 55.6423 226.68 56.283 227.218 57.089V49.06H232.519V72H227.218V69.52C226.722 70.3467 226.009 71.008 225.079 71.504C224.169 72 223.105 72.248 221.886 72.248C220.46 72.248 219.168 71.8863 218.011 71.163C216.853 70.419 215.934 69.3753 215.252 68.032C214.59 66.668 214.26 65.0973 214.26 63.32ZM227.218 63.351C227.218 62.0283 226.846 60.9847 226.102 60.22C225.378 59.4553 224.49 59.073 223.436 59.073C222.382 59.073 221.483 59.4553 220.739 60.22C220.015 60.964 219.654 61.9973 219.654 63.32C219.654 64.6427 220.015 65.6967 220.739 66.482C221.483 67.2467 222.382 67.629 223.436 67.629C224.49 67.629 225.378 67.2467 226.102 66.482C226.846 65.7173 227.218 64.6737 227.218 63.351ZM252.66 63.072C252.66 63.568 252.629 64.0847 252.567 64.622H240.57C240.652 65.6967 240.993 66.5233 241.593 67.102C242.213 67.66 242.967 67.939 243.856 67.939C245.178 67.939 246.098 67.381 246.615 66.265H252.257C251.967 67.4017 251.44 68.4247 250.676 69.334C249.932 70.2433 248.991 70.9563 247.855 71.473C246.718 71.9897 245.447 72.248 244.042 72.248C242.347 72.248 240.838 71.8863 239.516 71.163C238.193 70.4397 237.16 69.4063 236.416 68.063C235.672 66.7197 235.3 65.149 235.3 63.351C235.3 61.553 235.661 59.9823 236.385 58.639C237.129 57.2957 238.162 56.2623 239.485 55.539C240.807 54.8157 242.326 54.454 244.042 54.454C245.716 54.454 247.204 54.8053 248.506 55.508C249.808 56.2107 250.82 57.213 251.544 58.515C252.288 59.817 252.66 61.336 252.66 63.072ZM247.235 61.677C247.235 60.7677 246.925 60.0443 246.305 59.507C245.685 58.9697 244.91 58.701 243.98 58.701C243.091 58.701 242.337 58.9593 241.717 59.476C241.117 59.9927 240.745 60.7263 240.601 61.677H247.235ZM265.996 54.516C268.022 54.516 269.634 55.1773 270.832 56.5C272.052 57.802 272.661 59.6 272.661 61.894V72H267.391V62.607C267.391 61.4497 267.092 60.5507 266.492 59.91C265.893 59.2693 265.087 58.949 264.074 58.949C263.062 58.949 262.256 59.2693 261.656 59.91C261.057 60.5507 260.757 61.4497 260.757 62.607V72H255.456V54.702H260.757V56.996C261.295 56.2313 262.018 55.632 262.927 55.198C263.837 54.7433 264.86 54.516 265.996 54.516ZM289.486 54.454C290.706 54.454 291.77 54.702 292.679 55.198C293.609 55.694 294.322 56.345 294.818 57.151V54.702H300.119V71.969C300.119 73.5603 299.799 74.9967 299.158 76.278C298.538 77.58 297.577 78.6133 296.275 79.378C294.994 80.1427 293.392 80.525 291.47 80.525C288.908 80.525 286.831 79.9153 285.239 78.696C283.648 77.4973 282.739 75.8647 282.511 73.798H287.75C287.916 74.4593 288.308 74.976 288.928 75.348C289.548 75.7407 290.313 75.937 291.222 75.937C292.318 75.937 293.186 75.6167 293.826 74.976C294.488 74.356 294.818 73.3537 294.818 71.969V69.52C294.302 70.326 293.589 70.9873 292.679 71.504C291.77 72 290.706 72.248 289.486 72.248C288.06 72.248 286.769 71.8863 285.611 71.163C284.454 70.419 283.534 69.3753 282.852 68.032C282.191 66.668 281.86 65.0973 281.86 63.32C281.86 61.5427 282.191 59.9823 282.852 58.639C283.534 57.2957 284.454 56.2623 285.611 55.539C286.769 54.8157 288.06 54.454 289.486 54.454ZM294.818 63.351C294.818 62.0283 294.446 60.9847 293.702 60.22C292.979 59.4553 292.09 59.073 291.036 59.073C289.982 59.073 289.083 59.4553 288.339 60.22C287.616 60.964 287.254 61.9973 287.254 63.32C287.254 64.6427 287.616 65.6967 288.339 66.482C289.083 67.2467 289.982 67.629 291.036 67.629C292.09 67.629 292.979 67.2467 293.702 66.482C294.446 65.7173 294.818 64.6737 294.818 63.351ZM309.255 49.06V72H303.954V49.06H309.255ZM320.971 72.248C319.276 72.248 317.747 71.8863 316.383 71.163C315.039 70.4397 313.975 69.4063 313.19 68.063C312.425 66.7197 312.043 65.149 312.043 63.351C312.043 61.5737 312.435 60.0133 313.221 58.67C314.006 57.306 315.081 56.2623 316.445 55.539C317.809 54.8157 319.338 54.454 321.033 54.454C322.727 54.454 324.257 54.8157 325.621 55.539C326.985 56.2623 328.059 57.306 328.845 58.67C329.63 60.0133 330.023 61.5737 330.023 63.351C330.023 65.1283 329.62 66.699 328.814 68.063C328.028 69.4063 326.943 70.4397 325.559 71.163C324.195 71.8863 322.665 72.248 320.971 72.248ZM320.971 67.66C321.983 67.66 322.841 67.288 323.544 66.544C324.267 65.8 324.629 64.7357 324.629 63.351C324.629 61.9663 324.277 60.902 323.575 60.158C322.893 59.414 322.045 59.042 321.033 59.042C319.999 59.042 319.142 59.414 318.46 60.158C317.778 60.8813 317.437 61.9457 317.437 63.351C317.437 64.7357 317.767 65.8 318.429 66.544C319.111 67.288 319.958 67.66 320.971 67.66ZM357.666 54.702L352.985 72H347.126L344.398 60.778L341.577 72H335.749L331.037 54.702H336.338L338.787 67.071L341.701 54.702H347.312L350.257 67.009L352.675 54.702H357.666ZM365.203 63.32C365.203 61.5427 365.534 59.9823 366.195 58.639C366.877 57.2957 367.797 56.2623 368.954 55.539C370.111 54.8157 371.403 54.454 372.829 54.454C374.048 54.454 375.113 54.702 376.022 55.198C376.952 55.694 377.665 56.345 378.161 57.151V54.702H383.462V72H378.161V69.551C377.644 70.357 376.921 71.008 375.991 71.504C375.082 72 374.017 72.248 372.798 72.248C371.393 72.248 370.111 71.8863 368.954 71.163C367.797 70.419 366.877 69.3753 366.195 68.032C365.534 66.668 365.203 65.0973 365.203 63.32ZM378.161 63.351C378.161 62.0283 377.789 60.9847 377.045 60.22C376.322 59.4553 375.433 59.073 374.379 59.073C373.325 59.073 372.426 59.4553 371.682 60.22C370.959 60.964 370.597 61.9973 370.597 63.32C370.597 64.6427 370.959 65.6967 371.682 66.482C372.426 67.2467 373.325 67.629 374.379 67.629C375.433 67.629 376.322 67.2467 377.045 66.482C377.789 65.7173 378.161 64.6737 378.161 63.351ZM386.243 63.351C386.243 61.553 386.605 59.9823 387.328 58.639C388.072 57.2957 389.095 56.2623 390.397 55.539C391.72 54.8157 393.228 54.454 394.923 54.454C397.093 54.454 398.901 55.0223 400.348 56.159C401.815 57.2957 402.776 58.8973 403.231 60.964H397.589C397.114 59.6413 396.194 58.98 394.83 58.98C393.859 58.98 393.084 59.3623 392.505 60.127C391.926 60.871 391.637 61.9457 391.637 63.351C391.637 64.7563 391.926 65.8413 392.505 66.606C393.084 67.35 393.859 67.722 394.83 67.722C396.194 67.722 397.114 67.0607 397.589 65.738H403.231C402.776 67.7633 401.815 69.3547 400.348 70.512C398.881 71.6693 397.072 72.248 394.923 72.248C393.228 72.248 391.72 71.8863 390.397 71.163C389.095 70.4397 388.072 69.4063 387.328 68.063C386.605 66.7197 386.243 65.149 386.243 63.351ZM411.368 57.585C411.988 56.6343 412.763 55.8903 413.693 55.353C414.623 54.795 415.656 54.516 416.793 54.516V60.127H415.336C414.013 60.127 413.021 60.4163 412.36 60.995C411.698 61.553 411.368 62.545 411.368 63.971V72H406.067V54.702H411.368V57.585ZM427.2 72.248C425.506 72.248 423.976 71.8863 422.612 71.163C421.269 70.4397 420.205 69.4063 419.419 68.063C418.655 66.7197 418.272 65.149 418.272 63.351C418.272 61.5737 418.665 60.0133 419.45 58.67C420.236 57.306 421.31 56.2623 422.674 55.539C424.038 54.8157 425.568 54.454 427.262 54.454C428.957 54.454 430.486 54.8157 431.85 55.539C433.214 56.2623 434.289 57.306 435.074 58.67C435.86 60.0133 436.252 61.5737 436.252 63.351C436.252 65.1283 435.849 66.699 435.043 68.063C434.258 69.4063 433.173 70.4397 431.788 71.163C430.424 71.8863 428.895 72.248 427.2 72.248ZM427.2 67.66C428.213 67.66 429.071 67.288 429.773 66.544C430.497 65.8 430.858 64.7357 430.858 63.351C430.858 61.9663 430.507 60.902 429.804 60.158C429.122 59.414 428.275 59.042 427.262 59.042C426.229 59.042 425.371 59.414 424.689 60.158C424.007 60.8813 423.666 61.9457 423.666 63.351C423.666 64.7357 423.997 65.8 424.658 66.544C425.34 67.288 426.188 67.66 427.2 67.66ZM446.102 72.248C444.593 72.248 443.25 71.9897 442.072 71.473C440.894 70.9563 439.964 70.2537 439.282 69.365C438.6 68.4557 438.217 67.443 438.135 66.327H443.374C443.436 66.9263 443.715 67.412 444.211 67.784C444.707 68.156 445.316 68.342 446.04 68.342C446.701 68.342 447.207 68.218 447.559 67.97C447.931 67.7013 448.117 67.3603 448.117 66.947C448.117 66.451 447.858 66.0893 447.342 65.862C446.825 65.614 445.988 65.3453 444.831 65.056C443.591 64.7667 442.557 64.467 441.731 64.157C440.904 63.8263 440.191 63.32 439.592 62.638C438.992 61.9353 438.693 60.995 438.693 59.817C438.693 58.825 438.961 57.926 439.499 57.12C440.057 56.2933 440.863 55.6423 441.917 55.167C442.991 54.6917 444.262 54.454 445.73 54.454C447.9 54.454 449.605 54.9913 450.845 56.066C452.105 57.1407 452.829 58.5667 453.015 60.344H448.117C448.034 59.7447 447.765 59.2693 447.311 58.918C446.877 58.5667 446.298 58.391 445.575 58.391C444.955 58.391 444.479 58.515 444.149 58.763C443.818 58.9903 443.653 59.3107 443.653 59.724C443.653 60.22 443.911 60.592 444.428 60.84C444.965 61.088 445.792 61.336 446.908 61.584C448.189 61.9147 449.233 62.2453 450.039 62.576C450.845 62.886 451.547 63.4027 452.147 64.126C452.767 64.8287 453.087 65.7793 453.108 66.978C453.108 67.9907 452.818 68.9 452.24 69.706C451.682 70.4913 450.865 71.1113 449.791 71.566C448.737 72.0207 447.507 72.248 446.102 72.248ZM463.388 72.248C461.879 72.248 460.536 71.9897 459.358 71.473C458.18 70.9563 457.25 70.2537 456.568 69.365C455.886 68.4557 455.503 67.443 455.421 66.327H460.66C460.722 66.9263 461.001 67.412 461.497 67.784C461.993 68.156 462.602 68.342 463.326 68.342C463.987 68.342 464.493 68.218 464.845 67.97C465.217 67.7013 465.403 67.3603 465.403 66.947C465.403 66.451 465.144 66.0893 464.628 65.862C464.111 65.614 463.274 65.3453 462.117 65.056C460.877 64.7667 459.843 64.467 459.017 64.157C458.19 63.8263 457.477 63.32 456.878 62.638C456.278 61.9353 455.979 60.995 455.979 59.817C455.979 58.825 456.247 57.926 456.785 57.12C457.343 56.2933 458.149 55.6423 459.203 55.167C460.277 54.6917 461.548 54.454 463.016 54.454C465.186 54.454 466.891 54.9913 468.131 56.066C469.391 57.1407 470.115 58.5667 470.301 60.344H465.403C465.32 59.7447 465.051 59.2693 464.597 58.918C464.163 58.5667 463.584 58.391 462.861 58.391C462.241 58.391 461.765 58.515 461.435 58.763C461.104 58.9903 460.939 59.3107 460.939 59.724C460.939 60.22 461.197 60.592 461.714 60.84C462.251 61.088 463.078 61.336 464.194 61.584C465.475 61.9147 466.519 62.2453 467.325 62.576C468.131 62.886 468.833 63.4027 469.433 64.126C470.053 64.8287 470.373 65.7793 470.394 66.978C470.394 67.9907 470.104 68.9 469.526 69.706C468.968 70.4913 468.151 71.1113 467.077 71.566C466.023 72.0207 464.793 72.248 463.388 72.248ZM489.847 67.505V72H487.15C485.228 72 483.73 71.535 482.655 70.605C481.581 69.6543 481.043 68.1147 481.043 65.986V59.104H478.935V54.702H481.043V50.486H486.344V54.702H489.816V59.104H486.344V66.048C486.344 66.5647 486.468 66.9367 486.716 67.164C486.964 67.3913 487.378 67.505 487.956 67.505H489.847ZM503.433 54.516C505.417 54.516 507.008 55.1773 508.207 56.5C509.406 57.802 510.005 59.6 510.005 61.894V72H504.735V62.607C504.735 61.4497 504.435 60.5507 503.836 59.91C503.237 59.2693 502.431 58.949 501.418 58.949C500.405 58.949 499.599 59.2693 499 59.91C498.401 60.5507 498.101 61.4497 498.101 62.607V72H492.8V49.06H498.101V57.027C498.638 56.2623 499.372 55.6527 500.302 55.198C501.232 54.7433 502.276 54.516 503.433 54.516ZM529.995 63.072C529.995 63.568 529.964 64.0847 529.902 64.622H517.905C517.987 65.6967 518.328 66.5233 518.928 67.102C519.548 67.66 520.302 67.939 521.191 67.939C522.513 67.939 523.433 67.381 523.95 66.265H529.592C529.302 67.4017 528.775 68.4247 528.011 69.334C527.267 70.2433 526.326 70.9563 525.19 71.473C524.053 71.9897 522.782 72.248 521.377 72.248C519.682 72.248 518.173 71.8863 516.851 71.163C515.528 70.4397 514.495 69.4063 513.751 68.063C513.007 66.7197 512.635 65.149 512.635 63.351C512.635 61.553 512.996 59.9823 513.72 58.639C514.464 57.2957 515.497 56.2623 516.82 55.539C518.142 54.8157 519.661 54.454 521.377 54.454C523.051 54.454 524.539 54.8053 525.841 55.508C527.143 56.2107 528.155 57.213 528.879 58.515C529.623 59.817 529.995 61.336 529.995 63.072ZM524.57 61.677C524.57 60.7677 524.26 60.0443 523.64 59.507C523.02 58.9697 522.245 58.701 521.315 58.701C520.426 58.701 519.672 58.9593 519.052 59.476C518.452 59.9927 518.08 60.7263 517.936 61.677H524.57ZM549.993 54.516C551.977 54.516 553.569 55.1773 554.767 56.5C555.966 57.802 556.565 59.6 556.565 61.894V72H551.295V62.607C551.295 61.4497 550.996 60.5507 550.396 59.91C549.797 59.2693 548.991 58.949 547.978 58.949C546.966 58.949 546.16 59.2693 545.56 59.91C544.961 60.5507 544.661 61.4497 544.661 62.607V72H539.36V49.06H544.661V57.027C545.199 56.2623 545.932 55.6527 546.862 55.198C547.792 54.7433 548.836 54.516 549.993 54.516ZM568.123 72.248C566.428 72.248 564.899 71.8863 563.535 71.163C562.192 70.4397 561.127 69.4063 560.342 68.063C559.577 66.7197 559.195 65.149 559.195 63.351C559.195 61.5737 559.588 60.0133 560.373 58.67C561.158 57.306 562.233 56.2623 563.597 55.539C564.961 54.8157 566.49 54.454 568.185 54.454C569.88 54.454 571.409 54.8157 572.773 55.539C574.137 56.2623 575.212 57.306 575.997 58.67C576.782 60.0133 577.175 61.5737 577.175 63.351C577.175 65.1283 576.772 66.699 575.966 68.063C575.181 69.4063 574.096 70.4397 572.711 71.163C571.347 71.8863 569.818 72.248 568.123 72.248ZM568.123 67.66C569.136 67.66 569.993 67.288 570.696 66.544C571.419 65.8 571.781 64.7357 571.781 63.351C571.781 61.9663 571.43 60.902 570.727 60.158C570.045 59.414 569.198 59.042 568.185 59.042C567.152 59.042 566.294 59.414 565.612 60.158C564.93 60.8813 564.589 61.9457 564.589 63.351C564.589 64.7357 564.92 65.8 565.581 66.544C566.263 67.288 567.11 67.66 568.123 67.66ZM585.288 57.585C585.908 56.6343 586.683 55.8903 587.613 55.353C588.543 54.795 589.577 54.516 590.713 54.516V60.127H589.256C587.934 60.127 586.942 60.4163 586.28 60.995C585.619 61.553 585.288 62.545 585.288 63.971V72H579.987V54.702H585.288V57.585ZM595.913 52.904C594.983 52.904 594.219 52.6353 593.619 52.098C593.041 51.54 592.751 50.858 592.751 50.052C592.751 49.2253 593.041 48.5433 593.619 48.006C594.219 47.448 594.983 47.169 595.913 47.169C596.823 47.169 597.567 47.448 598.145 48.006C598.745 48.5433 599.044 49.2253 599.044 50.052C599.044 50.858 598.745 51.54 598.145 52.098C597.567 52.6353 596.823 52.904 595.913 52.904ZM598.548 54.702V72H593.247V54.702H598.548ZM607.35 67.629H614.852V72H601.429V67.784L608.621 59.073H601.491V54.702H614.697V58.918L607.35 67.629ZM625.643 72.248C623.948 72.248 622.419 71.8863 621.055 71.163C619.711 70.4397 618.647 69.4063 617.862 68.063C617.097 66.7197 616.715 65.149 616.715 63.351C616.715 61.5737 617.107 60.0133 617.893 58.67C618.678 57.306 619.753 56.2623 621.117 55.539C622.481 54.8157 624.01 54.454 625.705 54.454C627.399 54.454 628.929 54.8157 630.293 55.539C631.657 56.2623 632.731 57.306 633.517 58.67C634.302 60.0133 634.695 61.5737 634.695 63.351C634.695 65.1283 634.292 66.699 633.486 68.063C632.7 69.4063 631.615 70.4397 630.231 71.163C628.867 71.8863 627.337 72.248 625.643 72.248ZM625.643 67.66C626.655 67.66 627.513 67.288 628.216 66.544C628.939 65.8 629.301 64.7357 629.301 63.351C629.301 61.9663 628.949 60.902 628.247 60.158C627.565 59.414 626.717 59.042 625.705 59.042C624.671 59.042 623.814 59.414 623.132 60.158C622.45 60.8813 622.109 61.9457 622.109 63.351C622.109 64.7357 622.439 65.8 623.101 66.544C623.783 67.288 624.63 67.66 625.643 67.66ZM648.047 54.516C650.072 54.516 651.684 55.1773 652.883 56.5C654.102 57.802 654.712 59.6 654.712 61.894V72H649.442V62.607C649.442 61.4497 649.142 60.5507 648.543 59.91C647.944 59.2693 647.138 58.949 646.125 58.949C645.112 58.949 644.306 59.2693 643.707 59.91C643.108 60.5507 642.808 61.4497 642.808 62.607V72H637.507V54.702H642.808V56.996C643.345 56.2313 644.069 55.632 644.978 55.198C645.887 54.7433 646.91 54.516 648.047 54.516ZM660.876 72.248C659.946 72.248 659.181 71.9793 658.582 71.442C658.003 70.884 657.714 70.202 657.714 69.396C657.714 68.5693 658.003 67.877 658.582 67.319C659.181 66.761 659.946 66.482 660.876 66.482C661.785 66.482 662.529 66.761 663.108 67.319C663.707 67.877 664.007 68.5693 664.007 69.396C664.007 70.202 663.707 70.884 663.108 71.442C662.529 71.9793 661.785 72.248 660.876 72.248ZM670.834 47.2L670.431 54.051H666.866L666.463 47.2H670.834ZM676.724 47.2L676.321 54.051H672.756L672.353 47.2H676.724Z" fill="white"/>
</svg>
