<svg width="244" height="87" viewBox="0 0 244 87" fill="none" xmlns="http://www.w3.org/2000/svg">
<path d="M13.514 56.344H26.506V64H3.596V23.284H13.514V56.344ZM45.9686 64.464C42.798 64.464 39.9366 63.7873 37.3846 62.434C34.8713 61.0807 32.88 59.1473 31.4106 56.634C29.98 54.1207 29.2646 51.182 29.2646 47.818C29.2646 44.4927 29.9993 41.5733 31.4686 39.06C32.938 36.508 34.9486 34.5553 37.5006 33.202C40.0526 31.8487 42.914 31.172 46.0846 31.172C49.2553 31.172 52.1166 31.8487 54.6686 33.202C57.2206 34.5553 59.2313 36.508 60.7006 39.06C62.17 41.5733 62.9046 44.4927 62.9046 47.818C62.9046 51.1433 62.1506 54.082 60.6426 56.634C59.1733 59.1473 57.1433 61.0807 54.5526 62.434C52.0006 63.7873 49.1393 64.464 45.9686 64.464ZM45.9686 55.88C47.8633 55.88 49.468 55.184 50.7826 53.792C52.136 52.4 52.8126 50.4087 52.8126 47.818C52.8126 45.2273 52.1553 43.236 50.8406 41.844C49.5646 40.452 47.9793 39.756 46.0846 39.756C44.1513 39.756 42.5466 40.452 41.2706 41.844C39.9946 43.1973 39.3566 45.1887 39.3566 47.818C39.3566 50.4087 39.9753 52.4 41.2126 53.792C42.4886 55.184 44.074 55.88 45.9686 55.88ZM66.1943 47.76C66.1943 44.4347 66.813 41.5153 68.0503 39.002C69.3263 36.4887 71.047 34.5553 73.2123 33.202C75.3776 31.8487 77.7943 31.172 80.4623 31.172C82.7436 31.172 84.735 31.636 86.4363 32.564C88.1763 33.492 89.5103 34.71 90.4383 36.218V31.636H100.356V64H90.4383V59.418C89.4716 60.926 88.1183 62.144 86.3783 63.072C84.677 64 82.6856 64.464 80.4043 64.464C77.775 64.464 75.3776 63.7873 73.2123 62.434C71.047 61.042 69.3263 59.0893 68.0503 56.576C66.813 54.024 66.1943 51.0853 66.1943 47.76ZM90.4383 47.818C90.4383 45.3433 89.7423 43.3907 88.3503 41.96C86.997 40.5293 85.3343 39.814 83.3623 39.814C81.3903 39.814 79.7083 40.5293 78.3163 41.96C76.963 43.352 76.2863 45.2853 76.2863 47.76C76.2863 50.2347 76.963 52.2067 78.3163 53.676C79.7083 55.1067 81.3903 55.822 83.3623 55.822C85.3343 55.822 86.997 55.1067 88.3503 53.676C89.7423 52.2453 90.4383 50.2927 90.4383 47.818ZM105.56 47.76C105.56 44.4347 106.178 41.5153 107.416 39.002C108.692 36.4887 110.412 34.5553 112.578 33.202C114.743 31.8487 117.16 31.172 119.828 31.172C121.954 31.172 123.888 31.6167 125.628 32.506C127.406 33.3953 128.798 34.594 129.804 36.102V21.08H139.722V64H129.804V59.36C128.876 60.9067 127.542 62.144 125.802 63.072C124.1 64 122.109 64.464 119.828 64.464C117.16 64.464 114.743 63.7873 112.578 62.434C110.412 61.042 108.692 59.0893 107.416 56.576C106.178 54.024 105.56 51.0853 105.56 47.76ZM129.804 47.818C129.804 45.3433 129.108 43.3907 127.716 41.96C126.362 40.5293 124.7 39.814 122.728 39.814C120.756 39.814 119.074 40.5293 117.682 41.96C116.328 43.352 115.652 45.2853 115.652 47.76C115.652 50.2347 116.328 52.2067 117.682 53.676C119.074 55.1067 120.756 55.822 122.728 55.822C124.7 55.822 126.362 55.1067 127.716 53.676C129.108 52.2453 129.804 50.2927 129.804 47.818ZM151.885 28.272C150.145 28.272 148.714 27.7693 147.593 26.764C146.51 25.72 145.969 24.444 145.969 22.936C145.969 21.3893 146.51 20.1133 147.593 19.108C148.714 18.064 150.145 17.542 151.885 17.542C153.586 17.542 154.978 18.064 156.061 19.108C157.182 20.1133 157.743 21.3893 157.743 22.936C157.743 24.444 157.182 25.72 156.061 26.764C154.978 27.7693 153.586 28.272 151.885 28.272ZM156.815 31.636V64H146.897V31.636H156.815ZM183.722 31.288C187.512 31.288 190.528 32.5253 192.77 35C195.052 37.436 196.192 40.8 196.192 45.092V64H186.332V46.426C186.332 44.2607 185.772 42.5787 184.65 41.38C183.529 40.1813 182.021 39.582 180.126 39.582C178.232 39.582 176.724 40.1813 175.602 41.38C174.481 42.5787 173.92 44.2607 173.92 46.426V64H164.002V31.636H173.92V35.928C174.926 34.4973 176.279 33.376 177.98 32.564C179.682 31.7133 181.596 31.288 183.722 31.288ZM215.38 31.172C217.662 31.172 219.653 31.636 221.354 32.564C223.094 33.492 224.428 34.71 225.356 36.218V31.636H235.274V63.942C235.274 66.9193 234.675 69.6067 233.476 72.004C232.316 74.44 230.518 76.3733 228.082 77.804C225.685 79.2347 222.688 79.95 219.092 79.95C214.298 79.95 210.412 78.8093 207.434 76.528C204.457 74.2853 202.756 71.2307 202.33 67.364H212.132C212.442 68.6013 213.176 69.568 214.336 70.264C215.496 70.9987 216.927 71.366 218.628 71.366C220.678 71.366 222.302 70.7667 223.5 69.568C224.738 68.408 225.356 66.5327 225.356 63.942V59.36C224.39 60.868 223.056 62.1053 221.354 63.072C219.653 64 217.662 64.464 215.38 64.464C212.712 64.464 210.296 63.7873 208.13 62.434C205.965 61.042 204.244 59.0893 202.968 56.576C201.731 54.024 201.112 51.0853 201.112 47.76C201.112 44.4347 201.731 41.5153 202.968 39.002C204.244 36.4887 205.965 34.5553 208.13 33.202C210.296 31.8487 212.712 31.172 215.38 31.172ZM225.356 47.818C225.356 45.3433 224.66 43.3907 223.268 41.96C221.915 40.5293 220.252 39.814 218.28 39.814C216.308 39.814 214.626 40.5293 213.234 41.96C211.881 43.352 211.204 45.2853 211.204 47.76C211.204 50.2347 211.881 52.2067 213.234 53.676C214.626 55.1067 216.308 55.822 218.28 55.822C220.252 55.822 221.915 55.1067 223.268 53.676C224.66 52.2453 225.356 50.2927 225.356 47.818Z" fill="white"/>
</svg>
