<svg width="115" height="116" viewBox="0 0 115 116" fill="none" xmlns="http://www.w3.org/2000/svg">
<path d="M57.6433 115.408C89.2634 115.408 114.897 89.7746 114.897 58.1545C114.897 26.5344 89.2634 0.901306 57.6433 0.901306C26.0232 0.901306 0.390137 26.5344 0.390137 58.1545C0.390137 89.7746 26.0232 115.408 57.6433 115.408Z" fill="#E56505"/>
<path d="M57.6433 115.408C26.2102 115.408 0.390137 89.5876 0.390137 58.1545C0.390137 26.7214 26.2102 0.901306 57.6433 0.901306" fill="#F97906"/>
<path d="M86.8313 37.9475C86.8313 41.3153 84.586 43.5605 81.2182 43.5605H36.3137C32.9459 43.5605 30.7007 41.3153 30.7007 37.9475C30.7007 34.5796 32.9459 32.3344 36.3137 32.3344H81.2182C84.586 32.3344 86.8313 34.5796 86.8313 37.9475Z" fill="#FFBC00"/>
</svg>
