<svg width="115" height="116" viewBox="0 0 115 116" fill="none" xmlns="http://www.w3.org/2000/svg">
<path d="M57.3567 115.408C88.9768 115.408 114.61 89.7746 114.61 58.1545C114.61 26.5344 88.9768 0.901306 57.3567 0.901306C25.7366 0.901306 0.103516 26.5344 0.103516 58.1545C0.103516 89.7746 25.7366 115.408 57.3567 115.408Z" fill="#F97906"/>
<path d="M57.3564 115.408C88.7896 115.408 114.61 89.5876 114.61 58.1545C114.61 26.7214 88.7896 0.901306 57.3564 0.901306" fill="#E56505"/>
<path d="M84.2995 37.9474C84.2995 34.5796 82.0543 32.3344 78.6865 32.3344H33.782C30.4142 32.3344 28.1689 34.5796 28.1689 37.9474C28.1689 41.3153 30.4142 43.5605 33.782 43.5605H78.6865C82.0543 43.5605 84.2995 41.3153 84.2995 37.9474Z" fill="#FFBC00"/>
</svg>
