<svg width="599" height="650" viewBox="0 0 599 650" fill="none" xmlns="http://www.w3.org/2000/svg">
<path d="M74.9775 407.508C74.9775 209.928 181.626 0 299.5 0C417.374 0 524.022 208.806 524.022 407.508C524.022 606.21 417.374 649.992 299.5 649.992C181.626 649.992 74.9775 605.088 74.9775 407.508Z" fill="#E56505"/>
<path d="M299.5 649.992C182.748 649.992 74.9775 605.088 74.9775 407.508C74.9775 209.928 182.748 0 299.5 0C416.251 0 524.022 208.806 524.022 407.508" fill="#F97906"/>
<path d="M299.5 649.992C182.748 649.992 74.9775 605.088 74.9775 407.508C74.9775 209.928 182.748 0 299.5 0" fill="#FF9100"/>
<path d="M74.9775 442.309H155.806L206.323 491.704H209.691L277.048 490.581L210.814 483.846L164.786 435.573" fill="#FFBC00"/>
<path d="M524.022 442.309H443.194L392.677 491.704H389.309L321.952 490.581L388.186 483.846L434.213 435.573" fill="#FFBC00"/>
<path d="M522.9 408.631C524.022 407.508 525.145 407.508 525.145 406.385C525.145 275.04 480.24 147.062 412.884 70.7245V368.217L455.543 409.753H522.9V408.631Z" fill="#FFBC00"/>
<path d="M522.899 409.753C524.022 408.631 524.022 407.508 524.022 406.385C524.022 275.04 479.117 140.326 411.761 63.9889V363.726" fill="#E56505"/>
<path d="M77.2228 408.631C76.1002 407.508 74.9775 407.508 74.9775 406.385C74.9775 275.04 119.882 157.166 187.239 79.7054V367.094L145.702 408.631H77.2228Z" fill="#E56505"/>
<path d="M76.1002 409.753C76.1002 408.631 74.9775 407.508 74.9775 406.385C74.9775 275.04 119.882 140.326 187.239 63.9889V363.726" fill="#FFBC00"/>
<path d="M584.643 316.576C592.083 316.576 598.115 310.545 598.115 303.105C598.115 295.665 592.083 289.634 584.643 289.634C577.203 289.634 571.172 295.665 571.172 303.105C571.172 310.545 577.203 316.576 584.643 316.576Z" fill="#F97906"/>
<path d="M580.153 318.822V374.952H546.475V419.857H524.022" fill="#FFBC00"/>
<path d="M499.906 356.988C502.352 387.893 512.852 412.272 523.36 411.44C533.867 410.609 540.402 384.881 537.956 353.977C535.51 323.072 525.009 298.693 514.502 299.524C503.995 300.356 497.46 326.083 499.906 356.988Z" fill="#FF9100"/>
<path d="M517.042 355.433C518.507 373.975 523.203 388.73 527.529 388.388C531.856 388.046 534.175 372.737 532.71 354.195C531.244 335.652 526.548 320.898 522.222 321.24C517.895 321.582 515.576 336.891 517.042 355.433Z" fill="#FFBC00"/>
<path d="M476.872 358.113C479.352 358.113 481.363 356.103 481.363 353.623C481.363 351.143 479.352 349.132 476.872 349.132C474.392 349.132 472.382 351.143 472.382 353.623C472.382 356.103 474.392 358.113 476.872 358.113Z" fill="#FCE6F1"/>
<path d="M458.911 363.726C461.391 363.726 463.401 361.716 463.401 359.236C463.401 356.756 461.391 354.745 458.911 354.745C456.431 354.745 454.42 356.756 454.42 359.236C454.42 361.716 456.431 363.726 458.911 363.726Z" fill="#FCE6F1"/>
<path d="M440.949 368.217C443.429 368.217 445.439 366.206 445.439 363.726C445.439 361.246 443.429 359.236 440.949 359.236C438.469 359.236 436.458 361.246 436.458 363.726C436.458 366.206 438.469 368.217 440.949 368.217Z" fill="#FCE6F1"/>
<path d="M14.3566 316.576C21.7966 316.576 27.8279 310.545 27.8279 303.105C27.8279 295.665 21.7966 289.634 14.3566 289.634C6.91657 289.634 0.885254 295.665 0.885254 303.105C0.885254 310.545 6.91657 316.576 14.3566 316.576Z" fill="#F97906"/>
<path d="M18.8472 318.822V374.952H52.5255V419.857H74.9777" fill="#FFBC00"/>
<path d="M99.6077 357.385C102.054 326.48 95.5186 300.753 85.0113 299.921C74.5039 299.089 64.0032 323.469 61.5572 354.373C59.1113 385.278 65.6463 411.005 76.1536 411.837C86.661 412.669 97.1617 388.29 99.6077 357.385Z" fill="#F97906"/>
<path d="M81.6576 356.481C83.1233 337.939 80.8041 322.63 76.4776 322.288C72.151 321.946 67.4555 336.701 65.9898 355.243C64.5241 373.785 66.8433 389.094 71.1699 389.436C75.4964 389.778 80.1919 375.024 81.6576 356.481Z" fill="#FFBC00"/>
<path d="M122.127 358.113C124.607 358.113 126.618 356.103 126.618 353.623C126.618 351.143 124.607 349.132 122.127 349.132C119.647 349.132 117.637 351.143 117.637 353.623C117.637 356.103 119.647 358.113 122.127 358.113Z" fill="#E5337C"/>
<path d="M140.089 363.726C142.569 363.726 144.58 361.716 144.58 359.236C144.58 356.756 142.569 354.745 140.089 354.745C137.609 354.745 135.599 356.756 135.599 359.236C135.599 361.716 137.609 363.726 140.089 363.726Z" fill="#E5337C"/>
<path d="M158.05 368.217C160.531 368.217 162.541 366.206 162.541 363.726C162.541 361.246 160.531 359.236 158.05 359.236C155.57 359.236 153.56 361.246 153.56 363.726C153.56 366.206 155.57 368.217 158.05 368.217Z" fill="#E5337C"/>
<path d="M245.615 176.25C245.615 196.457 229.898 225.645 209.691 225.645C190.607 225.645 173.768 196.457 173.768 176.25C173.768 157.166 189.484 140.326 209.691 140.326C229.898 140.326 245.615 156.043 245.615 176.25Z" fill="#FFBC00"/>
<path d="M210.814 212.174C230.654 212.174 246.737 196.09 246.737 176.25C246.737 156.41 230.654 140.326 210.814 140.326C190.974 140.326 174.89 156.41 174.89 176.25C174.89 196.09 190.974 212.174 210.814 212.174Z" fill="#E5337C"/>
<path d="M184.994 150.43C198.465 136.959 220.917 136.959 235.511 150.43C250.105 163.901 248.983 186.353 235.511 200.947" fill="#9B0B4D"/>
<path d="M210.813 196.457C221.973 196.457 231.02 187.41 231.02 176.25C231.02 165.09 221.973 156.043 210.813 156.043C199.653 156.043 190.606 165.09 190.606 176.25C190.606 187.41 199.653 196.457 210.813 196.457Z" fill="#00FFF2"/>
<path d="M210.813 196.457C199.587 196.457 190.606 187.476 190.606 176.25C190.606 165.024 199.587 156.043 210.813 156.043" fill="#16D8D8"/>
<path d="M195.097 172.882C201.917 172.882 207.446 167.353 207.446 160.533C207.446 153.713 201.917 148.185 195.097 148.185C188.277 148.185 182.749 153.713 182.749 160.533C182.749 167.353 188.277 172.882 195.097 172.882Z" fill="#FCE6F1"/>
<path d="M231.021 199.825C234.121 199.825 236.634 197.312 236.634 194.212C236.634 191.112 234.121 188.599 231.021 188.599C227.921 188.599 225.408 191.112 225.408 194.212C225.408 197.312 227.921 199.825 231.021 199.825Z" fill="#FCE6F1"/>
<path d="M424.11 176.25C424.11 196.457 408.393 225.645 388.186 225.645C369.102 225.645 352.263 196.457 352.263 176.25C352.263 157.166 367.979 140.326 388.186 140.326C408.393 140.326 424.11 156.043 424.11 176.25Z" fill="#FFBC00"/>
<path d="M388.186 212.174C408.026 212.174 424.11 196.09 424.11 176.25C424.11 156.41 408.026 140.326 388.186 140.326C368.346 140.326 352.263 156.41 352.263 176.25C352.263 196.09 368.346 212.174 388.186 212.174Z" fill="#E5337C"/>
<path d="M363.489 150.43C376.96 136.959 399.412 136.959 414.006 150.43C427.478 163.901 427.478 186.353 414.006 200.947" fill="#9B0B4D"/>
<path d="M388.186 196.457C399.347 196.457 408.393 187.41 408.393 176.25C408.393 165.09 399.347 156.043 388.186 156.043C377.026 156.043 367.979 165.09 367.979 176.25C367.979 187.41 377.026 196.457 388.186 196.457Z" fill="#00FFF2"/>
<path d="M388.186 196.457C376.96 196.457 367.979 187.476 367.979 176.25C367.979 165.024 376.96 156.043 388.186 156.043" fill="#16D8D8"/>
<path d="M372.47 172.882C379.29 172.882 384.819 167.353 384.819 160.533C384.819 153.713 379.29 148.185 372.47 148.185C365.65 148.185 360.121 153.713 360.121 160.533C360.121 167.353 365.65 172.882 372.47 172.882Z" fill="#FCE6F1"/>
<path d="M408.393 199.825C411.493 199.825 414.006 197.312 414.006 194.212C414.006 191.112 411.493 188.599 408.393 188.599C405.293 188.599 402.78 191.112 402.78 194.212C402.78 197.312 405.293 199.825 408.393 199.825Z" fill="#FCE6F1"/>
<path d="M321.952 225.645L299.5 248.097L277.048 225.645L299.5 224.522L321.952 225.645Z" fill="#9B0B4D"/>
<path d="M299.5 24.6974C301.98 24.6974 303.991 22.687 303.991 20.207C303.991 17.727 301.98 15.7166 299.5 15.7166C297.02 15.7166 295.01 17.727 295.01 20.207C295.01 22.687 297.02 24.6974 299.5 24.6974Z" fill="#9B0B4D"/>
<path d="M299.5 44.9044C301.98 44.9044 303.991 42.894 303.991 40.414C303.991 37.934 301.98 35.9236 299.5 35.9236C297.02 35.9236 295.01 37.934 295.01 40.414C295.01 42.894 297.02 44.9044 299.5 44.9044Z" fill="#9B0B4D"/>
<path d="M299.5 66.2341C301.98 66.2341 303.991 64.2236 303.991 61.7436C303.991 59.2636 301.98 57.2532 299.5 57.2532C297.02 57.2532 295.01 59.2636 295.01 61.7436C295.01 64.2236 297.02 66.2341 299.5 66.2341Z" fill="#9B0B4D"/>
<path d="M299.5 86.4411C301.98 86.4411 303.991 84.4306 303.991 81.9506C303.991 79.4706 301.98 77.4602 299.5 77.4602C297.02 77.4602 295.01 79.4706 295.01 81.9506C295.01 84.4306 297.02 86.4411 299.5 86.4411Z" fill="#9B0B4D"/>
<path d="M299.5 106.648C301.98 106.648 303.991 104.638 303.991 102.158C303.991 99.6776 301.98 97.6672 299.5 97.6672C297.02 97.6672 295.01 99.6776 295.01 102.158C295.01 104.638 297.02 106.648 299.5 106.648Z" fill="#9B0B4D"/>
</svg>
