<svg width="121" height="70" viewBox="0 0 121 70" fill="none" xmlns="http://www.w3.org/2000/svg">
<path d="M63.045 0.237999V22H57.744V8.949L52.877 22H48.599L43.701 8.918V22H38.4V0.237999H44.662L50.769 15.304L56.814 0.237999H63.045ZM84.5271 4.702L73.6771 30.215H67.9731L71.9411 21.411L64.9041 4.702H70.8251L74.8241 15.521L78.7921 4.702H84.5271ZM15.846 65.156H7.72395L6.42195 69H0.872953L8.74695 47.238H14.885L22.759 69H17.148L15.846 65.156ZM14.482 61.064L11.785 53.097L9.11895 61.064H14.482ZM35.6954 51.516C37.7207 51.516 39.3327 52.1773 40.5314 53.5C41.7507 54.802 42.3604 56.6 42.3604 58.894V69H37.0904V59.607C37.0904 58.4497 36.7907 57.5507 36.1914 56.91C35.5921 56.2693 34.7861 55.949 33.7734 55.949C32.7607 55.949 31.9547 56.2693 31.3554 56.91C30.7561 57.5507 30.4564 58.4497 30.4564 59.607V69H25.1554V51.702H30.4564V53.996C30.9937 53.2313 31.7171 52.632 32.6264 52.198C33.5357 51.7433 34.5587 51.516 35.6954 51.516ZM53.0811 69.248C51.5724 69.248 50.2291 68.9897 49.0511 68.473C47.8731 67.9563 46.9431 67.2537 46.2611 66.365C45.5791 65.4557 45.1967 64.443 45.1141 63.327H50.3531C50.4151 63.9263 50.6941 64.412 51.1901 64.784C51.6861 65.156 52.2957 65.342 53.0191 65.342C53.6804 65.342 54.1867 65.218 54.5381 64.97C54.9101 64.7013 55.0961 64.3603 55.0961 63.947C55.0961 63.451 54.8377 63.0893 54.3211 62.862C53.8044 62.614 52.9674 62.3453 51.8101 62.056C50.5701 61.7667 49.5367 61.467 48.7101 61.157C47.8834 60.8263 47.1704 60.32 46.5711 59.638C45.9717 58.9353 45.6721 57.995 45.6721 56.817C45.6721 55.825 45.9407 54.926 46.4781 54.12C47.0361 53.2933 47.8421 52.6423 48.8961 52.167C49.9707 51.6917 51.2417 51.454 52.7091 51.454C54.8791 51.454 56.5841 51.9913 57.8241 53.066C59.0847 54.1407 59.8081 55.5667 59.9941 57.344H55.0961C55.0134 56.7447 54.7447 56.2693 54.2901 55.918C53.8561 55.5667 53.2774 55.391 52.5541 55.391C51.9341 55.391 51.4587 55.515 51.1281 55.763C50.7974 55.9903 50.6321 56.3107 50.6321 56.724C50.6321 57.22 50.8904 57.592 51.4071 57.84C51.9444 58.088 52.7711 58.336 53.8871 58.584C55.1684 58.9147 56.2121 59.2453 57.0181 59.576C57.8241 59.886 58.5267 60.4027 59.1261 61.126C59.7461 61.8287 60.0664 62.7793 60.0871 63.978C60.0871 64.9907 59.7977 65.9 59.2191 66.706C58.6611 67.4913 57.8447 68.1113 56.7701 68.566C55.7161 69.0207 54.4864 69.248 53.0811 69.248ZM88.1612 51.702L83.4802 69H77.6212L74.8932 57.778L72.0722 69H66.2442L61.5322 51.702H66.8332L69.2822 64.071L72.1962 51.702H77.8072L80.7522 64.009L83.1702 51.702H88.1612ZM106.489 60.072C106.489 60.568 106.458 61.0847 106.396 61.622H94.3987C94.4814 62.6967 94.8224 63.5233 95.4217 64.102C96.0417 64.66 96.7961 64.939 97.6847 64.939C99.0074 64.939 99.9271 64.381 100.444 63.265H106.086C105.796 64.4017 105.269 65.4247 104.505 66.334C103.761 67.2433 102.82 67.9563 101.684 68.473C100.547 68.9897 99.2761 69.248 97.8707 69.248C96.1761 69.248 94.6674 68.8863 93.3447 68.163C92.0221 67.4397 90.9887 66.4063 90.2447 65.063C89.5007 63.7197 89.1287 62.149 89.1287 60.351C89.1287 58.553 89.4904 56.9823 90.2137 55.639C90.9577 54.2957 91.9911 53.2623 93.3137 52.539C94.6364 51.8157 96.1554 51.454 97.8707 51.454C99.5447 51.454 101.033 51.8053 102.335 52.508C103.637 53.2107 104.649 54.213 105.373 55.515C106.117 56.817 106.489 58.336 106.489 60.072ZM101.064 58.677C101.064 57.7677 100.754 57.0443 100.134 56.507C99.5137 55.9697 98.7387 55.701 97.8087 55.701C96.9201 55.701 96.1657 55.9593 95.5457 56.476C94.9464 56.9927 94.5744 57.7263 94.4297 58.677H101.064ZM114.586 54.585C115.206 53.6343 115.981 52.8903 116.911 52.353C117.841 51.795 118.875 51.516 120.011 51.516V57.127H118.554C117.232 57.127 116.24 57.4163 115.578 57.995C114.917 58.553 114.586 59.545 114.586 60.971V69H109.285V51.702H114.586V54.585Z" fill="white"/>
</svg>
