<svg width="291" height="118" viewBox="0 0 291 118" fill="none" xmlns="http://www.w3.org/2000/svg">
<path d="M22.9984 2.556V5.57H18.9064V18H15.1444V5.57H11.0524V2.556H22.9984ZM32.4325 5.592C33.8405 5.592 34.9698 6.06133 35.8205 7C36.6711 7.924 37.0965 9.2 37.0965 10.828V18H33.3565V11.334C33.3565 10.5127 33.1438 9.87467 32.7185 9.42C32.2931 8.96533 31.7211 8.738 31.0025 8.738C30.2838 8.738 29.7118 8.96533 29.2865 9.42C28.8611 9.87467 28.6485 10.5127 28.6485 11.334V18H24.8865V1.72H28.6485V7.374C29.0298 6.83133 29.5505 6.39867 30.2105 6.076C30.8705 5.75333 31.6111 5.592 32.4325 5.592ZM51.2827 11.664C51.2827 12.016 51.2607 12.3827 51.2167 12.764H42.7027C42.7613 13.5267 43.0033 14.1133 43.4287 14.524C43.8687 14.92 44.404 15.118 45.0347 15.118C45.9733 15.118 46.626 14.722 46.9927 13.93H50.9967C50.7913 14.7367 50.4173 15.4627 49.8747 16.108C49.3467 16.7533 48.6793 17.2593 47.8727 17.626C47.066 17.9927 46.164 18.176 45.1667 18.176C43.964 18.176 42.8933 17.9193 41.9547 17.406C41.016 16.8927 40.2827 16.1593 39.7547 15.206C39.2267 14.2527 38.9627 13.138 38.9627 11.862C38.9627 10.586 39.2193 9.47133 39.7327 8.518C40.2607 7.56467 40.994 6.83133 41.9327 6.318C42.8713 5.80467 43.9493 5.548 45.1667 5.548C46.3547 5.548 47.4107 5.79733 48.3347 6.296C49.2587 6.79467 49.9773 7.506 50.4907 8.43C51.0187 9.354 51.2827 10.432 51.2827 11.664ZM47.4327 10.674C47.4327 10.0287 47.2127 9.51533 46.7727 9.134C46.3327 8.75267 45.7827 8.562 45.1227 8.562C44.492 8.562 43.9567 8.74533 43.5167 9.112C43.0913 9.47867 42.8273 9.99933 42.7247 10.674H47.4327ZM62.9234 18.176C61.8528 18.176 60.8994 17.9927 60.0634 17.626C59.2274 17.2593 58.5674 16.7607 58.0834 16.13C57.5994 15.4847 57.3281 14.766 57.2694 13.974H60.9874C61.0314 14.3993 61.2294 14.744 61.5814 15.008C61.9334 15.272 62.3661 15.404 62.8794 15.404C63.3488 15.404 63.7081 15.316 63.9574 15.14C64.2214 14.9493 64.3534 14.7073 64.3534 14.414C64.3534 14.062 64.1701 13.8053 63.8034 13.644C63.4368 13.468 62.8428 13.2773 62.0214 13.072C61.1414 12.8667 60.4081 12.654 59.8214 12.434C59.2348 12.1993 58.7288 11.84 58.3034 11.356C57.8781 10.8573 57.6654 10.19 57.6654 9.354C57.6654 8.65 57.8561 8.012 58.2374 7.44C58.6334 6.85333 59.2054 6.39133 59.9534 6.054C60.7161 5.71667 61.6181 5.548 62.6594 5.548C64.1994 5.548 65.4094 5.92933 66.2894 6.692C67.1841 7.45467 67.6974 8.46667 67.8294 9.728H64.3534C64.2948 9.30267 64.1041 8.96533 63.7814 8.716C63.4734 8.46667 63.0628 8.342 62.5494 8.342C62.1094 8.342 61.7721 8.43 61.5374 8.606C61.3028 8.76733 61.1854 8.99467 61.1854 9.288C61.1854 9.64 61.3688 9.904 61.7354 10.08C62.1168 10.256 62.7034 10.432 63.4954 10.608C64.4048 10.8427 65.1454 11.0773 65.7174 11.312C66.2894 11.532 66.7881 11.8987 67.2134 12.412C67.6534 12.9107 67.8808 13.5853 67.8954 14.436C67.8954 15.1547 67.6901 15.8 67.2794 16.372C66.8834 16.9293 66.3041 17.3693 65.5414 17.692C64.7934 18.0147 63.9208 18.176 62.9234 18.176ZM81.769 11.664C81.769 12.016 81.747 12.3827 81.703 12.764H73.189C73.2477 13.5267 73.4897 14.1133 73.915 14.524C74.355 14.92 74.8903 15.118 75.521 15.118C76.4597 15.118 77.1123 14.722 77.479 13.93H81.483C81.2777 14.7367 80.9037 15.4627 80.361 16.108C79.833 16.7533 79.1657 17.2593 78.359 17.626C77.5523 17.9927 76.6503 18.176 75.653 18.176C74.4503 18.176 73.3797 17.9193 72.441 17.406C71.5023 16.8927 70.769 16.1593 70.241 15.206C69.713 14.2527 69.449 13.138 69.449 11.862C69.449 10.586 69.7057 9.47133 70.219 8.518C70.747 7.56467 71.4803 6.83133 72.419 6.318C73.3577 5.80467 74.4357 5.548 75.653 5.548C76.841 5.548 77.897 5.79733 78.821 6.296C79.745 6.79467 80.4637 7.506 80.977 8.43C81.505 9.354 81.769 10.432 81.769 11.664ZM77.919 10.674C77.919 10.0287 77.699 9.51533 77.259 9.134C76.819 8.75267 76.269 8.562 75.609 8.562C74.9783 8.562 74.443 8.74533 74.003 9.112C73.5777 9.47867 73.3137 9.99933 73.211 10.674H77.919ZM90.5956 14.81V18H88.6816C87.3176 18 86.2543 17.67 85.4916 17.01C84.729 16.3353 84.3476 15.2427 84.3476 13.732V8.848H82.8516V5.724H84.3476V2.732H88.1096V5.724H90.5736V8.848H88.1096V13.776C88.1096 14.1427 88.1976 14.4067 88.3736 14.568C88.5496 14.7293 88.843 14.81 89.2536 14.81H90.5956ZM99.5331 14.81V18H97.6191C96.2551 18 95.1918 17.67 94.4291 17.01C93.6665 16.3353 93.2851 15.2427 93.2851 13.732V8.848H91.7891V5.724H93.2851V2.732H97.0471V5.724H99.5111V8.848H97.0471V13.776C97.0471 14.1427 97.1351 14.4067 97.3111 14.568C97.4871 14.7293 97.7805 14.81 98.1911 14.81H99.5331ZM103.521 4.448C102.861 4.448 102.318 4.25733 101.893 3.876C101.482 3.48 101.277 2.996 101.277 2.424C101.277 1.83733 101.482 1.35333 101.893 0.971999C102.318 0.575999 102.861 0.377999 103.521 0.377999C104.166 0.377999 104.694 0.575999 105.105 0.971999C105.53 1.35333 105.743 1.83733 105.743 2.424C105.743 2.996 105.53 3.48 105.105 3.876C104.694 4.25733 104.166 4.448 103.521 4.448ZM105.391 5.724V18H101.629V5.724H105.391ZM115.597 5.592C117.034 5.592 118.178 6.06133 119.029 7C119.894 7.924 120.327 9.2 120.327 10.828V18H116.587V11.334C116.587 10.5127 116.374 9.87467 115.949 9.42C115.524 8.96533 114.952 8.738 114.233 8.738C113.514 8.738 112.942 8.96533 112.517 9.42C112.092 9.87467 111.879 10.5127 111.879 11.334V18H108.117V5.724H111.879V7.352C112.26 6.80933 112.774 6.384 113.419 6.076C114.064 5.75333 114.79 5.592 115.597 5.592ZM127.605 5.548C128.47 5.548 129.226 5.724 129.871 6.076C130.531 6.428 131.037 6.89 131.389 7.462V5.724H135.151V17.978C135.151 19.1073 134.924 20.1267 134.469 21.036C134.029 21.96 133.347 22.6933 132.423 23.236C131.514 23.7787 130.377 24.05 129.013 24.05C127.194 24.05 125.72 23.6173 124.591 22.752C123.462 21.9013 122.816 20.7427 122.655 19.276H126.373C126.49 19.7453 126.769 20.112 127.209 20.376C127.649 20.6547 128.192 20.794 128.837 20.794C129.614 20.794 130.23 20.5667 130.685 20.112C131.154 19.672 131.389 18.9607 131.389 17.978V16.24C131.022 16.812 130.516 17.2813 129.871 17.648C129.226 18 128.47 18.176 127.605 18.176C126.593 18.176 125.676 17.9193 124.855 17.406C124.034 16.878 123.381 16.1373 122.897 15.184C122.428 14.216 122.193 13.1013 122.193 11.84C122.193 10.5787 122.428 9.47133 122.897 8.518C123.381 7.56467 124.034 6.83133 124.855 6.318C125.676 5.80467 126.593 5.548 127.605 5.548ZM131.389 11.862C131.389 10.9233 131.125 10.1827 130.597 9.64C130.084 9.09733 129.453 8.826 128.705 8.826C127.957 8.826 127.319 9.09733 126.791 9.64C126.278 10.168 126.021 10.9013 126.021 11.84C126.021 12.7787 126.278 13.5267 126.791 14.084C127.319 14.6267 127.957 14.898 128.705 14.898C129.453 14.898 130.084 14.6267 130.597 14.084C131.125 13.5413 131.389 12.8007 131.389 11.862ZM147.529 18.176C146.458 18.176 145.505 17.9927 144.669 17.626C143.833 17.2593 143.173 16.7607 142.689 16.13C142.205 15.4847 141.934 14.766 141.875 13.974H145.593C145.637 14.3993 145.835 14.744 146.187 15.008C146.539 15.272 146.972 15.404 147.485 15.404C147.954 15.404 148.314 15.316 148.563 15.14C148.827 14.9493 148.959 14.7073 148.959 14.414C148.959 14.062 148.776 13.8053 148.409 13.644C148.042 13.468 147.448 13.2773 146.627 13.072C145.747 12.8667 145.014 12.654 144.427 12.434C143.84 12.1993 143.334 11.84 142.909 11.356C142.484 10.8573 142.271 10.19 142.271 9.354C142.271 8.65 142.462 8.012 142.843 7.44C143.239 6.85333 143.811 6.39133 144.559 6.054C145.322 5.71667 146.224 5.548 147.265 5.548C148.805 5.548 150.015 5.92933 150.895 6.692C151.79 7.45467 152.303 8.46667 152.435 9.728H148.959C148.9 9.30267 148.71 8.96533 148.387 8.716C148.079 8.46667 147.668 8.342 147.155 8.342C146.715 8.342 146.378 8.43 146.143 8.606C145.908 8.76733 145.791 8.99467 145.791 9.288C145.791 9.64 145.974 9.904 146.341 10.08C146.722 10.256 147.309 10.432 148.101 10.608C149.01 10.8427 149.751 11.0773 150.323 11.312C150.895 11.532 151.394 11.8987 151.819 12.412C152.259 12.9107 152.486 13.5853 152.501 14.436C152.501 15.1547 152.296 15.8 151.885 16.372C151.489 16.9293 150.91 17.3693 150.147 17.692C149.399 18.0147 148.526 18.176 147.529 18.176ZM166.924 5.724V18H163.162V16.328C162.781 16.8707 162.26 17.3107 161.6 17.648C160.955 17.9707 160.236 18.132 159.444 18.132C158.506 18.132 157.677 17.9267 156.958 17.516C156.24 17.0907 155.682 16.482 155.286 15.69C154.89 14.898 154.692 13.9667 154.692 12.896V5.724H158.432V12.39C158.432 13.2113 158.645 13.8493 159.07 14.304C159.496 14.7587 160.068 14.986 160.786 14.986C161.52 14.986 162.099 14.7587 162.524 14.304C162.95 13.8493 163.162 13.2113 163.162 12.39V5.724H166.924ZM177.107 5.592C178.544 5.592 179.688 6.06133 180.539 7C181.404 7.924 181.837 9.2 181.837 10.828V18H178.097V11.334C178.097 10.5127 177.884 9.87467 177.459 9.42C177.033 8.96533 176.461 8.738 175.743 8.738C175.024 8.738 174.452 8.96533 174.027 9.42C173.601 9.87467 173.389 10.5127 173.389 11.334V18H169.627V5.724H173.389V7.352C173.77 6.80933 174.283 6.384 174.929 6.076C175.574 5.75333 176.3 5.592 177.107 5.592ZM194.701 18.176C193.498 18.176 192.413 17.9193 191.445 17.406C190.492 16.8927 189.736 16.1593 189.179 15.206C188.636 14.2527 188.365 13.138 188.365 11.862C188.365 10.6007 188.644 9.49333 189.201 8.54C189.758 7.572 190.521 6.83133 191.489 6.318C192.457 5.80467 193.542 5.548 194.745 5.548C195.948 5.548 197.033 5.80467 198.001 6.318C198.969 6.83133 199.732 7.572 200.289 8.54C200.846 9.49333 201.125 10.6007 201.125 11.862C201.125 13.1233 200.839 14.238 200.267 15.206C199.71 16.1593 198.94 16.8927 197.957 17.406C196.989 17.9193 195.904 18.176 194.701 18.176ZM194.701 14.92C195.42 14.92 196.028 14.656 196.527 14.128C197.04 13.6 197.297 12.8447 197.297 11.862C197.297 10.8793 197.048 10.124 196.549 9.596C196.065 9.068 195.464 8.804 194.745 8.804C194.012 8.804 193.403 9.068 192.919 9.596C192.435 10.1093 192.193 10.8647 192.193 11.862C192.193 12.8447 192.428 13.6 192.897 14.128C193.381 14.656 193.982 14.92 194.701 14.92ZM208.643 14.48L211.305 5.724H215.309L210.953 18H206.311L201.955 5.724H205.981L208.643 14.48ZM228.464 11.664C228.464 12.016 228.442 12.3827 228.398 12.764H219.884C219.943 13.5267 220.185 14.1133 220.61 14.524C221.05 14.92 221.586 15.118 222.216 15.118C223.155 15.118 223.808 14.722 224.174 13.93H228.178C227.973 14.7367 227.599 15.4627 227.056 16.108C226.528 16.7533 225.861 17.2593 225.054 17.626C224.248 17.9927 223.346 18.176 222.348 18.176C221.146 18.176 220.075 17.9193 219.136 17.406C218.198 16.8927 217.464 16.1593 216.936 15.206C216.408 14.2527 216.144 13.138 216.144 11.862C216.144 10.586 216.401 9.47133 216.914 8.518C217.442 7.56467 218.176 6.83133 219.114 6.318C220.053 5.80467 221.131 5.548 222.348 5.548C223.536 5.548 224.592 5.79733 225.516 6.296C226.44 6.79467 227.159 7.506 227.672 8.43C228.2 9.354 228.464 10.432 228.464 11.664ZM224.614 10.674C224.614 10.0287 224.394 9.51533 223.954 9.134C223.514 8.75267 222.964 8.562 222.304 8.562C221.674 8.562 221.138 8.74533 220.698 9.112C220.273 9.47867 220.009 9.99933 219.906 10.674H224.614ZM234.211 7.77C234.651 7.09533 235.201 6.56733 235.861 6.186C236.521 5.79 237.254 5.592 238.061 5.592V9.574H237.027C236.088 9.574 235.384 9.77933 234.915 10.19C234.446 10.586 234.211 11.29 234.211 12.302V18H230.449V5.724H234.211V7.77ZM251.363 14.81V18H249.449C248.085 18 247.022 17.67 246.259 17.01C245.497 16.3353 245.115 15.2427 245.115 13.732V8.848H243.619V5.724H245.115V2.732H248.877V5.724H251.341V8.848H248.877V13.776C248.877 14.1427 248.965 14.4067 249.141 14.568C249.317 14.7293 249.611 14.81 250.021 14.81H251.363ZM261.005 5.592C262.413 5.592 263.542 6.06133 264.393 7C265.243 7.924 265.669 9.2 265.669 10.828V18H261.929V11.334C261.929 10.5127 261.716 9.87467 261.291 9.42C260.865 8.96533 260.293 8.738 259.575 8.738C258.856 8.738 258.284 8.96533 257.859 9.42C257.433 9.87467 257.221 10.5127 257.221 11.334V18H253.459V1.72H257.221V7.374C257.602 6.83133 258.123 6.39867 258.783 6.076C259.443 5.75333 260.183 5.592 261.005 5.592ZM279.855 11.664C279.855 12.016 279.833 12.3827 279.789 12.764H271.275C271.334 13.5267 271.576 14.1133 272.001 14.524C272.441 14.92 272.976 15.118 273.607 15.118C274.546 15.118 275.198 14.722 275.565 13.93H279.569C279.364 14.7367 278.99 15.4627 278.447 16.108C277.919 16.7533 277.252 17.2593 276.445 17.626C275.638 17.9927 274.736 18.176 273.739 18.176C272.536 18.176 271.466 17.9193 270.527 17.406C269.588 16.8927 268.855 16.1593 268.327 15.206C267.799 14.2527 267.535 13.138 267.535 11.862C267.535 10.586 267.792 9.47133 268.305 8.518C268.833 7.56467 269.566 6.83133 270.505 6.318C271.444 5.80467 272.522 5.548 273.739 5.548C274.927 5.548 275.983 5.79733 276.907 6.296C277.831 6.79467 278.55 7.506 279.063 8.43C279.591 9.354 279.855 10.432 279.855 11.664ZM276.005 10.674C276.005 10.0287 275.785 9.51533 275.345 9.134C274.905 8.75267 274.355 8.562 273.695 8.562C273.064 8.562 272.529 8.74533 272.089 9.112C271.664 9.47867 271.4 9.99933 271.297 10.674H276.005ZM27.6464 47.81V51H25.7324C24.3684 51 23.3051 50.67 22.5424 50.01C21.7798 49.3353 21.3984 48.2427 21.3984 46.732V41.848H19.9024V38.724H21.3984V35.732H25.1604V38.724H27.6244V41.848H25.1604V46.776C25.1604 47.1427 25.2484 47.4067 25.4244 47.568C25.6004 47.7293 25.8938 47.81 26.3044 47.81H27.6464ZM33.5039 40.77C33.9439 40.0953 34.4939 39.5673 35.1539 39.186C35.8139 38.79 36.5473 38.592 37.3539 38.592V42.574H36.3199C35.3813 42.574 34.6773 42.7793 34.2079 43.19C33.7386 43.586 33.5039 44.29 33.5039 45.302V51H29.7419V38.724H33.5039V40.77ZM38.4041 44.84C38.4041 43.5787 38.6388 42.4713 39.1081 41.518C39.5921 40.5647 40.2448 39.8313 41.0661 39.318C41.8874 38.8047 42.8041 38.548 43.8161 38.548C44.6814 38.548 45.4368 38.724 46.0821 39.076C46.7421 39.428 47.2481 39.89 47.6001 40.462V38.724H51.3621V51H47.6001V49.262C47.2334 49.834 46.7201 50.296 46.0601 50.648C45.4148 51 44.6594 51.176 43.7941 51.176C42.7968 51.176 41.8874 50.9193 41.0661 50.406C40.2448 49.878 39.5921 49.1373 39.1081 48.184C38.6388 47.216 38.4041 46.1013 38.4041 44.84ZM47.6001 44.862C47.6001 43.9233 47.3361 43.1827 46.8081 42.64C46.2948 42.0973 45.6641 41.826 44.9161 41.826C44.1681 41.826 43.5301 42.0973 43.0021 42.64C42.4888 43.168 42.2321 43.9013 42.2321 44.84C42.2321 45.7787 42.4888 46.5267 43.0021 47.084C43.5301 47.6267 44.1681 47.898 44.9161 47.898C45.6641 47.898 46.2948 47.6267 46.8081 47.084C47.3361 46.5413 47.6001 45.8007 47.6001 44.862ZM61.5637 38.592C63.0011 38.592 64.1451 39.0613 64.9957 40C65.8611 40.924 66.2937 42.2 66.2937 43.828V51H62.5537V44.334C62.5537 43.5127 62.3411 42.8747 61.9157 42.42C61.4904 41.9653 60.9184 41.738 60.1997 41.738C59.4811 41.738 58.9091 41.9653 58.4837 42.42C58.0584 42.8747 57.8457 43.5127 57.8457 44.334V51H54.0837V38.724H57.8457V40.352C58.2271 39.8093 58.7404 39.384 59.3857 39.076C60.0311 38.7533 60.7571 38.592 61.5637 38.592ZM68.1599 44.884C68.1599 43.6667 68.4093 42.5813 68.9079 41.628C69.4213 40.6747 70.1033 39.934 70.9539 39.406C71.8193 38.8633 72.7579 38.592 73.7699 38.592C74.5473 38.592 75.2439 38.7313 75.8599 39.01C76.4759 39.274 76.9746 39.648 77.3559 40.132V38.724H81.1179V56.852H77.3559V49.46C76.9306 49.9733 76.4099 50.384 75.7939 50.692C75.1926 51 74.5033 51.154 73.7259 51.154C72.7286 51.154 71.8046 50.89 70.9539 50.362C70.1033 49.834 69.4213 49.0933 68.9079 48.14C68.4093 47.1867 68.1599 46.1013 68.1599 44.884ZM77.3559 44.862C77.3559 44.202 77.2239 43.652 76.9599 43.212C76.7106 42.7573 76.3806 42.42 75.9699 42.2C75.5593 41.9653 75.1266 41.848 74.6719 41.848C74.2319 41.848 73.8066 41.9653 73.3959 42.2C72.9853 42.42 72.6479 42.7573 72.3839 43.212C72.1199 43.6667 71.9879 44.224 71.9879 44.884C71.9879 45.544 72.1199 46.1013 72.3839 46.556C72.6479 46.996 72.9853 47.3333 73.3959 47.568C73.8066 47.788 74.2319 47.898 74.6719 47.898C75.1119 47.898 75.5373 47.788 75.9479 47.568C76.3733 47.3333 76.7106 46.9887 76.9599 46.534C77.2239 46.0793 77.3559 45.522 77.3559 44.862ZM95.9616 38.724V51H92.1996V49.328C91.8183 49.8707 91.2976 50.3107 90.6376 50.648C89.9923 50.9707 89.2736 51.132 88.4816 51.132C87.5429 51.132 86.7143 50.9267 85.9956 50.516C85.2769 50.0907 84.7196 49.482 84.3236 48.69C83.9276 47.898 83.7296 46.9667 83.7296 45.896V38.724H87.4696V45.39C87.4696 46.2113 87.6823 46.8493 88.1076 47.304C88.5329 47.7587 89.1049 47.986 89.8236 47.986C90.5569 47.986 91.1363 47.7587 91.5616 47.304C91.9869 46.8493 92.1996 46.2113 92.1996 45.39V38.724H95.9616ZM100.556 37.448C99.8958 37.448 99.3531 37.2573 98.9278 36.876C98.5171 36.48 98.3118 35.996 98.3118 35.424C98.3118 34.8373 98.5171 34.3533 98.9278 33.972C99.3531 33.576 99.8958 33.378 100.556 33.378C101.201 33.378 101.729 33.576 102.14 33.972C102.565 34.3533 102.778 34.8373 102.778 35.424C102.778 35.996 102.565 36.48 102.14 36.876C101.729 37.2573 101.201 37.448 100.556 37.448ZM102.426 38.724V51H98.6638V38.724H102.426ZM108.914 34.72V51H105.152V34.72H108.914ZM121.89 51.176C120.688 51.176 119.602 50.9193 118.634 50.406C117.681 49.8927 116.926 49.1593 116.368 48.206C115.826 47.2527 115.554 46.138 115.554 44.862C115.554 43.6007 115.833 42.4933 116.39 41.54C116.948 40.572 117.71 39.8313 118.678 39.318C119.646 38.8047 120.732 38.548 121.934 38.548C123.137 38.548 124.222 38.8047 125.19 39.318C126.158 39.8313 126.921 40.572 127.478 41.54C128.036 42.4933 128.314 43.6007 128.314 44.862C128.314 46.1233 128.028 47.238 127.456 48.206C126.899 49.1593 126.129 49.8927 125.146 50.406C124.178 50.9193 123.093 51.176 121.89 51.176ZM121.89 47.92C122.609 47.92 123.218 47.656 123.716 47.128C124.23 46.6 124.486 45.8447 124.486 44.862C124.486 43.8793 124.237 43.124 123.738 42.596C123.254 42.068 122.653 41.804 121.934 41.804C121.201 41.804 120.592 42.068 120.108 42.596C119.624 43.1093 119.382 43.8647 119.382 44.862C119.382 45.8447 119.617 46.6 120.086 47.128C120.57 47.656 121.172 47.92 121.89 47.92ZM129.562 44.862C129.562 43.586 129.819 42.4713 130.332 41.518C130.86 40.5647 131.586 39.8313 132.51 39.318C133.449 38.8047 134.52 38.548 135.722 38.548C137.262 38.548 138.546 38.9513 139.572 39.758C140.614 40.5647 141.296 41.7013 141.618 43.168H137.614C137.277 42.2293 136.624 41.76 135.656 41.76C134.967 41.76 134.417 42.0313 134.006 42.574C133.596 43.102 133.39 43.8647 133.39 44.862C133.39 45.8593 133.596 46.6293 134.006 47.172C134.417 47.7 134.967 47.964 135.656 47.964C136.624 47.964 137.277 47.4947 137.614 46.556H141.618C141.296 47.9933 140.614 49.1227 139.572 49.944C138.531 50.7653 137.248 51.176 135.722 51.176C134.52 51.176 133.449 50.9193 132.51 50.406C131.586 49.8927 130.86 49.1593 130.332 48.206C129.819 47.2527 129.562 46.138 129.562 44.862ZM155.203 44.664C155.203 45.016 155.181 45.3827 155.137 45.764H146.623C146.681 46.5267 146.923 47.1133 147.349 47.524C147.789 47.92 148.324 48.118 148.955 48.118C149.893 48.118 150.546 47.722 150.913 46.93H154.917C154.711 47.7367 154.337 48.4627 153.795 49.108C153.267 49.7533 152.599 50.2593 151.793 50.626C150.986 50.9927 150.084 51.176 149.087 51.176C147.884 51.176 146.813 50.9193 145.875 50.406C144.936 49.8927 144.203 49.1593 143.675 48.206C143.147 47.2527 142.883 46.138 142.883 44.862C142.883 43.586 143.139 42.4713 143.653 41.518C144.181 40.5647 144.914 39.8313 145.853 39.318C146.791 38.8047 147.869 38.548 149.087 38.548C150.275 38.548 151.331 38.7973 152.255 39.296C153.179 39.7947 153.897 40.506 154.411 41.43C154.939 42.354 155.203 43.432 155.203 44.664ZM151.353 43.674C151.353 43.0287 151.133 42.5153 150.693 42.134C150.253 41.7527 149.703 41.562 149.043 41.562C148.412 41.562 147.877 41.7453 147.437 42.112C147.011 42.4787 146.747 42.9993 146.645 43.674H151.353ZM156.439 44.84C156.439 43.5787 156.674 42.4713 157.143 41.518C157.627 40.5647 158.28 39.8313 159.101 39.318C159.923 38.8047 160.839 38.548 161.851 38.548C162.717 38.548 163.472 38.724 164.117 39.076C164.777 39.428 165.283 39.89 165.635 40.462V38.724H169.397V51H165.635V49.262C165.269 49.834 164.755 50.296 164.095 50.648C163.45 51 162.695 51.176 161.829 51.176C160.832 51.176 159.923 50.9193 159.101 50.406C158.28 49.878 157.627 49.1373 157.143 48.184C156.674 47.216 156.439 46.1013 156.439 44.84ZM165.635 44.862C165.635 43.9233 165.371 43.1827 164.843 42.64C164.33 42.0973 163.699 41.826 162.951 41.826C162.203 41.826 161.565 42.0973 161.037 42.64C160.524 43.168 160.267 43.9013 160.267 44.84C160.267 45.7787 160.524 46.5267 161.037 47.084C161.565 47.6267 162.203 47.898 162.951 47.898C163.699 47.898 164.33 47.6267 164.843 47.084C165.371 46.5413 165.635 45.8007 165.635 44.862ZM179.599 38.592C181.036 38.592 182.18 39.0613 183.031 40C183.896 40.924 184.329 42.2 184.329 43.828V51H180.589V44.334C180.589 43.5127 180.376 42.8747 179.951 42.42C179.526 41.9653 178.954 41.738 178.235 41.738C177.516 41.738 176.944 41.9653 176.519 42.42C176.094 42.8747 175.881 43.5127 175.881 44.334V51H172.119V38.724H175.881V40.352C176.262 39.8093 176.776 39.384 177.421 39.076C178.066 38.7533 178.792 38.592 179.599 38.592ZM190.857 44.862C190.857 43.586 191.114 42.4713 191.627 41.518C192.155 40.5647 192.881 39.8313 193.805 39.318C194.744 38.8047 195.815 38.548 197.017 38.548C198.557 38.548 199.841 38.9513 200.867 39.758C201.909 40.5647 202.591 41.7013 202.913 43.168H198.909C198.572 42.2293 197.919 41.76 196.951 41.76C196.262 41.76 195.712 42.0313 195.301 42.574C194.891 43.102 194.685 43.8647 194.685 44.862C194.685 45.8593 194.891 46.6293 195.301 47.172C195.712 47.7 196.262 47.964 196.951 47.964C197.919 47.964 198.572 47.4947 198.909 46.556H202.913C202.591 47.9933 201.909 49.1227 200.867 49.944C199.826 50.7653 198.543 51.176 197.017 51.176C195.815 51.176 194.744 50.9193 193.805 50.406C192.881 49.8927 192.155 49.1593 191.627 48.206C191.114 47.2527 190.857 46.138 190.857 44.862ZM204.178 44.84C204.178 43.5787 204.412 42.4713 204.882 41.518C205.366 40.5647 206.018 39.8313 206.84 39.318C207.661 38.8047 208.578 38.548 209.59 38.548C210.455 38.548 211.21 38.724 211.856 39.076C212.516 39.428 213.022 39.89 213.374 40.462V38.724H217.136V51H213.374V49.262C213.007 49.834 212.494 50.296 211.834 50.648C211.188 51 210.433 51.176 209.568 51.176C208.57 51.176 207.661 50.9193 206.84 50.406C206.018 49.878 205.366 49.1373 204.882 48.184C204.412 47.216 204.178 46.1013 204.178 44.84ZM213.374 44.862C213.374 43.9233 213.11 43.1827 212.582 42.64C212.068 42.0973 211.438 41.826 210.69 41.826C209.942 41.826 209.304 42.0973 208.776 42.64C208.262 43.168 208.006 43.9013 208.006 44.84C208.006 45.7787 208.262 46.5267 208.776 47.084C209.304 47.6267 209.942 47.898 210.69 47.898C211.438 47.898 212.068 47.6267 212.582 47.084C213.11 46.5413 213.374 45.8007 213.374 44.862ZM224.851 51.176C223.78 51.176 222.827 50.9927 221.991 50.626C221.155 50.2593 220.495 49.7607 220.011 49.13C219.527 48.4847 219.256 47.766 219.197 46.974H222.915C222.959 47.3993 223.157 47.744 223.509 48.008C223.861 48.272 224.294 48.404 224.807 48.404C225.276 48.404 225.636 48.316 225.885 48.14C226.149 47.9493 226.281 47.7073 226.281 47.414C226.281 47.062 226.098 46.8053 225.731 46.644C225.364 46.468 224.77 46.2773 223.949 46.072C223.069 45.8667 222.336 45.654 221.749 45.434C221.162 45.1993 220.656 44.84 220.231 44.356C219.806 43.8573 219.593 43.19 219.593 42.354C219.593 41.65 219.784 41.012 220.165 40.44C220.561 39.8533 221.133 39.3913 221.881 39.054C222.644 38.7167 223.546 38.548 224.587 38.548C226.127 38.548 227.337 38.9293 228.217 39.692C229.112 40.4547 229.625 41.4667 229.757 42.728H226.281C226.222 42.3027 226.032 41.9653 225.709 41.716C225.401 41.4667 224.99 41.342 224.477 41.342C224.037 41.342 223.7 41.43 223.465 41.606C223.23 41.7673 223.113 41.9947 223.113 42.288C223.113 42.64 223.296 42.904 223.663 43.08C224.044 43.256 224.631 43.432 225.423 43.608C226.332 43.8427 227.073 44.0773 227.645 44.312C228.217 44.532 228.716 44.8987 229.141 45.412C229.581 45.9107 229.808 46.5853 229.823 47.436C229.823 48.1547 229.618 48.8 229.207 49.372C228.811 49.9293 228.232 50.3693 227.469 50.692C226.721 51.0147 225.848 51.176 224.851 51.176ZM238.967 47.81V51H237.053C235.689 51 234.625 50.67 233.863 50.01C233.1 49.3353 232.719 48.2427 232.719 46.732V41.848H231.223V38.724H232.719V35.732H236.481V38.724H238.945V41.848H236.481V46.776C236.481 47.1427 236.569 47.4067 236.745 47.568C236.921 47.7293 237.214 47.81 237.625 47.81H238.967ZM246.056 51.176C244.986 51.176 244.032 50.9927 243.196 50.626C242.36 50.2593 241.7 49.7607 241.216 49.13C240.732 48.4847 240.461 47.766 240.402 46.974H244.12C244.164 47.3993 244.362 47.744 244.714 48.008C245.066 48.272 245.499 48.404 246.012 48.404C246.482 48.404 246.841 48.316 247.09 48.14C247.354 47.9493 247.486 47.7073 247.486 47.414C247.486 47.062 247.303 46.8053 246.936 46.644C246.57 46.468 245.976 46.2773 245.154 46.072C244.274 45.8667 243.541 45.654 242.954 45.434C242.368 45.1993 241.862 44.84 241.436 44.356C241.011 43.8573 240.798 43.19 240.798 42.354C240.798 41.65 240.989 41.012 241.37 40.44C241.766 39.8533 242.338 39.3913 243.086 39.054C243.849 38.7167 244.751 38.548 245.792 38.548C247.332 38.548 248.542 38.9293 249.422 39.692C250.317 40.4547 250.83 41.4667 250.962 42.728H247.486C247.428 42.3027 247.237 41.9653 246.914 41.716C246.606 41.4667 246.196 41.342 245.682 41.342C245.242 41.342 244.905 41.43 244.67 41.606C244.436 41.7673 244.318 41.9947 244.318 42.288C244.318 42.64 244.502 42.904 244.868 43.08C245.25 43.256 245.836 43.432 246.628 43.608C247.538 43.8427 248.278 44.0773 248.85 44.312C249.422 44.532 249.921 44.8987 250.346 45.412C250.786 45.9107 251.014 46.5853 251.028 47.436C251.028 48.1547 250.823 48.8 250.412 49.372C250.016 49.9293 249.437 50.3693 248.674 50.692C247.926 51.0147 247.054 51.176 246.056 51.176ZM257.244 44.84C257.244 43.5787 257.479 42.4713 257.948 41.518C258.432 40.5647 259.085 39.8313 259.906 39.318C260.727 38.8047 261.644 38.548 262.656 38.548C263.521 38.548 264.277 38.724 264.922 39.076C265.582 39.428 266.088 39.89 266.44 40.462V38.724H270.202V51H266.44V49.262C266.073 49.834 265.56 50.296 264.9 50.648C264.255 51 263.499 51.176 262.634 51.176C261.637 51.176 260.727 50.9193 259.906 50.406C259.085 49.878 258.432 49.1373 257.948 48.184C257.479 47.216 257.244 46.1013 257.244 44.84ZM266.44 44.862C266.44 43.9233 266.176 43.1827 265.648 42.64C265.135 42.0973 264.504 41.826 263.756 41.826C263.008 41.826 262.37 42.0973 261.842 42.64C261.329 43.168 261.072 43.9013 261.072 44.84C261.072 45.7787 261.329 46.5267 261.842 47.084C262.37 47.6267 263.008 47.898 263.756 47.898C264.504 47.898 265.135 47.6267 265.648 47.084C266.176 46.5413 266.44 45.8007 266.44 44.862ZM18.9723 71.724L15.6503 84H11.4923L9.55633 76.036L7.55433 84H3.41833L0.0743281 71.724H3.83633L5.57433 80.502L7.64233 71.724H11.6243L13.7143 80.458L15.4303 71.724H18.9723ZM19.659 77.84C19.659 76.5787 19.8936 75.4713 20.363 74.518C20.847 73.5647 21.4996 72.8313 22.321 72.318C23.1423 71.8047 24.059 71.548 25.071 71.548C25.9363 71.548 26.6916 71.724 27.337 72.076C27.997 72.428 28.503 72.89 28.855 73.462V71.724H32.617V84H28.855V82.262C28.4883 82.834 27.975 83.296 27.315 83.648C26.6696 84 25.9143 84.176 25.049 84.176C24.0516 84.176 23.1423 83.9193 22.321 83.406C21.4996 82.878 20.847 82.1373 20.363 81.184C19.8936 80.216 19.659 79.1013 19.659 77.84ZM28.855 77.862C28.855 76.9233 28.591 76.1827 28.063 75.64C27.5496 75.0973 26.919 74.826 26.171 74.826C25.423 74.826 24.785 75.0973 24.257 75.64C23.7436 76.168 23.487 76.9013 23.487 77.84C23.487 78.7787 23.7436 79.5267 24.257 80.084C24.785 80.6267 25.423 80.898 26.171 80.898C26.919 80.898 27.5496 80.6267 28.063 80.084C28.591 79.5413 28.855 78.8007 28.855 77.862ZM39.1006 73.77C39.5406 73.0953 40.0906 72.5673 40.7506 72.186C41.4106 71.79 42.1439 71.592 42.9506 71.592V75.574H41.9166C40.9779 75.574 40.2739 75.7793 39.8046 76.19C39.3353 76.586 39.1006 77.29 39.1006 78.302V84H35.3386V71.724H39.1006V73.77ZM60.4128 71.592C61.9381 71.592 63.1481 72.054 64.0428 72.978C64.9521 73.902 65.4068 75.1853 65.4068 76.828V84H61.6668V77.334C61.6668 76.542 61.4541 75.9333 61.0288 75.508C60.6181 75.068 60.0461 74.848 59.3128 74.848C58.5794 74.848 58.0001 75.068 57.5748 75.508C57.1641 75.9333 56.9588 76.542 56.9588 77.334V84H53.2188V77.334C53.2188 76.542 53.0061 75.9333 52.5808 75.508C52.1701 75.068 51.5981 74.848 50.8648 74.848C50.1314 74.848 49.5521 75.068 49.1268 75.508C48.7161 75.9333 48.5108 76.542 48.5108 77.334V84H44.7488V71.724H48.5108V73.264C48.8921 72.7507 49.3908 72.3473 50.0068 72.054C50.6228 71.746 51.3194 71.592 52.0968 71.592C53.0208 71.592 53.8421 71.79 54.5608 72.186C55.2941 72.582 55.8661 73.1467 56.2768 73.88C56.7021 73.2053 57.2814 72.6553 58.0148 72.23C58.7481 71.8047 59.5474 71.592 60.4128 71.592ZM72.0858 80.524L69.6438 86.838H67.2458L68.5218 80.524H72.0858ZM83.6803 71.548C84.5457 71.548 85.301 71.724 85.9463 72.076C86.6063 72.428 87.1123 72.89 87.4643 73.462V71.724H91.2263V83.978C91.2263 85.1073 90.999 86.1267 90.5443 87.036C90.1043 87.96 89.4223 88.6933 88.4983 89.236C87.589 89.7787 86.4523 90.05 85.0883 90.05C83.2697 90.05 81.7957 89.6173 80.6663 88.752C79.537 87.9013 78.8917 86.7427 78.7303 85.276H82.4483C82.5657 85.7453 82.8443 86.112 83.2843 86.376C83.7243 86.6547 84.267 86.794 84.9123 86.794C85.6897 86.794 86.3057 86.5667 86.7603 86.112C87.2297 85.672 87.4643 84.9607 87.4643 83.978V82.24C87.0977 82.812 86.5917 83.2813 85.9463 83.648C85.301 84 84.5457 84.176 83.6803 84.176C82.6683 84.176 81.7517 83.9193 80.9303 83.406C80.109 82.878 79.4563 82.1373 78.9723 81.184C78.503 80.216 78.2683 79.1013 78.2683 77.84C78.2683 76.5787 78.503 75.4713 78.9723 74.518C79.4563 73.5647 80.109 72.8313 80.9303 72.318C81.7517 71.8047 82.6683 71.548 83.6803 71.548ZM87.4643 77.862C87.4643 76.9233 87.2003 76.1827 86.6723 75.64C86.159 75.0973 85.5283 74.826 84.7803 74.826C84.0323 74.826 83.3943 75.0973 82.8663 75.64C82.353 76.168 82.0963 76.9013 82.0963 77.84C82.0963 78.7787 82.353 79.5267 82.8663 80.084C83.3943 80.6267 84.0323 80.898 84.7803 80.898C85.5283 80.898 86.159 80.6267 86.6723 80.084C87.2003 79.5413 87.4643 78.8007 87.4643 77.862ZM99.536 84.176C98.3333 84.176 97.248 83.9193 96.28 83.406C95.3267 82.8927 94.5713 82.1593 94.014 81.206C93.4713 80.2527 93.2 79.138 93.2 77.862C93.2 76.6007 93.4787 75.4933 94.036 74.54C94.5933 73.572 95.356 72.8313 96.324 72.318C97.292 71.8047 98.3773 71.548 99.58 71.548C100.783 71.548 101.868 71.8047 102.836 72.318C103.804 72.8313 104.567 73.572 105.124 74.54C105.681 75.4933 105.96 76.6007 105.96 77.862C105.96 79.1233 105.674 80.238 105.102 81.206C104.545 82.1593 103.775 82.8927 102.792 83.406C101.824 83.9193 100.739 84.176 99.536 84.176ZM99.536 80.92C100.255 80.92 100.863 80.656 101.362 80.128C101.875 79.6 102.132 78.8447 102.132 77.862C102.132 76.8793 101.883 76.124 101.384 75.596C100.9 75.068 100.299 74.804 99.58 74.804C98.8467 74.804 98.238 75.068 97.754 75.596C97.27 76.1093 97.028 76.8647 97.028 77.862C97.028 78.8447 97.2627 79.6 97.732 80.128C98.216 80.656 98.8173 80.92 99.536 80.92ZM111.718 67.72V84H107.956V67.72H111.718ZM113.696 77.84C113.696 76.5787 113.931 75.4713 114.4 74.518C114.884 73.5647 115.537 72.8313 116.358 72.318C117.179 71.8047 118.096 71.548 119.108 71.548C119.915 71.548 120.648 71.7167 121.308 72.054C121.983 72.3913 122.511 72.846 122.892 73.418V67.72H126.654V84H122.892V82.24C122.54 82.8267 122.034 83.296 121.374 83.648C120.729 84 119.973 84.176 119.108 84.176C118.096 84.176 117.179 83.9193 116.358 83.406C115.537 82.878 114.884 82.1373 114.4 81.184C113.931 80.216 113.696 79.1013 113.696 77.84ZM122.892 77.862C122.892 76.9233 122.628 76.1827 122.1 75.64C121.587 75.0973 120.956 74.826 120.208 74.826C119.46 74.826 118.822 75.0973 118.294 75.64C117.781 76.168 117.524 76.9013 117.524 77.84C117.524 78.7787 117.781 79.5267 118.294 80.084C118.822 80.6267 119.46 80.898 120.208 80.898C120.956 80.898 121.587 80.6267 122.1 80.084C122.628 79.5413 122.892 78.8007 122.892 77.862ZM140.948 77.664C140.948 78.016 140.926 78.3827 140.882 78.764H132.368C132.426 79.5267 132.668 80.1133 133.094 80.524C133.534 80.92 134.069 81.118 134.7 81.118C135.638 81.118 136.291 80.722 136.658 79.93H140.662C140.456 80.7367 140.082 81.4627 139.54 82.108C139.012 82.7533 138.344 83.2593 137.538 83.626C136.731 83.9927 135.829 84.176 134.832 84.176C133.629 84.176 132.558 83.9193 131.62 83.406C130.681 82.8927 129.948 82.1593 129.42 81.206C128.892 80.2527 128.628 79.138 128.628 77.862C128.628 76.586 128.884 75.4713 129.398 74.518C129.926 73.5647 130.659 72.8313 131.598 72.318C132.536 71.8047 133.614 71.548 134.832 71.548C136.02 71.548 137.076 71.7973 138 72.296C138.924 72.7947 139.642 73.506 140.156 74.43C140.684 75.354 140.948 76.432 140.948 77.664ZM137.098 76.674C137.098 76.0287 136.878 75.5153 136.438 75.134C135.998 74.7527 135.448 74.562 134.788 74.562C134.157 74.562 133.622 74.7453 133.182 75.112C132.756 75.4787 132.492 75.9993 132.39 76.674H137.098ZM150.412 71.592C151.85 71.592 152.994 72.0613 153.844 73C154.71 73.924 155.142 75.2 155.142 76.828V84H151.402V77.334C151.402 76.5127 151.19 75.8747 150.764 75.42C150.339 74.9653 149.767 74.738 149.048 74.738C148.33 74.738 147.758 74.9653 147.332 75.42C146.907 75.8747 146.694 76.5127 146.694 77.334V84H142.932V71.724H146.694V73.352C147.076 72.8093 147.589 72.384 148.234 72.076C148.88 71.7533 149.606 71.592 150.412 71.592ZM167.083 71.548C167.948 71.548 168.703 71.724 169.349 72.076C170.009 72.428 170.515 72.89 170.867 73.462V71.724H174.629V83.978C174.629 85.1073 174.401 86.1267 173.947 87.036C173.507 87.96 172.825 88.6933 171.901 89.236C170.991 89.7787 169.855 90.05 168.491 90.05C166.672 90.05 165.198 89.6173 164.069 88.752C162.939 87.9013 162.294 86.7427 162.133 85.276H165.851C165.968 85.7453 166.247 86.112 166.687 86.376C167.127 86.6547 167.669 86.794 168.315 86.794C169.092 86.794 169.708 86.5667 170.163 86.112C170.632 85.672 170.867 84.9607 170.867 83.978V82.24C170.5 82.812 169.994 83.2813 169.349 83.648C168.703 84 167.948 84.176 167.083 84.176C166.071 84.176 165.154 83.9193 164.333 83.406C163.511 82.878 162.859 82.1373 162.375 81.184C161.905 80.216 161.671 79.1013 161.671 77.84C161.671 76.5787 161.905 75.4713 162.375 74.518C162.859 73.5647 163.511 72.8313 164.333 72.318C165.154 71.8047 166.071 71.548 167.083 71.548ZM170.867 77.862C170.867 76.9233 170.603 76.1827 170.075 75.64C169.561 75.0973 168.931 74.826 168.183 74.826C167.435 74.826 166.797 75.0973 166.269 75.64C165.755 76.168 165.499 76.9013 165.499 77.84C165.499 78.7787 165.755 79.5267 166.269 80.084C166.797 80.6267 167.435 80.898 168.183 80.898C168.931 80.898 169.561 80.6267 170.075 80.084C170.603 79.5413 170.867 78.8007 170.867 77.862ZM181.112 67.72V84H177.35V67.72H181.112ZM189.427 84.176C188.224 84.176 187.139 83.9193 186.171 83.406C185.217 82.8927 184.462 82.1593 183.905 81.206C183.362 80.2527 183.091 79.138 183.091 77.862C183.091 76.6007 183.369 75.4933 183.927 74.54C184.484 73.572 185.247 72.8313 186.215 72.318C187.183 71.8047 188.268 71.548 189.471 71.548C190.673 71.548 191.759 71.8047 192.727 72.318C193.695 72.8313 194.457 73.572 195.015 74.54C195.572 75.4933 195.851 76.6007 195.851 77.862C195.851 79.1233 195.565 80.238 194.993 81.206C194.435 82.1593 193.665 82.8927 192.683 83.406C191.715 83.9193 190.629 84.176 189.427 84.176ZM189.427 80.92C190.145 80.92 190.754 80.656 191.253 80.128C191.766 79.6 192.023 78.8447 192.023 77.862C192.023 76.8793 191.773 76.124 191.275 75.596C190.791 75.068 190.189 74.804 189.471 74.804C188.737 74.804 188.129 75.068 187.645 75.596C187.161 76.1093 186.919 76.8647 186.919 77.862C186.919 78.8447 187.153 79.6 187.623 80.128C188.107 80.656 188.708 80.92 189.427 80.92ZM215.468 71.724L212.146 84H207.988L206.052 76.036L204.05 84H199.914L196.57 71.724H200.332L202.07 80.502L204.138 71.724H208.12L210.21 80.458L211.926 71.724H215.468ZM227.153 84.176C225.951 84.176 224.865 83.9193 223.897 83.406C222.944 82.8927 222.189 82.1593 221.631 81.206C221.089 80.2527 220.817 79.138 220.817 77.862C220.817 76.6007 221.096 75.4933 221.653 74.54C222.211 73.572 222.973 72.8313 223.941 72.318C224.909 71.8047 225.995 71.548 227.197 71.548C228.4 71.548 229.485 71.8047 230.453 72.318C231.421 72.8313 232.184 73.572 232.741 74.54C233.299 75.4933 233.577 76.6007 233.577 77.862C233.577 79.1233 233.291 80.238 232.719 81.206C232.162 82.1593 231.392 82.8927 230.409 83.406C229.441 83.9193 228.356 84.176 227.153 84.176ZM227.153 80.92C227.872 80.92 228.481 80.656 228.979 80.128C229.493 79.6 229.749 78.8447 229.749 77.862C229.749 76.8793 229.5 76.124 229.001 75.596C228.517 75.068 227.916 74.804 227.197 74.804C226.464 74.804 225.855 75.068 225.371 75.596C224.887 76.1093 224.645 76.8647 224.645 77.862C224.645 78.8447 224.88 79.6 225.349 80.128C225.833 80.656 226.435 80.92 227.153 80.92ZM243.053 71.592C244.49 71.592 245.634 72.0613 246.485 73C247.35 73.924 247.783 75.2 247.783 76.828V84H244.043V77.334C244.043 76.5127 243.83 75.8747 243.405 75.42C242.98 74.9653 242.408 74.738 241.689 74.738C240.97 74.738 240.398 74.9653 239.973 75.42C239.548 75.8747 239.335 76.5127 239.335 77.334V84H235.573V71.724H239.335V73.352C239.716 72.8093 240.23 72.384 240.875 72.076C241.52 71.7533 242.246 71.592 243.053 71.592ZM261.901 80.81V84H259.987C258.623 84 257.56 83.67 256.797 83.01C256.035 82.3353 255.653 81.2427 255.653 79.732V74.848H254.157V71.724H255.653V68.732H259.415V71.724H261.879V74.848H259.415V79.776C259.415 80.1427 259.503 80.4067 259.679 80.568C259.855 80.7293 260.149 80.81 260.559 80.81H261.901ZM271.543 71.592C272.951 71.592 274.08 72.0613 274.931 73C275.781 73.924 276.207 75.2 276.207 76.828V84H272.467V77.334C272.467 76.5127 272.254 75.8747 271.829 75.42C271.403 74.9653 270.831 74.738 270.113 74.738C269.394 74.738 268.822 74.9653 268.397 75.42C267.971 75.8747 267.759 76.5127 267.759 77.334V84H263.997V67.72H267.759V73.374C268.14 72.8313 268.661 72.3987 269.321 72.076C269.981 71.7533 270.721 71.592 271.543 71.592ZM290.393 77.664C290.393 78.016 290.371 78.3827 290.327 78.764H281.813C281.872 79.5267 282.114 80.1133 282.539 80.524C282.979 80.92 283.514 81.118 284.145 81.118C285.084 81.118 285.736 80.722 286.103 79.93H290.107C289.902 80.7367 289.528 81.4627 288.985 82.108C288.457 82.7533 287.79 83.2593 286.983 83.626C286.176 83.9927 285.274 84.176 284.277 84.176C283.074 84.176 282.004 83.9193 281.065 83.406C280.126 82.8927 279.393 82.1593 278.865 81.206C278.337 80.2527 278.073 79.138 278.073 77.862C278.073 76.586 278.33 75.4713 278.843 74.518C279.371 73.5647 280.104 72.8313 281.043 72.318C281.982 71.8047 283.06 71.548 284.277 71.548C285.465 71.548 286.521 71.7973 287.445 72.296C288.369 72.7947 289.088 73.506 289.601 74.43C290.129 75.354 290.393 76.432 290.393 77.664ZM286.543 76.674C286.543 76.0287 286.323 75.5153 285.883 75.134C285.443 74.7527 284.893 74.562 284.233 74.562C283.602 74.562 283.067 74.7453 282.627 75.112C282.202 75.4787 281.938 75.9993 281.835 76.674H286.543ZM109.067 104.592C110.475 104.592 111.605 105.061 112.455 106C113.306 106.924 113.731 108.2 113.731 109.828V117H109.991V110.334C109.991 109.513 109.779 108.875 109.353 108.42C108.928 107.965 108.356 107.738 107.637 107.738C106.919 107.738 106.347 107.965 105.921 108.42C105.496 108.875 105.283 109.513 105.283 110.334V117H101.521V100.72H105.283V106.374C105.665 105.831 106.185 105.399 106.845 105.076C107.505 104.753 108.246 104.592 109.067 104.592ZM121.933 117.176C120.731 117.176 119.645 116.919 118.677 116.406C117.724 115.893 116.969 115.159 116.411 114.206C115.869 113.253 115.597 112.138 115.597 110.862C115.597 109.601 115.876 108.493 116.433 107.54C116.991 106.572 117.753 105.831 118.721 105.318C119.689 104.805 120.775 104.548 121.977 104.548C123.18 104.548 124.265 104.805 125.233 105.318C126.201 105.831 126.964 106.572 127.521 107.54C128.079 108.493 128.357 109.601 128.357 110.862C128.357 112.123 128.071 113.238 127.499 114.206C126.942 115.159 126.172 115.893 125.189 116.406C124.221 116.919 123.136 117.176 121.933 117.176ZM121.933 113.92C122.652 113.92 123.261 113.656 123.759 113.128C124.273 112.6 124.529 111.845 124.529 110.862C124.529 109.879 124.28 109.124 123.781 108.596C123.297 108.068 122.696 107.804 121.977 107.804C121.244 107.804 120.635 108.068 120.151 108.596C119.667 109.109 119.425 109.865 119.425 110.862C119.425 111.845 119.66 112.6 120.129 113.128C120.613 113.656 121.215 113.92 121.933 113.92ZM134.115 106.77C134.555 106.095 135.105 105.567 135.765 105.186C136.425 104.79 137.159 104.592 137.965 104.592V108.574H136.931C135.993 108.574 135.289 108.779 134.819 109.19C134.35 109.586 134.115 110.29 134.115 111.302V117H130.353V104.724H134.115V106.77ZM141.655 103.448C140.995 103.448 140.453 103.257 140.027 102.876C139.617 102.48 139.411 101.996 139.411 101.424C139.411 100.837 139.617 100.353 140.027 99.972C140.453 99.576 140.995 99.378 141.655 99.378C142.301 99.378 142.829 99.576 143.239 99.972C143.665 100.353 143.877 100.837 143.877 101.424C143.877 101.996 143.665 102.48 143.239 102.876C142.829 103.257 142.301 103.448 141.655 103.448ZM143.525 104.724V117H139.763V104.724H143.525ZM149.772 113.898H155.096V117H145.57V114.008L150.674 107.826H145.614V104.724H154.986V107.716L149.772 113.898ZM162.754 117.176C161.551 117.176 160.466 116.919 159.498 116.406C158.544 115.893 157.789 115.159 157.232 114.206C156.689 113.253 156.418 112.138 156.418 110.862C156.418 109.601 156.696 108.493 157.254 107.54C157.811 106.572 158.574 105.831 159.542 105.318C160.51 104.805 161.595 104.548 162.798 104.548C164 104.548 165.086 104.805 166.054 105.318C167.022 105.831 167.784 106.572 168.342 107.54C168.899 108.493 169.178 109.601 169.178 110.862C169.178 112.123 168.892 113.238 168.32 114.206C167.762 115.159 166.992 115.893 166.01 116.406C165.042 116.919 163.956 117.176 162.754 117.176ZM162.754 113.92C163.472 113.92 164.081 113.656 164.58 113.128C165.093 112.6 165.35 111.845 165.35 110.862C165.35 109.879 165.1 109.124 164.602 108.596C164.118 108.068 163.516 107.804 162.798 107.804C162.064 107.804 161.456 108.068 160.972 108.596C160.488 109.109 160.246 109.865 160.246 110.862C160.246 111.845 160.48 112.6 160.95 113.128C161.434 113.656 162.035 113.92 162.754 113.92ZM178.654 104.592C180.091 104.592 181.235 105.061 182.086 106C182.951 106.924 183.384 108.2 183.384 109.828V117H179.644V110.334C179.644 109.513 179.431 108.875 179.006 108.42C178.58 107.965 178.008 107.738 177.29 107.738C176.571 107.738 175.999 107.965 175.574 108.42C175.148 108.875 174.936 109.513 174.936 110.334V117H171.174V104.724H174.936V106.352C175.317 105.809 175.83 105.384 176.476 105.076C177.121 104.753 177.847 104.592 178.654 104.592ZM187.758 117.176C187.098 117.176 186.555 116.985 186.13 116.604C185.719 116.208 185.514 115.724 185.514 115.152C185.514 114.565 185.719 114.074 186.13 113.678C186.555 113.282 187.098 113.084 187.758 113.084C188.403 113.084 188.931 113.282 189.342 113.678C189.767 114.074 189.98 114.565 189.98 115.152C189.98 115.724 189.767 116.208 189.342 116.604C188.931 116.985 188.403 117.176 187.758 117.176Z" fill="white"/>
</svg>
