<svg width="54" height="50" viewBox="0 0 54 50" fill="none" xmlns="http://www.w3.org/2000/svg">
<path fill-rule="evenodd" clip-rule="evenodd" d="M3.85894 49.6012L52.1632 27.3854C53.5221 26.7604 54.1171 25.1521 53.4921 23.7932C53.222 23.2058 52.7506 22.7344 52.1632 22.4642L3.85894 0.248414C2.5 -0.376581 0.891706 0.218396 0.266711 1.57733C0.10398 1.93116 0.0194736 2.31593 0.0189549 2.70538L2.42912e-06 16.9353C-0.00165236 18.1778 0.842322 19.262 2.04721 19.5653L23.3386 24.9248L2.04721 30.2843C0.842322 30.5876 -0.00165236 31.6718 2.42912e-06 32.9143L0.0189549 47.1443C0.020947 48.64 1.23512 49.851 2.73089 49.849C3.12035 49.8485 3.50511 49.764 3.85894 49.6012Z" fill="#E56505"/>
</svg>
