<svg width="293" height="123" viewBox="0 0 293 123" fill="none" xmlns="http://www.w3.org/2000/svg">
<path d="M22.4051 2.556L18.3791 18H13.8251L11.3611 7.836L8.80906 18H4.25506L0.339063 2.556H4.36506L6.58706 13.798L9.33706 2.556H13.4731L16.1131 13.798L18.3571 2.556H22.4051ZM31.8377 5.592C33.2457 5.592 34.3751 6.06133 35.2257 7C36.0764 7.924 36.5017 9.2 36.5017 10.828V18H32.7617V11.334C32.7617 10.5127 32.5491 9.87467 32.1237 9.42C31.6984 8.96533 31.1264 8.738 30.4077 8.738C29.6891 8.738 29.1171 8.96533 28.6917 9.42C28.2664 9.87467 28.0537 10.5127 28.0537 11.334V18H24.2917V1.72H28.0537V7.374C28.4351 6.83133 28.9557 6.39867 29.6157 6.076C30.2757 5.75333 31.0164 5.592 31.8377 5.592ZM38.368 11.84C38.368 10.5787 38.6026 9.47133 39.072 8.518C39.556 7.56467 40.2086 6.83133 41.03 6.318C41.8513 5.80467 42.768 5.548 43.78 5.548C44.6453 5.548 45.4006 5.724 46.046 6.076C46.706 6.428 47.212 6.89 47.564 7.462V5.724H51.326V18H47.564V16.262C47.1973 16.834 46.684 17.296 46.024 17.648C45.3786 18 44.6233 18.176 43.758 18.176C42.7606 18.176 41.8513 17.9193 41.03 17.406C40.2086 16.878 39.556 16.1373 39.072 15.184C38.6026 14.216 38.368 13.1013 38.368 11.84ZM47.564 11.862C47.564 10.9233 47.3 10.1827 46.772 9.64C46.2586 9.09733 45.628 8.826 44.88 8.826C44.132 8.826 43.494 9.09733 42.966 9.64C42.4526 10.168 42.196 10.9013 42.196 11.84C42.196 12.7787 42.4526 13.5267 42.966 14.084C43.494 14.6267 44.132 14.898 44.88 14.898C45.628 14.898 46.2586 14.6267 46.772 14.084C47.3 13.5413 47.564 12.8007 47.564 11.862ZM60.8896 14.81V18H58.9756C57.6116 18 56.5483 17.67 55.7856 17.01C55.0229 16.3353 54.6416 15.2427 54.6416 13.732V8.848H53.1456V5.724H54.6416V2.732H58.4036V5.724H60.8676V8.848H58.4036V13.776C58.4036 14.1427 58.4916 14.4067 58.6676 14.568C58.8436 14.7293 59.1369 14.81 59.5476 14.81H60.8896ZM66.8992 11.84C66.8992 10.5787 67.1339 9.47133 67.6032 8.518C68.0872 7.56467 68.7399 6.83133 69.5612 6.318C70.3825 5.80467 71.2992 5.548 72.3112 5.548C73.1179 5.548 73.8512 5.71667 74.5112 6.054C75.1859 6.39133 75.7139 6.846 76.0952 7.418V1.72H79.8572V18H76.0952V16.24C75.7432 16.8267 75.2372 17.296 74.5772 17.648C73.9319 18 73.1765 18.176 72.3112 18.176C71.2992 18.176 70.3825 17.9193 69.5612 17.406C68.7399 16.878 68.0872 16.1373 67.6032 15.184C67.1339 14.216 66.8992 13.1013 66.8992 11.84ZM76.0952 11.862C76.0952 10.9233 75.8312 10.1827 75.3032 9.64C74.7899 9.09733 74.1592 8.826 73.4112 8.826C72.6632 8.826 72.0252 9.09733 71.4972 9.64C70.9839 10.168 70.7272 10.9013 70.7272 11.84C70.7272 12.7787 70.9839 13.5267 71.4972 14.084C72.0252 14.6267 72.6632 14.898 73.4112 14.898C74.1592 14.898 74.7899 14.6267 75.3032 14.084C75.8312 13.5413 76.0952 12.8007 76.0952 11.862ZM88.1668 18.176C86.9642 18.176 85.8788 17.9193 84.9108 17.406C83.9575 16.8927 83.2022 16.1593 82.6448 15.206C82.1022 14.2527 81.8308 13.138 81.8308 11.862C81.8308 10.6007 82.1095 9.49333 82.6668 8.54C83.2242 7.572 83.9868 6.83133 84.9548 6.318C85.9228 5.80467 87.0082 5.548 88.2108 5.548C89.4135 5.548 90.4988 5.80467 91.4668 6.318C92.4348 6.83133 93.1975 7.572 93.7548 8.54C94.3122 9.49333 94.5908 10.6007 94.5908 11.862C94.5908 13.1233 94.3048 14.238 93.7328 15.206C93.1755 16.1593 92.4055 16.8927 91.4228 17.406C90.4548 17.9193 89.3695 18.176 88.1668 18.176ZM88.1668 14.92C88.8855 14.92 89.4942 14.656 89.9928 14.128C90.5062 13.6 90.7628 12.8447 90.7628 11.862C90.7628 10.8793 90.5135 10.124 90.0148 9.596C89.5308 9.068 88.9295 8.804 88.2108 8.804C87.4775 8.804 86.8688 9.068 86.3848 9.596C85.9008 10.1093 85.6588 10.8647 85.6588 11.862C85.6588 12.8447 85.8935 13.6 86.3628 14.128C86.8468 14.656 87.4482 14.92 88.1668 14.92ZM108.159 11.664C108.159 12.016 108.137 12.3827 108.093 12.764H99.5787C99.6373 13.5267 99.8793 14.1133 100.305 14.524C100.745 14.92 101.28 15.118 101.911 15.118C102.849 15.118 103.502 14.722 103.869 13.93H107.873C107.667 14.7367 107.293 15.4627 106.751 16.108C106.223 16.7533 105.555 17.2593 104.749 17.626C103.942 17.9927 103.04 18.176 102.043 18.176C100.84 18.176 99.7693 17.9193 98.8307 17.406C97.892 16.8927 97.1587 16.1593 96.6307 15.206C96.1027 14.2527 95.8387 13.138 95.8387 11.862C95.8387 10.586 96.0953 9.47133 96.6087 8.518C97.1367 7.56467 97.87 6.83133 98.8087 6.318C99.7473 5.80467 100.825 5.548 102.043 5.548C103.231 5.548 104.287 5.79733 105.211 6.296C106.135 6.79467 106.853 7.506 107.367 8.43C107.895 9.354 108.159 10.432 108.159 11.664ZM104.309 10.674C104.309 10.0287 104.089 9.51533 103.649 9.134C103.209 8.75267 102.659 8.562 101.999 8.562C101.368 8.562 100.833 8.74533 100.393 9.112C99.9673 9.47867 99.7033 9.99933 99.6007 10.674H104.309ZM115.137 18.176C114.067 18.176 113.113 17.9927 112.277 17.626C111.441 17.2593 110.781 16.7607 110.297 16.13C109.813 15.4847 109.542 14.766 109.483 13.974H113.201C113.245 14.3993 113.443 14.744 113.795 15.008C114.147 15.272 114.58 15.404 115.093 15.404C115.563 15.404 115.922 15.316 116.171 15.14C116.435 14.9493 116.567 14.7073 116.567 14.414C116.567 14.062 116.384 13.8053 116.017 13.644C115.651 13.468 115.057 13.2773 114.235 13.072C113.355 12.8667 112.622 12.654 112.035 12.434C111.449 12.1993 110.943 11.84 110.517 11.356C110.092 10.8573 109.879 10.19 109.879 9.354C109.879 8.65 110.07 8.012 110.451 7.44C110.847 6.85333 111.419 6.39133 112.167 6.054C112.93 5.71667 113.832 5.548 114.873 5.548C116.413 5.548 117.623 5.92933 118.503 6.692C119.398 7.45467 119.911 8.46667 120.043 9.728H116.567C116.509 9.30267 116.318 8.96533 115.995 8.716C115.687 8.46667 115.277 8.342 114.763 8.342C114.323 8.342 113.986 8.43 113.751 8.606C113.517 8.76733 113.399 8.99467 113.399 9.288C113.399 9.64 113.583 9.904 113.949 10.08C114.331 10.256 114.917 10.432 115.709 10.608C116.619 10.8427 117.359 11.0773 117.931 11.312C118.503 11.532 119.002 11.8987 119.427 12.412C119.867 12.9107 120.095 13.5853 120.109 14.436C120.109 15.1547 119.904 15.8 119.493 16.372C119.097 16.9293 118.518 17.3693 117.755 17.692C117.007 18.0147 116.135 18.176 115.137 18.176ZM133.915 14.81V18H132.001C130.637 18 129.574 17.67 128.811 17.01C128.048 16.3353 127.667 15.2427 127.667 13.732V8.848H126.171V5.724H127.667V2.732H131.429V5.724H133.893V8.848H131.429V13.776C131.429 14.1427 131.517 14.4067 131.693 14.568C131.869 14.7293 132.162 14.81 132.573 14.81H133.915ZM143.556 5.592C144.964 5.592 146.094 6.06133 146.944 7C147.795 7.924 148.22 9.2 148.22 10.828V18H144.48V11.334C144.48 10.5127 144.268 9.87467 143.842 9.42C143.417 8.96533 142.845 8.738 142.126 8.738C141.408 8.738 140.836 8.96533 140.41 9.42C139.985 9.87467 139.772 10.5127 139.772 11.334V18H136.01V1.72H139.772V7.374C140.154 6.83133 140.674 6.39867 141.334 6.076C141.994 5.75333 142.735 5.592 143.556 5.592ZM162.407 11.664C162.407 12.016 162.385 12.3827 162.341 12.764H153.827C153.885 13.5267 154.127 14.1133 154.553 14.524C154.993 14.92 155.528 15.118 156.159 15.118C157.097 15.118 157.75 14.722 158.117 13.93H162.121C161.915 14.7367 161.541 15.4627 160.999 16.108C160.471 16.7533 159.803 17.2593 158.997 17.626C158.19 17.9927 157.288 18.176 156.291 18.176C155.088 18.176 154.017 17.9193 153.079 17.406C152.14 16.8927 151.407 16.1593 150.879 15.206C150.351 14.2527 150.087 13.138 150.087 11.862C150.087 10.586 150.343 9.47133 150.857 8.518C151.385 7.56467 152.118 6.83133 153.057 6.318C153.995 5.80467 155.073 5.548 156.291 5.548C157.479 5.548 158.535 5.79733 159.459 6.296C160.383 6.79467 161.101 7.506 161.615 8.43C162.143 9.354 162.407 10.432 162.407 11.664ZM158.557 10.674C158.557 10.0287 158.337 9.51533 157.897 9.134C157.457 8.75267 156.907 8.562 156.247 8.562C155.616 8.562 155.081 8.74533 154.641 9.112C154.215 9.47867 153.951 9.99933 153.849 10.674H158.557ZM174.047 18.176C172.977 18.176 172.023 17.9927 171.187 17.626C170.351 17.2593 169.691 16.7607 169.207 16.13C168.723 15.4847 168.452 14.766 168.393 13.974H172.111C172.155 14.3993 172.353 14.744 172.705 15.008C173.057 15.272 173.49 15.404 174.003 15.404C174.473 15.404 174.832 15.316 175.081 15.14C175.345 14.9493 175.477 14.7073 175.477 14.414C175.477 14.062 175.294 13.8053 174.927 13.644C174.561 13.468 173.967 13.2773 173.145 13.072C172.265 12.8667 171.532 12.654 170.945 12.434C170.359 12.1993 169.853 11.84 169.427 11.356C169.002 10.8573 168.789 10.19 168.789 9.354C168.789 8.65 168.98 8.012 169.361 7.44C169.757 6.85333 170.329 6.39133 171.077 6.054C171.84 5.71667 172.742 5.548 173.783 5.548C175.323 5.548 176.533 5.92933 177.413 6.692C178.308 7.45467 178.821 8.46667 178.953 9.728H175.477C175.419 9.30267 175.228 8.96533 174.905 8.716C174.597 8.46667 174.187 8.342 173.673 8.342C173.233 8.342 172.896 8.43 172.661 8.606C172.427 8.76733 172.309 8.99467 172.309 9.288C172.309 9.64 172.493 9.904 172.859 10.08C173.241 10.256 173.827 10.432 174.619 10.608C175.529 10.8427 176.269 11.0773 176.841 11.312C177.413 11.532 177.912 11.8987 178.337 12.412C178.777 12.9107 179.005 13.5853 179.019 14.436C179.019 15.1547 178.814 15.8 178.403 16.372C178.007 16.9293 177.428 17.3693 176.665 17.692C175.917 18.0147 175.045 18.176 174.047 18.176ZM192.893 11.664C192.893 12.016 192.871 12.3827 192.827 12.764H184.313C184.372 13.5267 184.614 14.1133 185.039 14.524C185.479 14.92 186.014 15.118 186.645 15.118C187.584 15.118 188.236 14.722 188.603 13.93H192.607C192.402 14.7367 192.028 15.4627 191.485 16.108C190.957 16.7533 190.29 17.2593 189.483 17.626C188.676 17.9927 187.774 18.176 186.777 18.176C185.574 18.176 184.504 17.9193 183.565 17.406C182.626 16.8927 181.893 16.1593 181.365 15.206C180.837 14.2527 180.573 13.138 180.573 11.862C180.573 10.586 180.83 9.47133 181.343 8.518C181.871 7.56467 182.604 6.83133 183.543 6.318C184.482 5.80467 185.56 5.548 186.777 5.548C187.965 5.548 189.021 5.79733 189.945 6.296C190.869 6.79467 191.588 7.506 192.101 8.43C192.629 9.354 192.893 10.432 192.893 11.664ZM189.043 10.674C189.043 10.0287 188.823 9.51533 188.383 9.134C187.943 8.75267 187.393 8.562 186.733 8.562C186.102 8.562 185.567 8.74533 185.127 9.112C184.702 9.47867 184.438 9.99933 184.335 10.674H189.043ZM201.72 14.81V18H199.806C198.442 18 197.378 17.67 196.616 17.01C195.853 16.3353 195.472 15.2427 195.472 13.732V8.848H193.976V5.724H195.472V2.732H199.234V5.724H201.698V8.848H199.234V13.776C199.234 14.1427 199.322 14.4067 199.498 14.568C199.674 14.7293 199.967 14.81 200.378 14.81H201.72ZM210.657 14.81V18H208.743C207.379 18 206.316 17.67 205.553 17.01C204.791 16.3353 204.409 15.2427 204.409 13.732V8.848H202.913V5.724H204.409V2.732H208.171V5.724H210.635V8.848H208.171V13.776C208.171 14.1427 208.259 14.4067 208.435 14.568C208.611 14.7293 208.905 14.81 209.315 14.81H210.657ZM214.645 4.448C213.985 4.448 213.442 4.25733 213.017 3.876C212.606 3.48 212.401 2.996 212.401 2.424C212.401 1.83733 212.606 1.35333 213.017 0.971999C213.442 0.575999 213.985 0.377999 214.645 0.377999C215.29 0.377999 215.818 0.575999 216.229 0.971999C216.654 1.35333 216.867 1.83733 216.867 2.424C216.867 2.996 216.654 3.48 216.229 3.876C215.818 4.25733 215.29 4.448 214.645 4.448ZM216.515 5.724V18H212.753V5.724H216.515ZM226.721 5.592C228.158 5.592 229.302 6.06133 230.153 7C231.018 7.924 231.451 9.2 231.451 10.828V18H227.711V11.334C227.711 10.5127 227.498 9.87467 227.073 9.42C226.648 8.96533 226.076 8.738 225.357 8.738C224.638 8.738 224.066 8.96533 223.641 9.42C223.216 9.87467 223.003 10.5127 223.003 11.334V18H219.241V5.724H223.003V7.352C223.384 6.80933 223.898 6.384 224.543 6.076C225.188 5.75333 225.914 5.592 226.721 5.592ZM238.729 5.548C239.595 5.548 240.35 5.724 240.995 6.076C241.655 6.428 242.161 6.89 242.513 7.462V5.724H246.275V17.978C246.275 19.1073 246.048 20.1267 245.593 21.036C245.153 21.96 244.471 22.6933 243.547 23.236C242.638 23.7787 241.501 24.05 240.137 24.05C238.319 24.05 236.845 23.6173 235.715 22.752C234.586 21.9013 233.941 20.7427 233.779 19.276H237.497C237.615 19.7453 237.893 20.112 238.333 20.376C238.773 20.6547 239.316 20.794 239.961 20.794C240.739 20.794 241.355 20.5667 241.809 20.112C242.279 19.672 242.513 18.9607 242.513 17.978V16.24C242.147 16.812 241.641 17.2813 240.995 17.648C240.35 18 239.595 18.176 238.729 18.176C237.717 18.176 236.801 17.9193 235.979 17.406C235.158 16.878 234.505 16.1373 234.021 15.184C233.552 14.216 233.317 13.1013 233.317 11.84C233.317 10.5787 233.552 9.47133 234.021 8.518C234.505 7.56467 235.158 6.83133 235.979 6.318C236.801 5.80467 237.717 5.548 238.729 5.548ZM242.513 11.862C242.513 10.9233 242.249 10.1827 241.721 9.64C241.208 9.09733 240.577 8.826 239.829 8.826C239.081 8.826 238.443 9.09733 237.915 9.64C237.402 10.168 237.145 10.9013 237.145 11.84C237.145 12.7787 237.402 13.5267 237.915 14.084C238.443 14.6267 239.081 14.898 239.829 14.898C240.577 14.898 241.208 14.6267 241.721 14.084C242.249 13.5413 242.513 12.8007 242.513 11.862ZM258.653 18.176C257.582 18.176 256.629 17.9927 255.793 17.626C254.957 17.2593 254.297 16.7607 253.813 16.13C253.329 15.4847 253.058 14.766 252.999 13.974H256.717C256.761 14.3993 256.959 14.744 257.311 15.008C257.663 15.272 258.096 15.404 258.609 15.404C259.078 15.404 259.438 15.316 259.687 15.14C259.951 14.9493 260.083 14.7073 260.083 14.414C260.083 14.062 259.9 13.8053 259.533 13.644C259.166 13.468 258.572 13.2773 257.751 13.072C256.871 12.8667 256.138 12.654 255.551 12.434C254.964 12.1993 254.458 11.84 254.033 11.356C253.608 10.8573 253.395 10.19 253.395 9.354C253.395 8.65 253.586 8.012 253.967 7.44C254.363 6.85333 254.935 6.39133 255.683 6.054C256.446 5.71667 257.348 5.548 258.389 5.548C259.929 5.548 261.139 5.92933 262.019 6.692C262.914 7.45467 263.427 8.46667 263.559 9.728H260.083C260.024 9.30267 259.834 8.96533 259.511 8.716C259.203 8.46667 258.792 8.342 258.279 8.342C257.839 8.342 257.502 8.43 257.267 8.606C257.032 8.76733 256.915 8.99467 256.915 9.288C256.915 9.64 257.098 9.904 257.465 10.08C257.846 10.256 258.433 10.432 259.225 10.608C260.134 10.8427 260.875 11.0773 261.447 11.312C262.019 11.532 262.518 11.8987 262.943 12.412C263.383 12.9107 263.61 13.5853 263.625 14.436C263.625 15.1547 263.42 15.8 263.009 16.372C262.613 16.9293 262.034 17.3693 261.271 17.692C260.523 18.0147 259.65 18.176 258.653 18.176ZM278.049 5.724V18H274.287V16.328C273.905 16.8707 273.385 17.3107 272.725 17.648C272.079 17.9707 271.361 18.132 270.569 18.132C269.63 18.132 268.801 17.9267 268.083 17.516C267.364 17.0907 266.807 16.482 266.411 15.69C266.015 14.898 265.817 13.9667 265.817 12.896V5.724H269.557V12.39C269.557 13.2113 269.769 13.8493 270.195 14.304C270.62 14.7587 271.192 14.986 271.911 14.986C272.644 14.986 273.223 14.7587 273.649 14.304C274.074 13.8493 274.287 13.2113 274.287 12.39V5.724H278.049ZM288.231 5.592C289.668 5.592 290.812 6.06133 291.663 7C292.528 7.924 292.961 9.2 292.961 10.828V18H289.221V11.334C289.221 10.5127 289.008 9.87467 288.583 9.42C288.157 8.96533 287.585 8.738 286.867 8.738C286.148 8.738 285.576 8.96533 285.151 9.42C284.725 9.87467 284.513 10.5127 284.513 11.334V18H280.751V5.724H284.513V7.352C284.894 6.80933 285.407 6.384 286.053 6.076C286.698 5.75333 287.424 5.592 288.231 5.592ZM16.8943 44.862C16.8943 43.586 17.151 42.4713 17.6643 41.518C18.1923 40.5647 18.9183 39.8313 19.8423 39.318C20.781 38.8047 21.8517 38.548 23.0543 38.548C24.5943 38.548 25.8777 38.9513 26.9043 39.758C27.9457 40.5647 28.6277 41.7013 28.9503 43.168H24.9463C24.609 42.2293 23.9563 41.76 22.9883 41.76C22.299 41.76 21.749 42.0313 21.3383 42.574C20.9277 43.102 20.7223 43.8647 20.7223 44.862C20.7223 45.8593 20.9277 46.6293 21.3383 47.172C21.749 47.7 22.299 47.964 22.9883 47.964C23.9563 47.964 24.609 47.4947 24.9463 46.556H28.9503C28.6277 47.9933 27.9457 49.1227 26.9043 49.944C25.863 50.7653 24.5797 51.176 23.0543 51.176C21.8517 51.176 20.781 50.9193 19.8423 50.406C18.9183 49.8927 18.1923 49.1593 17.6643 48.206C17.151 47.2527 16.8943 46.138 16.8943 44.862ZM30.2146 44.84C30.2146 43.5787 30.4493 42.4713 30.9186 41.518C31.4026 40.5647 32.0553 39.8313 32.8766 39.318C33.698 38.8047 34.6146 38.548 35.6266 38.548C36.492 38.548 37.2473 38.724 37.8926 39.076C38.5526 39.428 39.0586 39.89 39.4106 40.462V38.724H43.1726V51H39.4106V49.262C39.044 49.834 38.5306 50.296 37.8706 50.648C37.2253 51 36.47 51.176 35.6046 51.176C34.6073 51.176 33.698 50.9193 32.8766 50.406C32.0553 49.878 31.4026 49.1373 30.9186 48.184C30.4493 47.216 30.2146 46.1013 30.2146 44.84ZM39.4106 44.862C39.4106 43.9233 39.1466 43.1827 38.6186 42.64C38.1053 42.0973 37.4746 41.826 36.7266 41.826C35.9786 41.826 35.3406 42.0973 34.8126 42.64C34.2993 43.168 34.0426 43.9013 34.0426 44.84C34.0426 45.7787 34.2993 46.5267 34.8126 47.084C35.3406 47.6267 35.9786 47.898 36.7266 47.898C37.4746 47.898 38.1053 47.6267 38.6186 47.084C39.1466 46.5413 39.4106 45.8007 39.4106 44.862ZM50.8883 51.176C49.8176 51.176 48.8643 50.9927 48.0283 50.626C47.1923 50.2593 46.5323 49.7607 46.0483 49.13C45.5643 48.4847 45.2929 47.766 45.2343 46.974H48.9523C48.9963 47.3993 49.1943 47.744 49.5463 48.008C49.8983 48.272 50.3309 48.404 50.8443 48.404C51.3136 48.404 51.6729 48.316 51.9223 48.14C52.1863 47.9493 52.3183 47.7073 52.3183 47.414C52.3183 47.062 52.1349 46.8053 51.7683 46.644C51.4016 46.468 50.8076 46.2773 49.9863 46.072C49.1063 45.8667 48.3729 45.654 47.7863 45.434C47.1996 45.1993 46.6936 44.84 46.2683 44.356C45.8429 43.8573 45.6303 43.19 45.6303 42.354C45.6303 41.65 45.8209 41.012 46.2023 40.44C46.5983 39.8533 47.1703 39.3913 47.9183 39.054C48.6809 38.7167 49.5829 38.548 50.6243 38.548C52.1643 38.548 53.3743 38.9293 54.2543 39.692C55.1489 40.4547 55.6623 41.4667 55.7943 42.728H52.3183C52.2596 42.3027 52.0689 41.9653 51.7463 41.716C51.4383 41.4667 51.0276 41.342 50.5143 41.342C50.0743 41.342 49.7369 41.43 49.5023 41.606C49.2676 41.7673 49.1503 41.9947 49.1503 42.288C49.1503 42.64 49.3336 42.904 49.7003 43.08C50.0816 43.256 50.6683 43.432 51.4603 43.608C52.3696 43.8427 53.1103 44.0773 53.6823 44.312C54.2543 44.532 54.7529 44.8987 55.1783 45.412C55.6183 45.9107 55.8456 46.5853 55.8603 47.436C55.8603 48.1547 55.6549 48.8 55.2443 49.372C54.8483 49.9293 54.2689 50.3693 53.5063 50.692C52.7583 51.0147 51.8856 51.176 50.8883 51.176ZM65.0039 47.81V51H63.0899C61.7259 51 60.6625 50.67 59.8999 50.01C59.1372 49.3353 58.7559 48.2427 58.7559 46.732V41.848H57.2599V38.724H58.7559V35.732H62.5179V38.724H64.9819V41.848H62.5179V46.776C62.5179 47.1427 62.6059 47.4067 62.7819 47.568C62.9579 47.7293 63.2512 47.81 63.6619 47.81H65.0039ZM71.0135 44.84C71.0135 43.5787 71.2481 42.4713 71.7175 41.518C72.2015 40.5647 72.8541 39.8313 73.6755 39.318C74.4968 38.8047 75.4135 38.548 76.4255 38.548C77.2908 38.548 78.0461 38.724 78.6915 39.076C79.3515 39.428 79.8575 39.89 80.2095 40.462V38.724H83.9715V51H80.2095V49.262C79.8428 49.834 79.3295 50.296 78.6695 50.648C78.0241 51 77.2688 51.176 76.4035 51.176C75.4061 51.176 74.4968 50.9193 73.6755 50.406C72.8541 49.878 72.2015 49.1373 71.7175 48.184C71.2481 47.216 71.0135 46.1013 71.0135 44.84ZM80.2095 44.862C80.2095 43.9233 79.9455 43.1827 79.4175 42.64C78.9041 42.0973 78.2735 41.826 77.5255 41.826C76.7775 41.826 76.1395 42.0973 75.6115 42.64C75.0981 43.168 74.8415 43.9013 74.8415 44.84C74.8415 45.7787 75.0981 46.5267 75.6115 47.084C76.1395 47.6267 76.7775 47.898 77.5255 47.898C78.2735 47.898 78.9041 47.6267 79.4175 47.084C79.9455 46.5413 80.2095 45.8007 80.2095 44.862ZM85.9451 44.862C85.9451 43.586 86.2018 42.4713 86.7151 41.518C87.2431 40.5647 87.9691 39.8313 88.8931 39.318C89.8318 38.8047 90.9024 38.548 92.1051 38.548C93.6451 38.548 94.9284 38.9513 95.9551 39.758C96.9964 40.5647 97.6784 41.7013 98.0011 43.168H93.9971C93.6598 42.2293 93.0071 41.76 92.0391 41.76C91.3498 41.76 90.7998 42.0313 90.3891 42.574C89.9784 43.102 89.7731 43.8647 89.7731 44.862C89.7731 45.8593 89.9784 46.6293 90.3891 47.172C90.7998 47.7 91.3498 47.964 92.0391 47.964C93.0071 47.964 93.6598 47.4947 93.9971 46.556H98.0011C97.6784 47.9933 96.9964 49.1227 95.9551 49.944C94.9138 50.7653 93.6304 51.176 92.1051 51.176C90.9024 51.176 89.8318 50.9193 88.8931 50.406C87.9691 49.8927 87.2431 49.1593 86.7151 48.206C86.2018 47.2527 85.9451 46.138 85.9451 44.862ZM103.775 40.77C104.215 40.0953 104.765 39.5673 105.425 39.186C106.085 38.79 106.819 38.592 107.625 38.592V42.574H106.591C105.653 42.574 104.949 42.7793 104.479 43.19C104.01 43.586 103.775 44.29 103.775 45.302V51H100.013V38.724H103.775V40.77ZM115.012 51.176C113.809 51.176 112.724 50.9193 111.756 50.406C110.802 49.8927 110.047 49.1593 109.49 48.206C108.947 47.2527 108.676 46.138 108.676 44.862C108.676 43.6007 108.954 42.4933 109.512 41.54C110.069 40.572 110.832 39.8313 111.8 39.318C112.768 38.8047 113.853 38.548 115.056 38.548C116.258 38.548 117.344 38.8047 118.312 39.318C119.28 39.8313 120.042 40.572 120.6 41.54C121.157 42.4933 121.436 43.6007 121.436 44.862C121.436 46.1233 121.15 47.238 120.578 48.206C120.02 49.1593 119.25 49.8927 118.268 50.406C117.3 50.9193 116.214 51.176 115.012 51.176ZM115.012 47.92C115.73 47.92 116.339 47.656 116.838 47.128C117.351 46.6 117.608 45.8447 117.608 44.862C117.608 43.8793 117.358 43.124 116.86 42.596C116.376 42.068 115.774 41.804 115.056 41.804C114.322 41.804 113.714 42.068 113.23 42.596C112.746 43.1093 112.504 43.8647 112.504 44.862C112.504 45.8447 112.738 46.6 113.208 47.128C113.692 47.656 114.293 47.92 115.012 47.92ZM128.425 51.176C127.355 51.176 126.401 50.9927 125.565 50.626C124.729 50.2593 124.069 49.7607 123.585 49.13C123.101 48.4847 122.83 47.766 122.771 46.974H126.489C126.533 47.3993 126.731 47.744 127.083 48.008C127.435 48.272 127.868 48.404 128.381 48.404C128.851 48.404 129.21 48.316 129.459 48.14C129.723 47.9493 129.855 47.7073 129.855 47.414C129.855 47.062 129.672 46.8053 129.305 46.644C128.939 46.468 128.345 46.2773 127.523 46.072C126.643 45.8667 125.91 45.654 125.323 45.434C124.737 45.1993 124.231 44.84 123.805 44.356C123.38 43.8573 123.167 43.19 123.167 42.354C123.167 41.65 123.358 41.012 123.739 40.44C124.135 39.8533 124.707 39.3913 125.455 39.054C126.218 38.7167 127.12 38.548 128.161 38.548C129.701 38.548 130.911 38.9293 131.791 39.692C132.686 40.4547 133.199 41.4667 133.331 42.728H129.855C129.797 42.3027 129.606 41.9653 129.283 41.716C128.975 41.4667 128.565 41.342 128.051 41.342C127.611 41.342 127.274 41.43 127.039 41.606C126.805 41.7673 126.687 41.9947 126.687 42.288C126.687 42.64 126.871 42.904 127.237 43.08C127.619 43.256 128.205 43.432 128.997 43.608C129.907 43.8427 130.647 44.0773 131.219 44.312C131.791 44.532 132.29 44.8987 132.715 45.412C133.155 45.9107 133.383 46.5853 133.397 47.436C133.397 48.1547 133.192 48.8 132.781 49.372C132.385 49.9293 131.806 50.3693 131.043 50.692C130.295 51.0147 129.423 51.176 128.425 51.176ZM140.693 51.176C139.622 51.176 138.669 50.9927 137.833 50.626C136.997 50.2593 136.337 49.7607 135.853 49.13C135.369 48.4847 135.098 47.766 135.039 46.974H138.757C138.801 47.3993 138.999 47.744 139.351 48.008C139.703 48.272 140.136 48.404 140.649 48.404C141.118 48.404 141.478 48.316 141.727 48.14C141.991 47.9493 142.123 47.7073 142.123 47.414C142.123 47.062 141.94 46.8053 141.573 46.644C141.206 46.468 140.612 46.2773 139.791 46.072C138.911 45.8667 138.178 45.654 137.591 45.434C137.004 45.1993 136.498 44.84 136.073 44.356C135.648 43.8573 135.435 43.19 135.435 42.354C135.435 41.65 135.626 41.012 136.007 40.44C136.403 39.8533 136.975 39.3913 137.723 39.054C138.486 38.7167 139.388 38.548 140.429 38.548C141.969 38.548 143.179 38.9293 144.059 39.692C144.954 40.4547 145.467 41.4667 145.599 42.728H142.123C142.064 42.3027 141.874 41.9653 141.551 41.716C141.243 41.4667 140.832 41.342 140.319 41.342C139.879 41.342 139.542 41.43 139.307 41.606C139.072 41.7673 138.955 41.9947 138.955 42.288C138.955 42.64 139.138 42.904 139.505 43.08C139.886 43.256 140.473 43.432 141.265 43.608C142.174 43.8427 142.915 44.0773 143.487 44.312C144.059 44.532 144.558 44.8987 144.983 45.412C145.423 45.9107 145.65 46.5853 145.665 47.436C145.665 48.1547 145.46 48.8 145.049 49.372C144.653 49.9293 144.074 50.3693 143.311 50.692C142.563 51.0147 141.69 51.176 140.693 51.176ZM159.471 47.81V51H157.557C156.193 51 155.129 50.67 154.367 50.01C153.604 49.3353 153.223 48.2427 153.223 46.732V41.848H151.727V38.724H153.223V35.732H156.985V38.724H159.449V41.848H156.985V46.776C156.985 47.1427 157.073 47.4067 157.249 47.568C157.425 47.7293 157.718 47.81 158.129 47.81H159.471ZM169.112 38.592C170.52 38.592 171.649 39.0613 172.5 40C173.351 40.924 173.776 42.2 173.776 43.828V51H170.036V44.334C170.036 43.5127 169.823 42.8747 169.398 42.42C168.973 41.9653 168.401 41.738 167.682 41.738C166.963 41.738 166.391 41.9653 165.966 42.42C165.541 42.8747 165.328 43.5127 165.328 44.334V51H161.566V34.72H165.328V40.374C165.709 39.8313 166.23 39.3987 166.89 39.076C167.55 38.7533 168.291 38.592 169.112 38.592ZM187.962 44.664C187.962 45.016 187.94 45.3827 187.896 45.764H179.382C179.441 46.5267 179.683 47.1133 180.108 47.524C180.548 47.92 181.084 48.118 181.714 48.118C182.653 48.118 183.306 47.722 183.672 46.93H187.676C187.471 47.7367 187.097 48.4627 186.554 49.108C186.026 49.7533 185.359 50.2593 184.552 50.626C183.746 50.9927 182.844 51.176 181.846 51.176C180.644 51.176 179.573 50.9193 178.634 50.406C177.696 49.8927 176.962 49.1593 176.434 48.206C175.906 47.2527 175.642 46.138 175.642 44.862C175.642 43.586 175.899 42.4713 176.412 41.518C176.94 40.5647 177.674 39.8313 178.612 39.318C179.551 38.8047 180.629 38.548 181.846 38.548C183.034 38.548 184.09 38.7973 185.014 39.296C185.938 39.7947 186.657 40.506 187.17 41.43C187.698 42.354 187.962 43.432 187.962 44.664ZM184.112 43.674C184.112 43.0287 183.892 42.5153 183.452 42.134C183.012 41.7527 182.462 41.562 181.802 41.562C181.172 41.562 180.636 41.7453 180.196 42.112C179.771 42.4787 179.507 42.9993 179.404 43.674H184.112ZM202.155 38.592C203.563 38.592 204.692 39.0613 205.543 40C206.394 40.924 206.819 42.2 206.819 43.828V51H203.079V44.334C203.079 43.5127 202.866 42.8747 202.441 42.42C202.016 41.9653 201.444 41.738 200.725 41.738C200.006 41.738 199.434 41.9653 199.009 42.42C198.584 42.8747 198.371 43.5127 198.371 44.334V51H194.609V34.72H198.371V40.374C198.752 39.8313 199.273 39.3987 199.933 39.076C200.593 38.7533 201.334 38.592 202.155 38.592ZM215.021 51.176C213.819 51.176 212.733 50.9193 211.765 50.406C210.812 49.8927 210.057 49.1593 209.499 48.206C208.957 47.2527 208.685 46.138 208.685 44.862C208.685 43.6007 208.964 42.4933 209.521 41.54C210.079 40.572 210.841 39.8313 211.809 39.318C212.777 38.8047 213.863 38.548 215.065 38.548C216.268 38.548 217.353 38.8047 218.321 39.318C219.289 39.8313 220.052 40.572 220.609 41.54C221.167 42.4933 221.445 43.6007 221.445 44.862C221.445 46.1233 221.159 47.238 220.587 48.206C220.03 49.1593 219.26 49.8927 218.277 50.406C217.309 50.9193 216.224 51.176 215.021 51.176ZM215.021 47.92C215.74 47.92 216.349 47.656 216.847 47.128C217.361 46.6 217.617 45.8447 217.617 44.862C217.617 43.8793 217.368 43.124 216.869 42.596C216.385 42.068 215.784 41.804 215.065 41.804C214.332 41.804 213.723 42.068 213.239 42.596C212.755 43.1093 212.513 43.8647 212.513 44.862C212.513 45.8447 212.748 46.6 213.217 47.128C213.701 47.656 214.303 47.92 215.021 47.92ZM227.203 40.77C227.643 40.0953 228.193 39.5673 228.853 39.186C229.513 38.79 230.246 38.592 231.053 38.592V42.574H230.019C229.08 42.574 228.376 42.7793 227.907 43.19C227.438 43.586 227.203 44.29 227.203 45.302V51H223.441V38.724H227.203V40.77ZM234.743 37.448C234.083 37.448 233.541 37.2573 233.115 36.876C232.705 36.48 232.499 35.996 232.499 35.424C232.499 34.8373 232.705 34.3533 233.115 33.972C233.541 33.576 234.083 33.378 234.743 33.378C235.389 33.378 235.917 33.576 236.327 33.972C236.753 34.3533 236.965 34.8373 236.965 35.424C236.965 35.996 236.753 36.48 236.327 36.876C235.917 37.2573 235.389 37.448 234.743 37.448ZM236.613 38.724V51H232.851V38.724H236.613ZM242.86 47.898H248.184V51H238.658V48.008L243.762 41.826H238.702V38.724H248.074V41.716L242.86 47.898ZM255.842 51.176C254.639 51.176 253.554 50.9193 252.586 50.406C251.632 49.8927 250.877 49.1593 250.32 48.206C249.777 47.2527 249.506 46.138 249.506 44.862C249.506 43.6007 249.784 42.4933 250.342 41.54C250.899 40.572 251.662 39.8313 252.63 39.318C253.598 38.8047 254.683 38.548 255.886 38.548C257.088 38.548 258.174 38.8047 259.142 39.318C260.11 39.8313 260.872 40.572 261.43 41.54C261.987 42.4933 262.266 43.6007 262.266 44.862C262.266 46.1233 261.98 47.238 261.408 48.206C260.85 49.1593 260.08 49.8927 259.098 50.406C258.13 50.9193 257.044 51.176 255.842 51.176ZM255.842 47.92C256.56 47.92 257.169 47.656 257.668 47.128C258.181 46.6 258.438 45.8447 258.438 44.862C258.438 43.8793 258.188 43.124 257.69 42.596C257.206 42.068 256.604 41.804 255.886 41.804C255.152 41.804 254.544 42.068 254.06 42.596C253.576 43.1093 253.334 43.8647 253.334 44.862C253.334 45.8447 253.568 46.6 254.038 47.128C254.522 47.656 255.123 47.92 255.842 47.92ZM271.741 38.592C273.179 38.592 274.323 39.0613 275.173 40C276.039 40.924 276.471 42.2 276.471 43.828V51H272.731V44.334C272.731 43.5127 272.519 42.8747 272.093 42.42C271.668 41.9653 271.096 41.738 270.377 41.738C269.659 41.738 269.087 41.9653 268.661 42.42C268.236 42.8747 268.023 43.5127 268.023 44.334V51H264.261V38.724H268.023V40.352C268.405 39.8093 268.918 39.384 269.563 39.076C270.209 38.7533 270.935 38.592 271.741 38.592ZM50.2712 71.724L46.9492 84H42.7912L40.8552 76.036L38.8532 84H34.7172L31.3732 71.724H35.1352L36.8732 80.502L38.9412 71.724H42.9232L45.0132 80.458L46.7292 71.724H50.2712ZM59.2518 71.592C60.6598 71.592 61.7891 72.0613 62.6398 73C63.4905 73.924 63.9158 75.2 63.9158 76.828V84H60.1758V77.334C60.1758 76.5127 59.9631 75.8747 59.5378 75.42C59.1125 74.9653 58.5405 74.738 57.8218 74.738C57.1031 74.738 56.5311 74.9653 56.1058 75.42C55.6805 75.8747 55.4678 76.5127 55.4678 77.334V84H51.7058V67.72H55.4678V73.374C55.8491 72.8313 56.3698 72.3987 57.0298 72.076C57.6898 71.7533 58.4305 71.592 59.2518 71.592ZM78.102 77.664C78.102 78.016 78.08 78.3827 78.036 78.764H69.522C69.5807 79.5267 69.8227 80.1133 70.248 80.524C70.688 80.92 71.2233 81.118 71.854 81.118C72.7927 81.118 73.4453 80.722 73.812 79.93H77.816C77.6107 80.7367 77.2367 81.4627 76.694 82.108C76.166 82.7533 75.4987 83.2593 74.692 83.626C73.8853 83.9927 72.9833 84.176 71.986 84.176C70.7833 84.176 69.7127 83.9193 68.774 83.406C67.8353 82.8927 67.102 82.1593 66.574 81.206C66.046 80.2527 65.782 79.138 65.782 77.862C65.782 76.586 66.0387 75.4713 66.552 74.518C67.08 73.5647 67.8133 72.8313 68.752 72.318C69.6907 71.8047 70.7687 71.548 71.986 71.548C73.174 71.548 74.23 71.7973 75.154 72.296C76.078 72.7947 76.7967 73.506 77.31 74.43C77.838 75.354 78.102 76.432 78.102 77.664ZM74.252 76.674C74.252 76.0287 74.032 75.5153 73.592 75.134C73.152 74.7527 72.602 74.562 71.942 74.562C71.3113 74.562 70.776 74.7453 70.336 75.112C69.9107 75.4787 69.6467 75.9993 69.544 76.674H74.252ZM87.5667 71.592C89.004 71.592 90.148 72.0613 90.9987 73C91.864 73.924 92.2967 75.2 92.2967 76.828V84H88.5567V77.334C88.5567 76.5127 88.344 75.8747 87.9187 75.42C87.4933 74.9653 86.9213 74.738 86.2027 74.738C85.484 74.738 84.912 74.9653 84.4867 75.42C84.0613 75.8747 83.8487 76.5127 83.8487 77.334V84H80.0867V71.724H83.8487V73.352C84.23 72.8093 84.7433 72.384 85.3887 72.076C86.034 71.7533 86.76 71.592 87.5667 71.592ZM101.465 70.448C100.805 70.448 100.262 70.2573 99.837 69.876C99.4263 69.48 99.221 68.996 99.221 68.424C99.221 67.8373 99.4263 67.3533 99.837 66.972C100.262 66.576 100.805 66.378 101.465 66.378C102.11 66.378 102.638 66.576 103.049 66.972C103.474 67.3533 103.687 67.8373 103.687 68.424C103.687 68.996 103.474 69.48 103.049 69.876C102.638 70.2573 102.11 70.448 101.465 70.448ZM103.335 71.724V84H99.573V71.724H103.335ZM112.903 80.81V84H110.989C109.625 84 108.562 83.67 107.799 83.01C107.037 82.3353 106.655 81.2427 106.655 79.732V74.848H105.159V71.724H106.655V68.732H110.417V71.724H112.881V74.848H110.417V79.776C110.417 80.1427 110.505 80.4067 110.681 80.568C110.857 80.7293 111.151 80.81 111.561 80.81H112.903ZM124.655 84.176C123.584 84.176 122.631 83.9927 121.795 83.626C120.959 83.2593 120.299 82.7607 119.815 82.13C119.331 81.4847 119.06 80.766 119.001 79.974H122.719C122.763 80.3993 122.961 80.744 123.313 81.008C123.665 81.272 124.098 81.404 124.611 81.404C125.08 81.404 125.44 81.316 125.689 81.14C125.953 80.9493 126.085 80.7073 126.085 80.414C126.085 80.062 125.902 79.8053 125.535 79.644C125.168 79.468 124.574 79.2773 123.753 79.072C122.873 78.8667 122.14 78.654 121.553 78.434C120.966 78.1993 120.46 77.84 120.035 77.356C119.61 76.8573 119.397 76.19 119.397 75.354C119.397 74.65 119.588 74.012 119.969 73.44C120.365 72.8533 120.937 72.3913 121.685 72.054C122.448 71.7167 123.35 71.548 124.391 71.548C125.931 71.548 127.141 71.9293 128.021 72.692C128.916 73.4547 129.429 74.4667 129.561 75.728H126.085C126.026 75.3027 125.836 74.9653 125.513 74.716C125.205 74.4667 124.794 74.342 124.281 74.342C123.841 74.342 123.504 74.43 123.269 74.606C123.034 74.7673 122.917 74.9947 122.917 75.288C122.917 75.64 123.1 75.904 123.467 76.08C123.848 76.256 124.435 76.432 125.227 76.608C126.136 76.8427 126.877 77.0773 127.449 77.312C128.021 77.532 128.52 77.8987 128.945 78.412C129.385 78.9107 129.612 79.5853 129.627 80.436C129.627 81.1547 129.422 81.8 129.011 82.372C128.615 82.9293 128.036 83.3693 127.273 83.692C126.525 84.0147 125.652 84.176 124.655 84.176ZM143.5 77.664C143.5 78.016 143.478 78.3827 143.434 78.764H134.92C134.979 79.5267 135.221 80.1133 135.646 80.524C136.086 80.92 136.622 81.118 137.252 81.118C138.191 81.118 138.844 80.722 139.21 79.93H143.214C143.009 80.7367 142.635 81.4627 142.092 82.108C141.564 82.7533 140.897 83.2593 140.09 83.626C139.284 83.9927 138.382 84.176 137.384 84.176C136.182 84.176 135.111 83.9193 134.172 83.406C133.234 82.8927 132.5 82.1593 131.972 81.206C131.444 80.2527 131.18 79.138 131.18 77.862C131.18 76.586 131.437 75.4713 131.95 74.518C132.478 73.5647 133.212 72.8313 134.15 72.318C135.089 71.8047 136.167 71.548 137.384 71.548C138.572 71.548 139.628 71.7973 140.552 72.296C141.476 72.7947 142.195 73.506 142.708 74.43C143.236 75.354 143.5 76.432 143.5 77.664ZM139.65 76.674C139.65 76.0287 139.43 75.5153 138.99 75.134C138.55 74.7527 138 74.562 137.34 74.562C136.71 74.562 136.174 74.7453 135.734 75.112C135.309 75.4787 135.045 75.9993 134.942 76.674H139.65ZM152.327 80.81V84H150.413C149.049 84 147.986 83.67 147.223 83.01C146.46 82.3353 146.079 81.2427 146.079 79.732V74.848H144.583V71.724H146.079V68.732H149.841V71.724H152.305V74.848H149.841V79.776C149.841 80.1427 149.929 80.4067 150.105 80.568C150.281 80.7293 150.574 80.81 150.985 80.81H152.327ZM159.417 84.176C158.346 84.176 157.393 83.9927 156.557 83.626C155.721 83.2593 155.061 82.7607 154.577 82.13C154.093 81.4847 153.821 80.766 153.763 79.974H157.481C157.525 80.3993 157.723 80.744 158.075 81.008C158.427 81.272 158.859 81.404 159.373 81.404C159.842 81.404 160.201 81.316 160.451 81.14C160.715 80.9493 160.847 80.7073 160.847 80.414C160.847 80.062 160.663 79.8053 160.297 79.644C159.93 79.468 159.336 79.2773 158.515 79.072C157.635 78.8667 156.901 78.654 156.315 78.434C155.728 78.1993 155.222 77.84 154.797 77.356C154.371 76.8573 154.159 76.19 154.159 75.354C154.159 74.65 154.349 74.012 154.731 73.44C155.127 72.8533 155.699 72.3913 156.447 72.054C157.209 71.7167 158.111 71.548 159.153 71.548C160.693 71.548 161.903 71.9293 162.783 72.692C163.677 73.4547 164.191 74.4667 164.323 75.728H160.847C160.788 75.3027 160.597 74.9653 160.275 74.716C159.967 74.4667 159.556 74.342 159.043 74.342C158.603 74.342 158.265 74.43 158.031 74.606C157.796 74.7673 157.679 74.9947 157.679 75.288C157.679 75.64 157.862 75.904 158.229 76.08C158.61 76.256 159.197 76.432 159.989 76.608C160.898 76.8427 161.639 77.0773 162.211 77.312C162.783 77.532 163.281 77.8987 163.707 78.412C164.147 78.9107 164.374 79.5853 164.389 80.436C164.389 81.1547 164.183 81.8 163.773 82.372C163.377 82.9293 162.797 83.3693 162.035 83.692C161.287 84.0147 160.414 84.176 159.417 84.176ZM176.94 84.176C175.738 84.176 174.652 83.9193 173.684 83.406C172.731 82.8927 171.976 82.1593 171.418 81.206C170.876 80.2527 170.604 79.138 170.604 77.862C170.604 76.6007 170.883 75.4933 171.44 74.54C171.998 73.572 172.76 72.8313 173.728 72.318C174.696 71.8047 175.782 71.548 176.984 71.548C178.187 71.548 179.272 71.8047 180.24 72.318C181.208 72.8313 181.971 73.572 182.528 74.54C183.086 75.4933 183.364 76.6007 183.364 77.862C183.364 79.1233 183.078 80.238 182.506 81.206C181.949 82.1593 181.179 82.8927 180.196 83.406C179.228 83.9193 178.143 84.176 176.94 84.176ZM176.94 80.92C177.659 80.92 178.268 80.656 178.766 80.128C179.28 79.6 179.536 78.8447 179.536 77.862C179.536 76.8793 179.287 76.124 178.788 75.596C178.304 75.068 177.703 74.804 176.984 74.804C176.251 74.804 175.642 75.068 175.158 75.596C174.674 76.1093 174.432 76.8647 174.432 77.862C174.432 78.8447 174.667 79.6 175.136 80.128C175.62 80.656 176.222 80.92 176.94 80.92ZM190.882 80.48L193.544 71.724H197.548L193.192 84H188.55L184.194 71.724H188.22L190.882 80.48ZM210.704 77.664C210.704 78.016 210.682 78.3827 210.638 78.764H202.124C202.182 79.5267 202.424 80.1133 202.85 80.524C203.29 80.92 203.825 81.118 204.456 81.118C205.394 81.118 206.047 80.722 206.414 79.93H210.418C210.212 80.7367 209.838 81.4627 209.296 82.108C208.768 82.7533 208.1 83.2593 207.294 83.626C206.487 83.9927 205.585 84.176 204.588 84.176C203.385 84.176 202.314 83.9193 201.376 83.406C200.437 82.8927 199.704 82.1593 199.176 81.206C198.648 80.2527 198.384 79.138 198.384 77.862C198.384 76.586 198.64 75.4713 199.154 74.518C199.682 73.5647 200.415 72.8313 201.354 72.318C202.292 71.8047 203.37 71.548 204.588 71.548C205.776 71.548 206.832 71.7973 207.756 72.296C208.68 72.7947 209.398 73.506 209.912 74.43C210.44 75.354 210.704 76.432 210.704 77.664ZM206.854 76.674C206.854 76.0287 206.634 75.5153 206.194 75.134C205.754 74.7527 205.204 74.562 204.544 74.562C203.913 74.562 203.378 74.7453 202.938 75.112C202.512 75.4787 202.248 75.9993 202.146 76.674H206.854ZM216.45 73.77C216.89 73.0953 217.44 72.5673 218.1 72.186C218.76 71.79 219.494 71.592 220.3 71.592V75.574H219.266C218.328 75.574 217.624 75.7793 217.154 76.19C216.685 76.586 216.45 77.29 216.45 78.302V84H212.688V71.724H216.45V73.77ZM233.602 80.81V84H231.688C230.324 84 229.261 83.67 228.498 83.01C227.736 82.3353 227.354 81.2427 227.354 79.732V74.848H225.858V71.724H227.354V68.732H231.116V71.724H233.58V74.848H231.116V79.776C231.116 80.1427 231.204 80.4067 231.38 80.568C231.556 80.7293 231.85 80.81 232.26 80.81H233.602ZM243.244 71.592C244.652 71.592 245.781 72.0613 246.632 73C247.483 73.924 247.908 75.2 247.908 76.828V84H244.168V77.334C244.168 76.5127 243.955 75.8747 243.53 75.42C243.105 74.9653 242.533 74.738 241.814 74.738C241.095 74.738 240.523 74.9653 240.098 75.42C239.673 75.8747 239.46 76.5127 239.46 77.334V84H235.698V67.72H239.46V73.374C239.841 72.8313 240.362 72.3987 241.022 72.076C241.682 71.7533 242.423 71.592 243.244 71.592ZM262.094 77.664C262.094 78.016 262.072 78.3827 262.028 78.764H253.514C253.573 79.5267 253.815 80.1133 254.24 80.524C254.68 80.92 255.216 81.118 255.846 81.118C256.785 81.118 257.438 80.722 257.804 79.93H261.808C261.603 80.7367 261.229 81.4627 260.686 82.108C260.158 82.7533 259.491 83.2593 258.684 83.626C257.878 83.9927 256.976 84.176 255.978 84.176C254.776 84.176 253.705 83.9193 252.766 83.406C251.828 82.8927 251.094 82.1593 250.566 81.206C250.038 80.2527 249.774 79.138 249.774 77.862C249.774 76.586 250.031 75.4713 250.544 74.518C251.072 73.5647 251.806 72.8313 252.744 72.318C253.683 71.8047 254.761 71.548 255.978 71.548C257.166 71.548 258.222 71.7973 259.146 72.296C260.07 72.7947 260.789 73.506 261.302 74.43C261.83 75.354 262.094 76.432 262.094 77.664ZM258.244 76.674C258.244 76.0287 258.024 75.5153 257.584 75.134C257.144 74.7527 256.594 74.562 255.934 74.562C255.304 74.562 254.768 74.7453 254.328 75.112C253.903 75.4787 253.639 75.9993 253.536 76.674H258.244ZM66.2177 113.81V117H64.3037C62.9397 117 61.8764 116.67 61.1137 116.01C60.3511 115.335 59.9697 114.243 59.9697 112.732V107.848H58.4737V104.724H59.9697V101.732H63.7317V104.724H66.1957V107.848H63.7317V112.776C63.7317 113.143 63.8197 113.407 63.9957 113.568C64.1717 113.729 64.4651 113.81 64.8757 113.81H66.2177ZM72.0752 106.77C72.5152 106.095 73.0652 105.567 73.7252 105.186C74.3852 104.79 75.1186 104.592 75.9252 104.592V108.574H74.8912C73.9526 108.574 73.2486 108.779 72.7792 109.19C72.3099 109.586 72.0752 110.29 72.0752 111.302V117H68.3132V104.724H72.0752V106.77ZM76.9754 110.84C76.9754 109.579 77.21 108.471 77.6794 107.518C78.1634 106.565 78.816 105.831 79.6374 105.318C80.4587 104.805 81.3754 104.548 82.3874 104.548C83.2527 104.548 84.008 104.724 84.6534 105.076C85.3134 105.428 85.8194 105.89 86.1714 106.462V104.724H89.9334V117H86.1714V115.262C85.8047 115.834 85.2914 116.296 84.6314 116.648C83.986 117 83.2307 117.176 82.3654 117.176C81.368 117.176 80.4587 116.919 79.6374 116.406C78.816 115.878 78.1634 115.137 77.6794 114.184C77.21 113.216 76.9754 112.101 76.9754 110.84ZM86.1714 110.862C86.1714 109.923 85.9074 109.183 85.3794 108.64C84.866 108.097 84.2354 107.826 83.4874 107.826C82.7394 107.826 82.1014 108.097 81.5734 108.64C81.06 109.168 80.8034 109.901 80.8034 110.84C80.8034 111.779 81.06 112.527 81.5734 113.084C82.1014 113.627 82.7394 113.898 83.4874 113.898C84.2354 113.898 84.866 113.627 85.3794 113.084C85.9074 112.541 86.1714 111.801 86.1714 110.862ZM100.135 104.592C101.572 104.592 102.716 105.061 103.567 106C104.432 106.924 104.865 108.2 104.865 109.828V117H101.125V110.334C101.125 109.513 100.912 108.875 100.487 108.42C100.062 107.965 99.4897 107.738 98.771 107.738C98.0523 107.738 97.4803 107.965 97.055 108.42C96.6297 108.875 96.417 109.513 96.417 110.334V117H92.655V104.724H96.417V106.352C96.7983 105.809 97.3117 105.384 97.957 105.076C98.6023 104.753 99.3283 104.592 100.135 104.592ZM106.731 110.884C106.731 109.667 106.981 108.581 107.479 107.628C107.993 106.675 108.675 105.934 109.525 105.406C110.391 104.863 111.329 104.592 112.341 104.592C113.119 104.592 113.815 104.731 114.431 105.01C115.047 105.274 115.546 105.648 115.927 106.132V104.724H119.689V122.852H115.927V115.46C115.502 115.973 114.981 116.384 114.365 116.692C113.764 117 113.075 117.154 112.297 117.154C111.3 117.154 110.376 116.89 109.525 116.362C108.675 115.834 107.993 115.093 107.479 114.14C106.981 113.187 106.731 112.101 106.731 110.884ZM115.927 110.862C115.927 110.202 115.795 109.652 115.531 109.212C115.282 108.757 114.952 108.42 114.541 108.2C114.131 107.965 113.698 107.848 113.243 107.848C112.803 107.848 112.378 107.965 111.967 108.2C111.557 108.42 111.219 108.757 110.955 109.212C110.691 109.667 110.559 110.224 110.559 110.884C110.559 111.544 110.691 112.101 110.955 112.556C111.219 112.996 111.557 113.333 111.967 113.568C112.378 113.788 112.803 113.898 113.243 113.898C113.683 113.898 114.109 113.788 114.519 113.568C114.945 113.333 115.282 112.989 115.531 112.534C115.795 112.079 115.927 111.522 115.927 110.862ZM134.533 104.724V117H130.771V115.328C130.39 115.871 129.869 116.311 129.209 116.648C128.564 116.971 127.845 117.132 127.053 117.132C126.114 117.132 125.286 116.927 124.567 116.516C123.848 116.091 123.291 115.482 122.895 114.69C122.499 113.898 122.301 112.967 122.301 111.896V104.724H126.041V111.39C126.041 112.211 126.254 112.849 126.679 113.304C127.104 113.759 127.676 113.986 128.395 113.986C129.128 113.986 129.708 113.759 130.133 113.304C130.558 112.849 130.771 112.211 130.771 111.39V104.724H134.533ZM139.127 103.448C138.467 103.448 137.924 103.257 137.499 102.876C137.088 102.48 136.883 101.996 136.883 101.424C136.883 100.837 137.088 100.353 137.499 99.972C137.924 99.576 138.467 99.378 139.127 99.378C139.772 99.378 140.3 99.576 140.711 99.972C141.136 100.353 141.349 100.837 141.349 101.424C141.349 101.996 141.136 102.48 140.711 102.876C140.3 103.257 139.772 103.448 139.127 103.448ZM140.997 104.724V117H137.235V104.724H140.997ZM147.485 100.72V117H143.723V100.72H147.485ZM160.462 117.176C159.259 117.176 158.174 116.919 157.206 116.406C156.252 115.893 155.497 115.159 154.94 114.206C154.397 113.253 154.126 112.138 154.126 110.862C154.126 109.601 154.404 108.493 154.962 107.54C155.519 106.572 156.282 105.831 157.25 105.318C158.218 104.805 159.303 104.548 160.506 104.548C161.708 104.548 162.794 104.805 163.762 105.318C164.73 105.831 165.492 106.572 166.05 107.54C166.607 108.493 166.886 109.601 166.886 110.862C166.886 112.123 166.6 113.238 166.028 114.206C165.47 115.159 164.7 115.893 163.718 116.406C162.75 116.919 161.664 117.176 160.462 117.176ZM160.462 113.92C161.18 113.92 161.789 113.656 162.288 113.128C162.801 112.6 163.058 111.845 163.058 110.862C163.058 109.879 162.808 109.124 162.31 108.596C161.826 108.068 161.224 107.804 160.506 107.804C159.772 107.804 159.164 108.068 158.68 108.596C158.196 109.109 157.954 109.865 157.954 110.862C157.954 111.845 158.188 112.6 158.658 113.128C159.142 113.656 159.743 113.92 160.462 113.92ZM168.134 110.862C168.134 109.586 168.39 108.471 168.904 107.518C169.432 106.565 170.158 105.831 171.082 105.318C172.02 104.805 173.091 104.548 174.294 104.548C175.834 104.548 177.117 104.951 178.144 105.758C179.185 106.565 179.867 107.701 180.19 109.168H176.186C175.848 108.229 175.196 107.76 174.228 107.76C173.538 107.76 172.988 108.031 172.578 108.574C172.167 109.102 171.962 109.865 171.962 110.862C171.962 111.859 172.167 112.629 172.578 113.172C172.988 113.7 173.538 113.964 174.228 113.964C175.196 113.964 175.848 113.495 176.186 112.556H180.19C179.867 113.993 179.185 115.123 178.144 115.944C177.102 116.765 175.819 117.176 174.294 117.176C173.091 117.176 172.02 116.919 171.082 116.406C170.158 115.893 169.432 115.159 168.904 114.206C168.39 113.253 168.134 112.138 168.134 110.862ZM193.774 110.664C193.774 111.016 193.752 111.383 193.708 111.764H185.194C185.253 112.527 185.495 113.113 185.92 113.524C186.36 113.92 186.895 114.118 187.526 114.118C188.465 114.118 189.117 113.722 189.484 112.93H193.488C193.283 113.737 192.909 114.463 192.366 115.108C191.838 115.753 191.171 116.259 190.364 116.626C189.557 116.993 188.655 117.176 187.658 117.176C186.455 117.176 185.385 116.919 184.446 116.406C183.507 115.893 182.774 115.159 182.246 114.206C181.718 113.253 181.454 112.138 181.454 110.862C181.454 109.586 181.711 108.471 182.224 107.518C182.752 106.565 183.485 105.831 184.424 105.318C185.363 104.805 186.441 104.548 187.658 104.548C188.846 104.548 189.902 104.797 190.826 105.296C191.75 105.795 192.469 106.506 192.982 107.43C193.51 108.354 193.774 109.432 193.774 110.664ZM189.924 109.674C189.924 109.029 189.704 108.515 189.264 108.134C188.824 107.753 188.274 107.562 187.614 107.562C186.983 107.562 186.448 107.745 186.008 108.112C185.583 108.479 185.319 108.999 185.216 109.674H189.924ZM195.011 110.84C195.011 109.579 195.245 108.471 195.715 107.518C196.199 106.565 196.851 105.831 197.673 105.318C198.494 104.805 199.411 104.548 200.423 104.548C201.288 104.548 202.043 104.724 202.689 105.076C203.349 105.428 203.855 105.89 204.207 106.462V104.724H207.969V117H204.207V115.262C203.84 115.834 203.327 116.296 202.667 116.648C202.021 117 201.266 117.176 200.401 117.176C199.403 117.176 198.494 116.919 197.673 116.406C196.851 115.878 196.199 115.137 195.715 114.184C195.245 113.216 195.011 112.101 195.011 110.84ZM204.207 110.862C204.207 109.923 203.943 109.183 203.415 108.64C202.901 108.097 202.271 107.826 201.523 107.826C200.775 107.826 200.137 108.097 199.609 108.64C199.095 109.168 198.839 109.901 198.839 110.84C198.839 111.779 199.095 112.527 199.609 113.084C200.137 113.627 200.775 113.898 201.523 113.898C202.271 113.898 202.901 113.627 203.415 113.084C203.943 112.541 204.207 111.801 204.207 110.862ZM218.17 104.592C219.608 104.592 220.752 105.061 221.602 106C222.468 106.924 222.9 108.2 222.9 109.828V117H219.16V110.334C219.16 109.513 218.948 108.875 218.522 108.42C218.097 107.965 217.525 107.738 216.806 107.738C216.088 107.738 215.516 107.965 215.09 108.42C214.665 108.875 214.452 109.513 214.452 110.334V117H210.69V104.724H214.452V106.352C214.834 105.809 215.347 105.384 215.992 105.076C216.638 104.753 217.364 104.592 218.17 104.592ZM230.024 100.698C231.594 100.698 232.848 101.109 233.786 101.93C234.74 102.751 235.216 103.91 235.216 105.406C235.216 106.785 234.762 107.863 233.852 108.64C232.958 109.403 231.77 109.791 230.288 109.806L230.178 111.456H226.878L226.768 107.364H228.088C229.218 107.364 230.076 107.225 230.662 106.946C231.264 106.667 231.564 106.161 231.564 105.428C231.564 104.915 231.425 104.511 231.146 104.218C230.868 103.925 230.479 103.778 229.98 103.778C229.452 103.778 229.042 103.932 228.748 104.24C228.455 104.533 228.308 104.937 228.308 105.45H224.766C224.737 104.555 224.92 103.749 225.316 103.03C225.727 102.311 226.328 101.747 227.12 101.336C227.927 100.911 228.895 100.698 230.024 100.698ZM228.572 117.176C227.912 117.176 227.37 116.985 226.944 116.604C226.534 116.208 226.328 115.724 226.328 115.152C226.328 114.565 226.534 114.074 226.944 113.678C227.37 113.282 227.912 113.084 228.572 113.084C229.218 113.084 229.746 113.282 230.156 113.678C230.582 114.074 230.794 114.565 230.794 115.152C230.794 115.724 230.582 116.208 230.156 116.604C229.746 116.985 229.218 117.176 228.572 117.176Z" fill="white"/>
</svg>
