<svg width="142" height="73" viewBox="0 0 142 73" fill="none" xmlns="http://www.w3.org/2000/svg">
<path d="M54.7417 0.237999L47.2087 14.808V22H41.9077V14.808L34.3747 0.237999H40.3887L44.6047 9.352L48.7897 0.237999H54.7417ZM64.7516 22.248C63.0569 22.248 61.5276 21.8863 60.1636 21.163C58.8202 20.4397 57.7559 19.4063 56.9706 18.063C56.2059 16.7197 55.8236 15.149 55.8236 13.351C55.8236 11.5737 56.2162 10.0133 57.0016 8.67C57.7869 7.306 58.8616 6.26233 60.2256 5.539C61.5896 4.81567 63.1189 4.454 64.8136 4.454C66.5082 4.454 68.0376 4.81567 69.4016 5.539C70.7656 6.26233 71.8402 7.306 72.6256 8.67C73.4109 10.0133 73.8036 11.5737 73.8036 13.351C73.8036 15.1283 73.4006 16.699 72.5946 18.063C71.8092 19.4063 70.7242 20.4397 69.3396 21.163C67.9756 21.8863 66.4462 22.248 64.7516 22.248ZM64.7516 17.66C65.7642 17.66 66.6219 17.288 67.3246 16.544C68.0479 15.8 68.4096 14.7357 68.4096 13.351C68.4096 11.9663 68.0582 10.902 67.3556 10.158C66.6736 9.414 65.8262 9.042 64.8136 9.042C63.7802 9.042 62.9226 9.414 62.2406 10.158C61.5586 10.8813 61.2176 11.9457 61.2176 13.351C61.2176 14.7357 61.5482 15.8 62.2096 16.544C62.8916 17.288 63.7389 17.66 64.7516 17.66ZM93.6968 4.702V22H88.3958V19.644C87.8585 20.4087 87.1248 21.0287 86.1948 21.504C85.2855 21.9587 84.2728 22.186 83.1568 22.186C81.8342 22.186 80.6665 21.8967 79.6538 21.318C78.6412 20.7187 77.8558 19.861 77.2978 18.745C76.7398 17.629 76.4608 16.3167 76.4608 14.808V4.702H81.7308V14.095C81.7308 15.2523 82.0305 16.1513 82.6298 16.792C83.2292 17.4327 84.0352 17.753 85.0478 17.753C86.0812 17.753 86.8975 17.4327 87.4968 16.792C88.0962 16.1513 88.3958 15.2523 88.3958 14.095V4.702H93.6968ZM102.806 7.585C103.426 6.63433 104.201 5.89033 105.131 5.353C106.061 4.795 107.094 4.516 108.231 4.516V10.127H106.774C105.451 10.127 104.459 10.4163 103.798 10.995C103.136 11.553 102.806 12.545 102.806 13.971V22H97.5045V4.702H102.806V7.585ZM16.8864 72.72L14.0964 68.969C13.2697 69.1343 12.4637 69.217 11.6784 69.217C9.63236 69.217 7.75169 68.7417 6.03636 67.791C4.34169 66.8403 2.98802 65.5177 1.97536 63.823C0.983355 62.1077 0.487355 60.1857 0.487355 58.057C0.487355 55.9283 0.983355 54.0167 1.97536 52.322C2.98802 50.6273 4.34169 49.3047 6.03636 48.354C7.75169 47.4033 9.63236 46.928 11.6784 46.928C13.7244 46.928 15.5947 47.4033 17.2894 48.354C19.0047 49.3047 20.348 50.6273 21.3194 52.322C22.3114 54.0167 22.8074 55.9283 22.8074 58.057C22.8074 59.917 22.425 61.622 21.6604 63.172C20.9164 64.7013 19.8727 65.9723 18.5294 66.985L23.3034 72.72H16.8864ZM5.91236 58.057C5.91236 59.979 6.42902 61.5187 7.46236 62.676C8.51636 63.8127 9.92169 64.381 11.6784 64.381C13.4144 64.381 14.799 63.8023 15.8324 62.645C16.8864 61.4877 17.4134 59.9583 17.4134 58.057C17.4134 56.135 16.8864 54.6057 15.8324 53.469C14.799 52.3117 13.4144 51.733 11.6784 51.733C9.92169 51.733 8.51636 52.3013 7.46236 53.438C6.42902 54.5747 5.91236 56.1143 5.91236 58.057ZM42.898 51.702V69H37.597V66.644C37.0597 67.4087 36.326 68.0287 35.396 68.504C34.4867 68.9587 33.474 69.186 32.358 69.186C31.0354 69.186 29.8677 68.8967 28.855 68.318C27.8424 67.7187 27.057 66.861 26.499 65.745C25.941 64.629 25.662 63.3167 25.662 61.808V51.702H30.932V61.095C30.932 62.2523 31.2317 63.1513 31.831 63.792C32.4304 64.4327 33.2364 64.753 34.249 64.753C35.2824 64.753 36.0987 64.4327 36.698 63.792C37.2974 63.1513 37.597 62.2523 37.597 61.095V51.702H42.898ZM63.0117 60.072C63.0117 60.568 62.9807 61.0847 62.9187 61.622H50.9217C51.0044 62.6967 51.3454 63.5233 51.9447 64.102C52.5647 64.66 53.319 64.939 54.2077 64.939C55.5304 64.939 56.45 64.381 56.9667 63.265H62.6087C62.3194 64.4017 61.7924 65.4247 61.0277 66.334C60.2837 67.2433 59.3434 67.9563 58.2067 68.473C57.07 68.9897 55.799 69.248 54.3937 69.248C52.699 69.248 51.1904 68.8863 49.8677 68.163C48.545 67.4397 47.5117 66.4063 46.7677 65.063C46.0237 63.7197 45.6517 62.149 45.6517 60.351C45.6517 58.553 46.0134 56.9823 46.7367 55.639C47.4807 54.2957 48.514 53.2623 49.8367 52.539C51.1594 51.8157 52.6784 51.454 54.3937 51.454C56.0677 51.454 57.5557 51.8053 58.8577 52.508C60.1597 53.2107 61.1724 54.213 61.8957 55.515C62.6397 56.817 63.0117 58.336 63.0117 60.072ZM57.5867 58.677C57.5867 57.7677 57.2767 57.0443 56.6567 56.507C56.0367 55.9697 55.2617 55.701 54.3317 55.701C53.443 55.701 52.6887 55.9593 52.0687 56.476C51.4694 56.9927 51.0974 57.7263 50.9527 58.677H57.5867ZM72.8452 69.248C71.3366 69.248 69.9932 68.9897 68.8152 68.473C67.6372 67.9563 66.7072 67.2537 66.0252 66.365C65.3432 65.4557 64.9609 64.443 64.8782 63.327H70.1172C70.1792 63.9263 70.4582 64.412 70.9542 64.784C71.4502 65.156 72.0599 65.342 72.7832 65.342C73.4446 65.342 73.9509 65.218 74.3022 64.97C74.6742 64.7013 74.8602 64.3603 74.8602 63.947C74.8602 63.451 74.6019 63.0893 74.0852 62.862C73.5686 62.614 72.7316 62.3453 71.5742 62.056C70.3342 61.7667 69.3009 61.467 68.4742 61.157C67.6476 60.8263 66.9346 60.32 66.3352 59.638C65.7359 58.9353 65.4362 57.995 65.4362 56.817C65.4362 55.825 65.7049 54.926 66.2422 54.12C66.8002 53.2933 67.6062 52.6423 68.6602 52.167C69.7349 51.6917 71.0059 51.454 72.4732 51.454C74.6432 51.454 76.3482 51.9913 77.5882 53.066C78.8489 54.1407 79.5722 55.5667 79.7582 57.344H74.8602C74.7776 56.7447 74.5089 56.2693 74.0542 55.918C73.6202 55.5667 73.0416 55.391 72.3182 55.391C71.6982 55.391 71.2229 55.515 70.8922 55.763C70.5616 55.9903 70.3962 56.3107 70.3962 56.724C70.3962 57.22 70.6546 57.592 71.1712 57.84C71.7086 58.088 72.5352 58.336 73.6512 58.584C74.9326 58.9147 75.9762 59.2453 76.7822 59.576C77.5882 59.886 78.2909 60.4027 78.8902 61.126C79.5102 61.8287 79.8306 62.7793 79.8512 63.978C79.8512 64.9907 79.5619 65.9 78.9832 66.706C78.4252 67.4913 77.6089 68.1113 76.5342 68.566C75.4802 69.0207 74.2506 69.248 72.8452 69.248ZM92.7354 64.505V69H90.0384C88.1164 69 86.618 68.535 85.5434 67.605C84.4687 66.6543 83.9314 65.1147 83.9314 62.986V56.104H81.8234V51.702H83.9314V47.486H89.2324V51.702H92.7044V56.104H89.2324V63.048C89.2324 63.5647 89.3564 63.9367 89.6044 64.164C89.8524 64.3913 90.2657 64.505 90.8444 64.505H92.7354ZM98.3541 49.904C97.4241 49.904 96.6594 49.6353 96.0601 49.098C95.4814 48.54 95.1921 47.858 95.1921 47.052C95.1921 46.2253 95.4814 45.5433 96.0601 45.006C96.6594 44.448 97.4241 44.169 98.3541 44.169C99.2634 44.169 100.007 44.448 100.586 45.006C101.185 45.5433 101.485 46.2253 101.485 47.052C101.485 47.858 101.185 48.54 100.586 49.098C100.007 49.6353 99.2634 49.904 98.3541 49.904ZM100.989 51.702V69H95.6881V51.702H100.989ZM112.705 69.248C111.01 69.248 109.481 68.8863 108.117 68.163C106.773 67.4397 105.709 66.4063 104.924 65.063C104.159 63.7197 103.777 62.149 103.777 60.351C103.777 58.5737 104.169 57.0133 104.955 55.67C105.74 54.306 106.815 53.2623 108.179 52.539C109.543 51.8157 111.072 51.454 112.767 51.454C114.461 51.454 115.991 51.8157 117.355 52.539C118.719 53.2623 119.793 54.306 120.579 55.67C121.364 57.0133 121.757 58.5737 121.757 60.351C121.757 62.1283 121.354 63.699 120.548 65.063C119.762 66.4063 118.677 67.4397 117.293 68.163C115.929 68.8863 114.399 69.248 112.705 69.248ZM112.705 64.66C113.717 64.66 114.575 64.288 115.278 63.544C116.001 62.8 116.363 61.7357 116.363 60.351C116.363 58.9663 116.011 57.902 115.309 57.158C114.627 56.414 113.779 56.042 112.767 56.042C111.733 56.042 110.876 56.414 110.194 57.158C109.512 57.8813 109.171 58.9457 109.171 60.351C109.171 61.7357 109.501 62.8 110.163 63.544C110.845 64.288 111.692 64.66 112.705 64.66ZM135.109 51.516C137.134 51.516 138.746 52.1773 139.945 53.5C141.164 54.802 141.774 56.6 141.774 58.894V69H136.504V59.607C136.504 58.4497 136.204 57.5507 135.605 56.91C135.006 56.2693 134.2 55.949 133.187 55.949C132.174 55.949 131.368 56.2693 130.769 56.91C130.17 57.5507 129.87 58.4497 129.87 59.607V69H124.569V51.702H129.87V53.996C130.407 53.2313 131.131 52.632 132.04 52.198C132.949 51.7433 133.972 51.516 135.109 51.516Z" fill="white"/>
</svg>
